<?xml version="1.0" standalone="no"?><!DOCTYPE svg PUBLIC "-//W3C//DTD SVG 20010904//EN"
 "http://www.w3.org/TR/2001/REC-SVG-20010904/DTD/svg10.dtd"><svg version="1.0" xmlns="http://www.w3.org/2000/svg" width="794.6667" height="794.6667" viewBox="0 0 596 596"><metadata>Created by potrace 1.15, written by Peter Selinger 2001-2017</metadata><g fill="#FF4C2F"><path d="M187 99.6c-30 9.6-60.2 19.2-67.3 21.4l-12.7 4.1v88.2c0 52.8.4 92.6 1 99.2 4.4 46.2 24.4 90 57.8 126.4 7.6 8.3 128.2 113.4 131.6 114.7 1.4.5 107.4-89.9 124.8-106.5 30.2-28.7 53.8-70.7 62.2-110.9 4.4-21.2 4.7-29.1 4.4-123.1l-.3-88.4-67.9-21.4c-37.3-11.7-68-21.2-68.2-21.1-.1.2 5.5 11.3 12.6 24.8l12.9 24.5 19.3 6.2c10.6 3.4 26.6 8.5 35.6 11.3l16.3 5.1-.4 81.2c-.3 78-.4 81.6-2.4 90.7-7.6 34.3-23.3 63.4-47.4 88-4.6 4.7-28 25.4-51.9 45.9-23.9 20.6-44.7 38.5-46.2 39.9l-2.6 2.4-45.9-39.5c-56.1-48.4-64.5-56.6-77.9-77.2-10.3-15.9-17.9-33-22.5-50.7-4.5-18-4.9-24.7-4.9-104.9v-75.7l14.3-4.5c7.8-2.5 23.8-7.6 35.5-11.3 11.6-3.7 21.2-7.1 21.2-7.4 0-.3 5.6-11.3 12.5-24.4 6.9-13.2 12.5-24.1 12.5-24.3 0-.6-1.2-.2-56 17.3z"/><path d="M295.4 85.2c-.9 1.8-26.1 49.9-55.9 106.8l-54.2 103.5.8 8.4c1.8 17.2 8.2 35.4 18.6 51.9 3.7 6 4.8 7.1 5.8 6 .6-.7 20.4-38.1 44-83.1 23.5-44.9 43-81.7 43.4-81.7.3 0 20.1 36.4 43.9 80.8 23.8 44.4 43.7 81.5 44.3 82.5 1 1.7 1.2 1.6 2.8-.5 10.3-13.5 18.8-35.8 21.2-55.5l1.2-10-56.8-105.9c-31.2-58.2-56.9-106.1-57.1-106.2-.1-.2-1 1.1-2 3z"/><path d="M270 339.9l-27.5 54.9 15.5 13.5c8.5 7.4 21 18.1 27.7 23.7l12.3 10.2 2.7-2.2c1.6-1.2 13.9-11.9 27.4-23.8l24.7-21.6-27.4-54.8c-15.1-30.1-27.5-54.8-27.7-54.8-.1 0-12.6 24.7-27.7 54.9z"/></g></svg>
 