<?xml version="1.0" encoding="UTF-8"?>
<svg width="15px" height="14px" viewBox="0 0 15 14" version="1.1" xmlns="http://www.w3.org/2000/svg" xmlns:xlink="http://www.w3.org/1999/xlink">
    <!-- Generator: Sketch 51.3 (57544) - http://www.bohemiancoding.com/sketch -->
    <title>clip</title>
    <desc>Created with Sketch.</desc>
    <defs></defs>
    <g id="Design-System" stroke="none" stroke-width="1" fill="none" fill-rule="evenodd">
        <g id="Design-system-01" transform="translate(-889.000000, -2965.000000)" fill="#000000" fill-rule="nonzero">
            <g id="clip" transform="translate(889.000000, 2965.000000)">
                <path d="M13.2779452,1.09223179 C11.8289861,-0.356727265 9.47933161,-0.356727265 8.03041346,1.09223179 L0.815359073,8.30724527 C-0.271799994,9.39440434 -0.271799994,11.1559498 0.815359073,12.2431497 C1.71143178,13.1392224 3.0629863,13.2839179 4.11954536,12.7023134 C4.22991809,12.6967497 4.3384499,12.6550224 4.42288626,12.571527 L11.6378997,5.35651352 C12.3623588,4.63205444 12.3623588,3.4576772 11.6378997,2.73321812 C10.9134407,2.00875905 9.73906342,2.00875905 9.01460434,2.73321812 L3.11121811,8.63656344 C2.93031812,8.81746344 2.93031812,9.11151798 3.11121811,9.29237707 C3.29211811,9.47327706 3.58617265,9.47327706 3.76703173,9.29237707 L9.67041797,3.38903174 C10.033118,3.02633175 10.6202861,3.02633175 10.9820861,3.38903174 C11.3447861,3.75173173 11.3447861,4.3388999 10.9820861,4.70069989 L4.094509,11.5882361 C3.37004992,12.3126952 2.19567268,12.3126952 1.4712136,11.5882361 C0.746754529,10.863777 0.746754529,9.68939978 1.4712136,8.96494071 L8.68622708,1.74804542 C9.77338615,0.660886349 11.5349316,0.660886349 12.6221315,1.74804542 C13.7092906,2.83520448 13.7092906,4.5967499 12.6221315,5.68394987 L6.06293168,12.2431497 C5.88203169,12.4240497 5.88203169,12.7181043 6.06293168,12.8989633 C6.24383168,13.0798633 6.53788622,13.0798633 6.7187453,12.8989633 L13.2779452,6.33976349 C14.7269042,4.89084535 14.7269042,2.54119085 13.2779452,1.09223179 Z" id="Shape"></path>
            </g>
        </g>
    </g>
</svg>