<?xml version="1.0" standalone="no"?>
<!DOCTYPE svg PUBLIC "-//W3C//DTD SVG 20010904//EN"
 "http://www.w3.org/TR/2001/REC-SVG-20010904/DTD/svg10.dtd">
<svg version="1.0" xmlns="http://www.w3.org/2000/svg"
 width="980.000000pt" height="945.000000pt" viewBox="0 0 980.000000 945.000000"
 preserveAspectRatio="xMidYMid meet">
<metadata>
Created by potrace 1.16, written by Peter Selinger 2001-2019
Converted with https://image.online-convert.com/convert-to-svg
</metadata>
<g transform="translate(0.000000,945.000000) scale(0.100000,-0.100000)"
fill="#6E76FF" stroke="none">
<path d="M7434 9436 c-17 -8 -42 -29 -55 -47 -22 -32 -24 -45 -29 -199 -5
-150 -7 -168 -28 -202 -41 -65 -83 -92 -268 -168 -266 -108 -298 -104 -469 61
-55 53 -110 101 -122 108 -28 14 -78 14 -106 0 -31 -16 -316 -299 -333 -331
-18 -35 -18 -91 0 -126 8 -15 56 -67 106 -117 162 -158 166 -197 55 -467 -113
-273 -132 -288 -380 -297 -246 -9 -245 -8 -245 -329 0 -211 1 -220 23 -253 39
-58 74 -69 227 -69 168 0 200 -9 258 -68 38 -40 57 -75 119 -226 108 -263 104
-298 -51 -456 -51 -52 -101 -106 -110 -120 -18 -28 -21 -101 -5 -133 16 -31
289 -306 321 -323 36 -19 108 -18 138 2 14 9 68 59 120 110 157 154 187 157
453 52 157 -63 188 -79 227 -118 60 -59 70 -97 70 -261 0 -152 11 -187 69
-226 33 -22 42 -23 255 -23 249 0 273 6 311 70 17 30 20 56 24 190 2 125 7
162 21 190 31 59 81 98 175 136 50 20 131 53 182 75 102 43 175 51 239 24 20
-8 84 -62 143 -119 60 -59 120 -108 135 -112 15 -3 46 -4 68 -1 37 5 57 21
195 159 163 161 183 188 183 238 0 46 -13 65 -126 181 -90 93 -105 113 -119
164 -10 33 -15 73 -12 92 6 33 112 303 148 373 9 19 32 49 51 67 56 54 91 63
246 63 123 0 142 2 182 23 75 38 80 58 80 300 0 225 -5 251 -54 297 -26 24
-34 25 -190 31 -154 5 -164 7 -215 34 -70 38 -93 76 -174 275 -81 201 -82 204
-67 276 11 53 19 64 115 163 133 139 152 175 125 248 -13 32 -291 317 -332
339 -32 17 -76 18 -115 3 -15 -5 -73 -55 -128 -109 -162 -160 -198 -166 -446
-65 -198 81 -207 86 -243 121 -55 56 -63 86 -68 254 -4 176 -13 202 -78 239
-35 20 -53 21 -251 21 -157 -1 -222 -4 -245 -14z m442 -1316 c292 -75 520
-303 594 -594 27 -109 28 -283 0 -392 -73 -290 -299 -518 -591 -595 -113 -30
-289 -30 -402 0 -286 76 -511 300 -588 586 -30 110 -30 297 -1 407 77 286 306
514 592 588 106 27 289 27 396 0z"/>
<path d="M433 9106 c-98 -24 -183 -74 -263 -155 -87 -88 -122 -148 -150 -257
-20 -76 -20 -125 -20 -4123 0 -4443 -4 -4110 62 -4247 44 -92 158 -207 249
-251 139 -69 -229 -63 4276 -61 l4078 3 66 26 c37 14 87 37 112 52 67 40 161
140 200 215 72 137 67 -18 67 2081 l0 1891 -285 0 -285 0 0 -1850 0 -1850
-3985 0 -3985 0 0 3985 0 3985 1850 0 1850 0 0 285 0 285 -1892 -1 c-1491 -1
-1904 -3 -1945 -13z"/>
<path d="M1430 6255 l0 -365 2065 0 2065 0 0 365 0 365 -2065 0 -2065 0 0
-365z"/>
<path d="M1410 4200 l0 -370 2910 0 2910 0 0 370 0 370 -2910 0 -2910 0 0
-370z"/>
<path d="M1430 2095 l0 -365 3070 0 3070 0 0 365 0 365 -3070 0 -3070 0 0
-365z"/>
</g>
</svg>
