<svg width="24" height="23" xmlns="http://www.w3.org/2000/svg"><path d="M11.788 0C5.28 0 0 5.278 0 11.79c0 5.209 3.378 9.627 8.063 11.186.59.109.804-.255.804-.568 0-.28-.01-1.021-.016-2.005-3.279.712-3.97-1.58-3.97-1.58-.537-1.363-1.31-1.725-1.31-1.725-1.07-.731.081-.717.081-.717 1.183.084 1.806 1.215 1.806 1.215 1.051 1.802 2.76 1.282 3.431.98.107-.762.412-1.281.748-1.576-2.617-.297-5.37-1.31-5.37-5.827 0-1.287.46-2.34 1.214-3.163-.122-.298-.526-1.498.116-3.12 0 0 .99-.317 3.241 1.208.94-.262 1.95-.392 2.952-.397 1.002.005 2.01.135 2.951.397 2.251-1.525 3.24-1.208 3.24-1.208.642 1.622.238 2.822.117 3.12.756.823 1.212 1.876 1.212 3.163 0 4.53-2.757 5.526-5.383 5.818.423.364.8 1.083.8 2.183 0 1.576-.015 2.847-.015 3.234 0 .316.213.682.811.567 4.681-1.562 8.056-5.978 8.056-11.185C23.579 5.278 18.3 0 11.789 0" fill="#FFF" fill-rule="evenodd"/></svg>