<svg width="17" height="17" xmlns="http://www.w3.org/2000/svg" xmlns:xlink="http://www.w3.org/1999/xlink"><defs><path d="M6.38 12.006c-.213 0-.385-.201-.385-.448s.172-.448.385-.448L7 11V8l-.62-.116c-.213 0-.385-.201-.385-.448s.172-.448.385-.448h2.514L9 7v4l.619.11c.213 0 .386.201.386.448s-.173.448-.386.448H6.38zM8 6c-.5523 0-1-.4477-1-1s.4477-1 1-1 1 .4477 1 1-.4477 1-1 1zm0-6C3.581 0 0 3.582 0 8s3.581 8 8 8c4.418 0 8-3.582 8-8s-3.582-8-8-8z" id="a"/></defs><g transform="translate(.1797 .125)" fill="none" fill-rule="evenodd"><mask id="b" fill="#fff"><use xlink:href="#a"/></mask><use fill="#6E76FF" xlink:href="#a"/><g mask="url(#b)" fill="#DFDDF2"><path d="M0 0h16v16H0z"/></g></g></svg>