<?xml version="1.0" encoding="UTF-8"?>
<svg width="15px" height="12px" viewBox="0 0 15 12" version="1.1" xmlns="http://www.w3.org/2000/svg" xmlns:xlink="http://www.w3.org/1999/xlink">
    <!-- Generator: Sketch 51.3 (57544) - http://www.bohemiancoding.com/sketch -->
    <title>left-alignment</title>
    <desc>Created with Sketch.</desc>
    <defs></defs>
    <g id="Design-System" stroke="none" stroke-width="1" fill="none" fill-rule="evenodd">
        <g id="Design-system-01" transform="translate(-858.000000, -2965.000000)" fill="#231F20" fill-rule="nonzero">
            <g id="left-alignment" transform="translate(858.500000, 2965.631667)">
                <path d="M8.28434981,6.44989986 L0.801699982,6.44989986 C0.374149992,6.44989986 0,6.07574986 0,5.64814987 C0,5.22054988 0.374149992,4.84644989 0.801699982,4.84644989 L8.28434981,4.84644989 C8.71194981,4.84644989 9.0860498,5.22059988 9.0860498,5.64814987 C9.0860498,6.07574986 8.71194981,6.44989986 8.28434981,6.44989986 Z" id="Shape"></path>
                <g id="Group">
                    <path d="M13.0946497,1.63959996 L0.801699982,1.63959996 C0.374149992,1.63959996 0,1.26549997 0,0.837899981 C0,0.410299991 0.374149992,0.0361999992 0.801699982,0.0361999992 L13.0945997,0.0361999992 C13.5221997,0.0361999992 13.8962997,0.410349991 13.8962997,0.837899981 C13.8962997,1.26544997 13.5221997,1.63959996 13.0946497,1.63959996 Z" id="Shape"></path>
                    <path d="M13.0946497,11.2601497 L0.801699982,11.2601497 C0.374149992,11.2601497 0,10.8860498 0,10.4584498 C0,10.0308498 0.374149992,9.65674978 0.801699982,9.65674978 L13.0945997,9.65674978 C13.5221997,9.65674978 13.8962997,10.0308998 13.8962997,10.4584498 C13.8962997,10.8859998 13.5221997,11.2601497 13.0946497,11.2601497 Z" id="Shape"></path>
                </g>
            </g>
        </g>
    </g>
</svg>