<?xml version="1.0" encoding="UTF-8"?>
<svg width="15px" height="14px" viewBox="0 0 15 14" version="1.1" xmlns="http://www.w3.org/2000/svg" xmlns:xlink="http://www.w3.org/1999/xlink">
    <!-- Generator: Sketch 51.3 (57544) - http://www.bohemiancoding.com/sketch -->
    <title>link</title>
    <desc>Created with Sketch.</desc>
    <defs></defs>
    <g id="Design-System" stroke="none" stroke-width="1" fill="none" fill-rule="evenodd">
        <g id="Design-system-01" transform="translate(-921.000000, -2965.000000)" fill="#000000" fill-rule="nonzero">
            <g id="link" transform="translate(921.000000, 2965.000000)">
                <path d="M7.65599983,5.79899987 C7.49699983,5.95799987 7.49699983,6.21299986 7.65599983,6.37199986 C8.31299981,7.02899984 8.31299981,8.09699982 7.65599983,8.7539998 L4.20599991,12.2039997 C3.54899992,12.8609997 2.48099994,12.8609997 1.82399996,12.2039997 L1.30499997,11.6849997 C0.647999986,11.0279998 0.647999986,9.95999978 1.30499997,9.30299979 L4.75499989,5.85299987 C4.91399989,5.69399987 4.91399989,5.43899988 4.75499989,5.27999988 C4.5959999,5.12099989 4.3409999,5.12099989 4.18199991,5.27999988 L0.731999984,8.7299998 C0.260999994,9.20099979 0,9.82799978 0,10.4939998 C0,11.1599998 0.257999994,11.7869997 0.731999984,12.2579997 L1.25099997,12.7769997 C1.73699996,13.2629997 2.37599995,13.5059997 3.01499993,13.5059997 C3.65399992,13.5059997 4.2929999,13.2629997 4.77899989,12.7769997 L8.22899982,9.32699979 C9.20099979,8.35499981 9.20099979,6.77099985 8.22899982,5.79899987 C8.07299982,5.63999987 7.81499983,5.63999987 7.65599983,5.79899987 Z" id="Shape"></path>
                <path d="M13.7549997,1.26599997 L13.2359997,0.746999983 C12.2639997,-0.224999995 10.6799998,-0.224999995 9.70799978,0.746999983 L6.25799986,4.19699991 C5.28599988,5.16899988 5.28599988,6.75299985 6.25799986,7.72499983 C6.41699986,7.88399982 6.67199985,7.88399982 6.83099985,7.72499983 C6.98999984,7.56599983 6.98999984,7.31099984 6.83099985,7.15199984 C6.17399986,6.49499985 6.17399986,5.42699988 6.83099985,4.76999989 L10.2809998,1.31999997 C10.9379998,0.662999985 12.0059997,0.662999985 12.6629997,1.31999997 L13.1819997,1.83899996 C13.8389997,2.49599994 13.8389997,3.56399992 13.1819997,4.22099991 L9.73199978,7.67099983 C9.57299979,7.82999982 9.57299979,8.08499982 9.73199978,8.24399982 C9.80999978,8.32199981 9.91499978,8.36399981 10.0169998,8.36399981 C10.1189998,8.36399981 10.2239998,8.32499981 10.3019998,8.24399982 L13.7519997,4.79399989 C14.2229997,4.3229999 14.4839997,3.69599992 14.4839997,3.02999993 C14.4839997,2.36399995 14.2259997,1.73699996 13.7549997,1.26599997 Z" id="Shape"></path>
            </g>
        </g>
    </g>
</svg>