<?xml version="1.0" encoding="UTF-8"?>
<svg width="35px" height="35px" viewBox="0 0 35 35" version="1.1" xmlns="http://www.w3.org/2000/svg" xmlns:xlink="http://www.w3.org/1999/xlink">
    <!-- Generator: Sketch 51.3 (57544) - http://www.bohemiancoding.com/sketch -->
    <title>Icons/Mainnet</title>
    <desc>Created with Sketch.</desc>
    <defs></defs>
    <g id="Design-System" stroke="none" stroke-width="1" fill="none" fill-rule="evenodd">
        <g id="Design-system-01" transform="translate(-610.000000, -2954.000000)">
            <g id="Icons/Mainnet" transform="translate(610.000000, 2953.744141)">
                <g id="Wallet-" fill="#E9EAFF">
                    <circle id="Oval" cx="17.3125003" cy="17.5000003" r="17.0000003"></circle>
                </g>
                <g id="wifi" transform="translate(7.750000, 10.000000)" fill="#6E76FF">
                    <path d="M19.275,3.975 C16.8,1.5 13.5,0 9.75,0 C6,0 2.625,1.5 0.225,3.975 C0.075,4.125 0,4.275 0,4.5 C0,4.725 0.075,4.875 0.225,5.025 L1.275,6.075 C1.575,6.375 2.025,6.375 2.325,6.075 C4.2,4.2 6.825,3 9.75,3 C12.675,3 15.3,4.2 17.175,6.075 C17.475,6.375 17.925,6.375 18.225,6.075 L19.275,5.025 C19.425,4.875 19.5,4.725 19.5,4.5 C19.5,4.275 19.425,4.05 19.275,3.975 Z" id="Shape" fill-rule="nonzero"></path>
                    <path d="M9.75,6 C7.65,6 5.85,6.825 4.5,8.175 C4.2,8.475 4.2,8.925 4.5,9.225 L5.55,10.275 C5.85,10.575 6.3,10.575 6.6,10.275 C7.425,9.45 8.55,9 9.75,9 C10.95,9 12.075,9.525 12.9,10.275 C13.2,10.575 13.65,10.575 13.95,10.275 L15,9.225 C15.3,8.925 15.3,8.475 15,8.175 C13.65,6.825 11.85,6 9.75,6 Z" id="Shape" fill-rule="nonzero"></path>
                    <circle id="Oval" fill-rule="nonzero" cx="9.75" cy="13.5" r="1.5"></circle>
                </g>
            </g>
        </g>
    </g>
</svg>