<?xml version="1.0" encoding="UTF-8"?>
<svg width="26px" height="31px" viewBox="0 0 26 31" version="1.1" xmlns="http://www.w3.org/2000/svg" xmlns:xlink="http://www.w3.org/1999/xlink">
    <!-- Generator: Sketch 51.3 (57544) - http://www.bohemiancoding.com/sketch -->
    <title>Notification</title>
    <desc>Created with Sketch.</desc>
    <defs></defs>
    <g id="Design-System" stroke="none" stroke-width="1" fill="none" fill-rule="evenodd">
        <g id="Design-system-01" transform="translate(-786.000000, -2955.000000)" fill="#CCCED8">
            <path d="M810.503173,2980.79288 L808.972211,2980.79288 L808.972211,2971.70388 C808.972211,2966.87798 805.487244,2962.83489 800.851793,2961.85885 C801.993161,2960.95986 802.43094,2959.45375 801.944221,2958.101 C801.457708,2956.74845 800.152456,2955.84375 798.687637,2955.84375 C797.223093,2955.84375 795.917841,2956.74845 795.431327,2958.101 C794.944334,2959.45375 795.382319,2960.95986 796.523481,2961.85885 C791.888304,2962.83489 788.403063,2966.87825 788.403063,2971.70388 L788.403063,2980.79288 L786.872101,2980.79288 C786.494021,2980.79288 786.1875,2981.09281 786.1875,2981.46301 C786.1875,2981.83315 786.494021,2982.13335 786.872101,2982.13335 L794.601828,2982.13335 C794.762765,2984.22617 796.544318,2985.84375 798.687637,2985.84375 C800.830888,2985.84375 802.612235,2984.22617 802.773104,2982.13335 L810.503173,2982.13335 C810.881184,2982.13335 811.1875,2981.83315 811.1875,2981.46301 C811.1875,2981.09281 810.881184,2980.79288 810.503173,2980.79288 Z M798.687637,2957.18657 C799.838669,2957.18657 800.771462,2958.10019 800.771462,2959.22724 C800.771462,2960.35429 799.838943,2961.26791 798.687637,2961.26791 C797.536605,2961.26791 796.603538,2960.35429 796.603538,2959.22724 C796.604841,2958.10073 797.537154,2957.18784 798.687637,2957.18657 Z M798.687637,2962.97409 C803.609321,2962.97959 807.597869,2966.88482 807.603489,2971.70388 L807.603489,2974.86532 L789.772059,2974.86532 L789.772059,2971.70388 C789.777406,2966.88482 793.765954,2962.97959 798.687637,2962.97409 Z M789.772059,2980.79288 L807.603489,2980.79288 L807.603489,2974.86532 L789.772059,2974.86532 L789.772059,2980.79288 Z M798.687637,2984.50355 C797.300203,2984.50174 796.134435,2983.48268 795.97617,2982.13335 L801.39931,2982.13335 C801.24084,2983.48268 800.074797,2984.50174 798.687637,2984.50355 Z" id="Notification"></path>
        </g>
    </g>
</svg>