<svg id="svg" version="1.1" xmlns="http://www.w3.org/2000/svg" width="400" height="400" viewBox="0, 0, 400,400"><g id="svgg" stroke="none" fill-rule="evenodd"><path id="path0" d="M394.476 28.5c-.255 3.135-.659 12-.898 19.7-.381 12.25-.531 14.233-1.202 15.864-.503 1.222-.845 3.288-.993 6-.329 6.036-.476 6.736-1.411 6.736-.477 0-.943.398-1.172 1-.209.55-.665 1-1.014 1-.348 0-.545.142-.438.316.108.174-.376.259-1.076.188-1.729-.175-2.607.411-1.897 1.266.449.541.399.63-.352.63-.482 0-1.247.199-1.7.441-.632.339-.913.315-1.204-.1-.316-.45-.418-.444-.609.036-.413 1.045-2.058 2.423-2.892 2.423-.45 0-.818.155-.818.344 0 .19-.81.775-1.8 1.3s-1.8 1.09-1.8 1.255c0 .166-.442.301-.982.301s-1.432.45-1.982 1c-.632.632-1.451 1-2.228 1-.935 0-1.317.234-1.601.981-.205.539-.965 1.284-1.69 1.656-.724.371-1.407.794-1.517.939-.11.146-1.039.58-2.065.964-1.025.385-1.958.942-2.072 1.239-.114.297-.895.764-1.735 1.036-.84.273-1.978.81-2.528 1.195-1.32.922-3.912 1.99-4.831 1.99-.403 0-1.183.45-1.733 1s-1.356 1-1.791 1c-.566 0-.828.313-.918 1.1-.1.864-.363 1.127-1.227 1.227-.767.088-1.1.355-1.1.881 0 .828-2.237 1.493-3.453 1.027-.412-.158-.864.04-1.207.529-.301.43-1.671 1.315-3.044 1.967-1.373.651-2.932 1.654-3.466 2.227-.533.573-1.38 1.042-1.882 1.042-.501 0-1.362.45-1.912 1-.566.566-1.462 1-2.065 1-.613 0-1.645.509-2.432 1.2-.752.66-1.715 1.2-2.141 1.2-.426 0-1.173.54-1.661 1.2-.499.675-1.257 1.2-1.732 1.2-1.733 0-2.998.925-3.008 2.2-.007.85-.112 1.038-.362.642-.606-.956-3.527-.231-4.705 1.168-.701.834-1.361 1.19-2.203 1.19-.867 0-1.26.224-1.412.804-.419 1.601-6.515 4.568-6.515 3.171 0-.206-.18-.375-.4-.375-.22 0-.4.52-.4 1.156 0 .996-.181 1.185-1.3 1.363-2.418.384-4.485 1.037-4.626 1.46-.077.231-.367.421-.643.421s-.708.45-.958 1c-.331.726-.768 1-1.595 1-.717 0-1.498.389-2.108 1.052-.534.578-1.51 1.304-2.17 1.613-.66.309-2.1 1.09-3.2 1.735-1.1.646-2.284 1.18-2.63 1.187-.347.007-1.063.473-1.591 1.036-.608.647-1.241.95-1.721.824-.418-.109-1.21.096-1.761.457-.55.361-1.742.755-2.648.876-1.399.187-1.769.447-2.448 1.719-.54 1.01-1.078 1.499-1.652 1.5-1.581.002-3.719 1.183-4.35 2.402-.697 1.35-.739 1.366-1.866.763-.677-.362-1.006-.252-1.948.651-1.293 1.238-1.997 1.67-5.476 3.359-1.37.665-2.719 1.573-2.996 2.017-.298.476-.935.809-1.549.809-1.04 0-1.044.012-1.296 4.1-1.182 19.186-1.456 23.874-1.462 25.033-.007 1.546-.847 1.571-1.22.037-.417-1.711-.779 2.971-.783 10.13-.003 6.335-.045 6.7-.77 6.7-.421 0-.857-.225-.968-.5-.111-.275-.216.208-.233 1.074-.021 1.029-.344 1.929-.932 2.597l-.9 1.023.9-.759.9-.759v1.68c0 1.111-.169 1.657-.5 1.614-1.152-.149-1.5.083-1.5 1.002 0 .704-.249 1.008-.9 1.1-.768.109-.918.407-1.022 2.028-.067 1.045-.292 1.922-.5 1.95-.208.028-.603.072-.878.1-.527.053-.57.215-.65 2.45-.046 1.278-.155 1.4-1.25 1.4-1.54 0-2.8 1.26-2.8 2.8 0 1.013-.156 1.2-1 1.2-.8 0-1 .2-1 1 0 .622-.227 1-.6 1-.33 0-.6.192-.6.427 0 .239-.338.32-.766.184-.509-.162-.956.028-1.332.565-.312.445-.986.872-1.5.951-1.66.253-1.498 1.873.188 1.873 1.105 0 1.335-.129 1.139-.64-.312-.814.521-1.346 2.122-1.354.688-.003 1.475-.276 1.749-.606.274-.33.81-.6 1.191-.6.382 0 1.519-.63 2.527-1.4 1.068-.815 2.293-1.4 2.932-1.4.604 0 1.497-.375 1.985-.833.499-.468 1.647-.922 2.626-1.037 1.851-.217 4.148-1.097 4.546-1.741.132-.214 1.04-.389 2.017-.389 1.628 0 1.776-.083 1.776-1 0-.778.205-1 .925-1 .513 0 1.449-.55 2.1-1.233.646-.678 1.76-1.479 2.475-1.779.984-.414 1.3-.795 1.3-1.568 0-.729.213-1.02.746-1.02.41 0 1.184-.345 1.719-.766.536-.421 1.505-.826 2.154-.9 1.006-.114 1.2-.327 1.306-1.434.118-1.225.216-1.3 1.7-1.3 1.05 0 1.575-.179 1.575-.536 0-.651 1.676-1.464 3.019-1.464.595 0 .981-.231.981-.586 0-.322.402-.801.892-1.063.491-.263 1.224-.899 1.629-1.415.517-.656 1.147-.936 2.108-.936 1.196 0 1.371-.128 1.371-1 0-.78.205-1 .93-1 .512 0 1.353-.45 1.87-1 .572-.609 1.381-1 2.07-1 .86 0 1.13-.189 1.13-.792 0-.49.346-.88.906-1.02.498-.125 1.791-1.119 2.874-2.208 1.17-1.177 2.325-1.98 2.848-1.98.484 0 1.396-.269 2.026-.598l1.146-.597-1.257-.003c-1.416-.002-2.011-.882-1.106-1.633.467-.387.796-.379 1.577.038 1.007.54 2.986-.04 2.986-.875 0-.182.45-.332 1-.332.8 0 1-.2 1-1s.2-1 1-1 1-.2 1-1c0-.713.216-1 .754-1 1.207 0 2.851-1.023 4.124-2.568.717-.87 1.534-1.432 2.081-1.432.496 0 1.324-.45 1.841-1 .572-.609 1.381-1 2.07-1 .989 0 1.13-.15 1.13-1.2 0-.742.206-1.2.542-1.2.568 0 2.431-1.562 2.701-2.266.364-.95 2.293-.977 2.475-.035.148.773.181.745.228-.199.044-.892.243-1.1 1.054-1.1.663 0 1.021-.236 1.061-.7.033-.385.081-.909.105-1.164.092-.952 1.586-2.136 2.696-2.136 1.034 0 1.138-.128 1.138-1.4 0-.989.179-1.4.611-1.4.337 0 1.642-.517 2.9-1.148 3.203-1.606 4.089-1.846 4.089-1.106 0 .348-.463.671-1.1.767-1.024.156-1.01.171.2.227 1.22.056 1.3-.023 1.3-1.278 0-1.656 1.032-2.662 2.731-2.662 1.087 0 1.269-.144 1.269-1 0-.777.205-1 .922-1 .528 0 1.5-.598 2.278-1.4.746-.77 1.521-1.4 1.721-1.4.2 0 .862-.405 1.471-.9.609-.495 1.706-1.26 2.438-1.7 2.129-1.28 2.508-1.545 3.67-2.572.605-.535 1.1-1.197 1.1-1.471 0-.594 2.341-1.841 2.857-1.522.953.589 3.522-1.221 3.533-2.489.012-1.438 1.29-2.512 3.096-2.6 1.01-.05 1.026-.072.168-.234-1.046-.199 1.026-2.912 2.224-2.912.287 0 .522-.174.522-.387 0-.212.585-1.008 1.3-1.767.715-.759 1.607-1.8 1.983-2.313.376-.513 1.098-1.473 1.605-2.133 1.746-2.273 6.312-9.261 6.312-9.661 0-.22.435-.808.966-1.307.532-.499 1.084-1.377 1.228-1.95.144-.573.699-1.447 1.234-1.943.534-.495.972-1.269.972-1.72 0-.45.235-.819.521-.819.287 0 1.238-.527 2.113-1.171.875-.643 2.081-1.293 2.679-1.443.951-.239 1.087-.469 1.087-1.838 0-1.262.185-1.65.955-2 .815-.372.98-.781 1.125-2.786.119-1.639.42-2.625.993-3.257.54-.594.915-1.727 1.089-3.296.147-1.315.599-2.955 1.006-3.645.424-.719.859-2.513 1.019-4.209.154-1.625.615-3.675 1.023-4.555.467-1.005.907-3.385 1.182-6.4.241-2.64.697-5.799 1.013-7.02.343-1.324.738-6.092.977-11.8.892-21.28 1.329-28.21 1.769-28.063.817.272 1.449-1.805 1.449-4.763 0-2.678-.41-3.755-.935-2.454-.161.4-.208.4-.233 0-.145-2.296-.778.552-1.156 5.2m-242.365 169c-.716 3.217-.907 5.686-1.094 14.1-.145 6.543-.511 12.423-1.021 16.4-.438 3.41-.796 6.425-.796 6.7 0 .275-.45.5-1 .5-.778 0-1 .205-1 .925 0 1.156-1.949 3.075-3.122 3.075-.68 0-.888.248-.924 1.1-.029.677-.117.831-.23.4-.315-1.205-3.924-.978-4.761.3-.456.696-1.017 1-1.846 1-.889 0-1.706.505-3.23 1.998l-2.04 1.997-.861-.809c-1.194-1.121-2.114-.654-2.264 1.148l-.122 1.466-2.3.12-2.3.12-.046 1.68c-.026.924-.133 1.344-.239.934-.317-1.234-2.679-.573-4.74 1.326-.966.891-1.929 1.62-2.139 1.62-.21 0-.502.377-.648.838-.263.827-.279.825-1.327-.173-.971-.924-1.129-.959-1.861-.409-.49.368-1.285.525-2.053.405-1.489-.232-2.147.31-2.147 1.77 0 1.484-.885 2.166-2.022 1.557-.781-.418-1.089-.253-2.938 1.573-1.364 1.347-2.401 2.039-3.055 2.039-1.653 0-3.546.696-4.829 1.776-.787.662-1.701 1.024-2.587 1.024-.95 0-1.369.184-1.369.6 0 .453-.489.6-2 .6-1.867 0-2 .067-2 1 0 .831-.191 1-1.13 1-.689 0-1.498.391-2.07 1-.517.55-1.358 1-1.87 1-.737 0-.94.229-.976 1.1-.029.677-.117.831-.23.4-.274-1.05-1.987-.882-2.741.27-.35.534-1.164 1.154-1.809 1.379-.962.336-1.182.648-1.22 1.73-.026.727-.129 1.006-.23.621-.322-1.235-1.517-.89-7.419 2.143-.382.196-1.057.357-1.5.357-.592 0-.805.264-.805 1 0 .831-.191 1-1.13 1-.689 0-1.498.391-2.07 1-.544.579-1.386 1-2 1-.614 0-1.456.421-2 1-.547.583-1.385 1-2.008 1-.587 0-1.41.378-1.829.841-1.019 1.126-2.696 1.959-3.943 1.959-.64 0-1.02.224-1.02.6 0 .453-.489.6-2 .6-1.841 0-2 .076-2 .953 0 1.006-.842 1.431-2.853 1.442-.715.003-1.121.263-1.263.805-.132.505-.546.8-1.121.8-.501 0-1.312.376-1.801.836l-.89.836-.836-.836c-.46-.46-.973-.836-1.141-.836-.168 0-.483-.405-.7-.9-.217-.495-.8-.958-1.295-1.028-.694-.098-.9-.39-.9-1.273 0-.815-.345-1.39-1.2-1.999-.66-.47-1.2-1.078-1.2-1.352 0-.273-.4-.926-.888-1.45-.488-.524-.924-1.202-.969-1.507-.175-1.191-.517-1.593-1.52-1.784-.573-.11-1.128-.061-1.233.109-.105.17-.53.22-.945.112-.415-.109-.876-.002-1.023.237-.167.27.119.435.754.435.879 0 1.031.184 1.07 1.3.083 2.345.145 2.499 1.054 2.628.651.092.9.396.9 1.1 0 .77.208.972 1 .972.933 0 1 .133 1 2s.067 2 1 2c.958 0 1.331.953 1.019 2.6-.042.22.146.182.418-.085.594-.584 1.563.986 1.563 2.531 0 .745.214.954.978.954.883 0 .99.185 1.1 1.9.104 1.621.254 1.919 1.022 2.028.651.092.9.396.9 1.1 0 .77.208.972 1 .972.8 0 1 .2 1 1s.2 1 1 1c.933 0 1 .133 1 2s.067 2 1 2c.8 0 1 .2 1 1s.2 1 1 1 1 .2 1 1 .2 1 1 1c.872 0 1 .176 1 1.367 0 1.885.353 2.633 1.243 2.633.541 0 .757.286.757 1 0 .55.135.979.3.953 1.048-.166 1.661.162 1.772.947.081.57.449.946 1.003 1.025.546.077.923.454 1 1 .079.554.455.922 1.025 1.003.651.092.9.396.9 1.1 0 .763.209.972.972.972.704 0 1.008.249 1.1.9.082.578.45.946 1.028 1.028.651.092.9.396.9 1.1 0 .77.208.972 1 .972.8 0 1 .2 1 1s.2 1 1 1 1 .2 1 1c0 .792.202 1 .972 1 .704 0 1.008.249 1.1.9.082.578.45.946 1.028 1.028.785.111 1.113.724.947 1.772-.026.165.403.3.953.3.892 0 1.194.374 1.047 1.3-.026.165.199.3.499.3s.996.354 1.546.787c.551.433 1.144.658 1.318.5.175-.158.2.041.055.441-.207.577-.074.714.637.656 1.529-.124 1.798-.011 2.022.846.119.456.59.927 1.046 1.046.466.122.83.545.83.963 0 .462.381.841 1 .997.918.23 1.189.621 1.037 1.494-.031.181.115.223.325.093.211-.13.494-.056.631.165.417.675 1.998.195 2.124-.645.065-.429-.25-1.205-.7-1.723-.449-.518-.817-1.095-.817-1.281 0-.187-.372-.711-.827-1.166-.678-.678-.737-.935-.325-1.43.404-.488.393-.671-.06-.951-.527-.325.933-1.192 2.007-1.192.189 0 .852-.41 1.474-.91 1.093-.879 1.476-1.084 4.552-2.431.782-.342 1.771-1.008 2.199-1.481 1.04-1.149 2.707-1.978 3.978-1.978.64 0 1.647-.564 2.632-1.476.877-.812 2.24-1.697 3.028-1.968.788-.271 1.917-.957 2.509-1.524.632-.606 1.538-1.032 2.194-1.032.718 0 1.506-.415 2.203-1.161.596-.639 1.884-1.389 2.86-1.667.977-.279 2.226-.903 2.776-1.388.55-.484 1.525-1.005 2.166-1.157.641-.151 1.631-.634 2.2-1.072 1.675-1.292 4.04-2.755 4.452-2.755.21 0 .382-.18.382-.4 0-.22.362-.4.805-.4.916 0 2.083-.595 3.724-1.9.623-.495 1.472-.9 1.888-.9.415 0 1.346-.502 2.069-1.116 1.575-1.337 3.199-2.084 4.533-2.084.78 0 .981-.205.981-1 0-.78.205-1 .93-1 .512 0 1.353-.45 1.87-1 .572-.609 1.381-1 2.07-1 .965 0 1.13-.16 1.133-1.1.004-1.503 1.726-2.369 3.023-1.52.798.523.959.487 1.795-.403.505-.537 1.079-.977 1.275-.977.197 0 .947-.45 1.668-1 1.642-1.252 1.744-1.247 1.956.1.096.605.162.11.147-1.1-.014-1.21.184-11.74.44-23.4.257-11.66.568-31.91.691-45 .268-28.427.334-29.685 1.538-29.519 1.288.177 1.544-5.774.299-6.935-.441-.41-.859-.746-.929-.746-.07 0-.518 1.755-.995 3.9m164.617 2.2c-.085.594-.45.946-1.074 1.034-.521.074-1.032.459-1.136.857-.109.418-.708.827-1.418.969-.676.135-1.48.604-1.787 1.043-.307.438-.882.797-1.277.797-.396 0-1.203.448-1.795.997-.591.548-1.562 1.117-2.158 1.264-.596.148-1.308.585-1.583.972-.276.387-1.026.819-1.667.96-.641.141-1.259.498-1.373.794-.113.296-.75.657-1.414.803-.665.146-1.625.593-2.134.993-.509.401-1.552 1.015-2.319 1.365-.766.35-1.663.815-1.993 1.034-.33.219-1.23.669-2 1-.77.331-1.67.773-2 .983-.33.209-1.86.944-3.4 1.632-3.935 1.758-5.668 2.547-8.24 3.753-1.232.578-2.51 1.05-2.84 1.05-.331 0-1.447.45-2.482 1-1.034.55-2.186 1.004-2.559 1.009-.374.005-1.489.381-2.479.837-.99.456-2.78 1.088-3.977 1.406-1.197.318-2.367.735-2.6.927-.233.192-1.143.48-2.023.639-.88.159-2.5.614-3.6 1.011-1.1.397-3.019.904-4.265 1.126-1.245.223-2.911.675-3.702 1.005-.79.33-2.561.725-3.935.876-1.374.152-3.578.619-4.898 1.037-1.32.419-4.159.93-6.309 1.136-2.15.205-4.94.635-6.2.955-6.216 1.577-12.491 1.188-12.491-.775 0-1.482-4.117-1.376-4.328.111l-.128.9H190.8v-1c0-.55-.135-.979-.3-.953-2.106.333-6.004-.128-5.956-.704.031-.361-.194-.745-.5-.852-.37-.13-.46-.011-.27.357.157.304.027.237-.288-.148-.411-.501-1.157-.7-2.63-.7-1.926 0-2.056-.063-2.056-1 0-.787-.203-1-.953-1-.649 0-1.032-.287-1.2-.9-.206-.751-.312-.801-.641-.3-.337.514-.395.499-.4-.1-.005-.532-.342-.7-1.406-.7-1.227 0-1.4-.124-1.4-1 0-.8-.2-1-1-1s-1-.2-1-1c0-.798-.201-1-.992-1-.722 0-1.06-.269-1.24-.987-.137-.542-.365-.971-.508-.952-.841.11-1.219-.163-1.332-.961-.081-.57-.449-.946-1.003-1.025-.546-.077-.923-.454-1-1-.079-.554-.455-.922-1.025-1.003-.651-.092-.9-.396-.9-1.1 0-.77-.208-.972-1-.972-.933 0-1-.133-1-2 0-1.854-.071-2-.977-2-.863 0-.991-.198-1.1-1.7-.095-1.313-.328-1.79-1.023-2.095-.748-.328-.9-.71-.9-2.253 0-1.524-.145-1.896-.802-2.068-.534-.14-.72-.422-.557-.847.135-.35.079-.637-.123-.637-1.479 0-1.337 5.1.174 6.214.309.228.664 1.18.789 2.115.138 1.027.503 1.848.921 2.072.381.204.805.932.942 1.617.137.686.611 1.707 1.052 2.268.442.562.804 1.246.804 1.519 0 .273.266.718.592.988 1.93 1.602 2.373 4.887 2.997 22.207.861 23.934 1.209 34.898 1.21 38.109.001 3.14.052 3.331 1.001 3.764.697.317 1 .774 1 1.506s.607 1.649 2 3.021c1.379 1.358 2 2.292 2 3.006 0 .654.503 1.524 1.361 2.356.749.726 1.66 2.101 2.024 3.055.561 1.47.941 1.841 2.478 2.428 1.233.471 2.105 1.154 2.721 2.13.499.79 1.196 1.676 1.548 1.969.353.293 1.262 1.64 2.021 2.994.759 1.354 2.384 3.452 3.611 4.662 1.227 1.21 2.232 2.515 2.234 2.9.001.385.266.7.588.7.77 0 1.414 1.25 1.414 2.746 0 .938.195 1.226.9 1.326.766.109.918.407 1.021 2.005.119 1.849.143 1.879 1.597 2 1.115.093 1.506.319 1.601.923.243 1.547.984 3 1.53 3 .303 0 .551.235.551.522 0 .286.63 1.132 1.4 1.878.889.862 1.4 1.734 1.4 2.391 0 .732.692 1.719 2.366 3.376 1.363 1.348 2.639 3.055 3.009 4.023.532 1.393.99 1.844 2.67 2.631 1.668.781 2.207 1.308 3.035 2.965 1.298 2.599 2.829 4.214 3.995 4.214.882 0 .928.144.985 3.1.033 1.705.135 2.605.227 2 .163-1.079 2.113-1.726 2.113-.701 0 .219.605 1.074 1.345 1.9.741.825 1.622 2.041 1.96 2.702.337.66.992 1.543 1.454 1.962.463.419.841 1.239.841 1.824 0 1.084 1.804 3.213 2.722 3.213.263 0 .478.338.478.751 0 1.329 1.1 3.413 2.526 4.786.764.736 1.491 1.846 1.615 2.467.331 1.656 2.308 3.695 4.643 4.788 1.62.759 1.914 1.033 1.409 1.316-.35.196-.811.812-1.022 1.369-.283.743-.596.957-1.178.805-.513-.134-.793-.008-.793.355 0 .31-.27.586-.6.613-.33.028-.78.095-1 .15-.22.055-.805.125-1.3.156-.684.043-.766.141-.342.41.313.198.448.64.308 1.008-.458 1.193 7.804.723 8.329-.474.428-.977.673-1.024 4.714-.917 2.06.055 2.683-.054 2.6-.455-.06-.291.116-.483.391-.428.275.055.5-.17.5-.5 0-.486.641-.6 3.371-.6 3.119 0 3.43-.075 4.158-1 .669-.851 1.115-1 3-1 2.088 0 3.147-.471 3.535-1.57.075-.212 1.171-.426 2.436-.476 1.657-.066 2.489-.3 2.978-.84.636-.703.636-.733 0-.488-.373.143-.678.45-.678.683 0 .234-.116.309-.257.167-.684-.684.867-1.476 2.892-1.476 1.899 0 4.068-1.353 2.679-1.672-.173-.04 1.036-.175 2.686-.3 2.725-.207 3.012-.31 3.128-1.128.107-.755.375-.9 1.667-.9 2.129 0 2.755-.305 2.514-1.226-.175-.671.013-.774 1.412-.774 2.184 0 2.83-.3 2.594-1.202-.169-.647.072-.768 1.745-.874 1.662-.106 1.958-.253 2.068-1.024.11-.777.367-.9 1.886-.9 1.686 0 3.032-1.021 2.305-1.747-.139-.139.674-.253 1.807-.253 1.862 0 2.083-.095 2.31-1 .18-.718.521-1 1.207-1 .527 0 .936-.135.91-.3-.209-1.32.126-1.66 1.747-1.777 1.413-.102 1.722-.275 1.828-1.023.123-.867.955-1.102 3.568-1.008.272.01.407-.126.298-.301-.406-.658.326-1.591 1.249-1.591.754 0 .957-.212.957-1 0-.933.133-1 2-1s2-.067 2-1c0-.8.2-1 1-1s1-.2 1-1 .2-1 1-1c.794 0 1-.202 1-.977 0-.863.198-.991 1.7-1.1 1.313-.095 1.79-.328 2.095-1.023.242-.552.745-.9 1.3-.9.699 0 .905-.228.905-1 0-.8.2-1 1-1 .792 0 1-.202 1-.972 0-.704.249-1.008.9-1.1.578-.082.946-.45 1.028-1.028.092-.651.396-.9 1.1-.9.77 0 .972-.208.972-1 0-.879.172-1 1.424-1 .836 0 1.322-.163 1.179-.395-.146-.236.035-.289.446-.131.552.212.632.113.399-.492-.16-.417-.169-.637-.022-.489.148.148.523.015.833-.295.31-.31.842-.457 1.183-.327.388.149.589.031.541-.317-.169-1.207.058-1.554 1.017-1.554.792 0 1-.202 1-.972 0-.704.249-1.008.9-1.1.578-.082.946-.45 1.028-1.028.092-.651.396-.9 1.1-.9.77 0 .972-.208.972-1 0-.8.2-1 1-1s1-.2 1-1c0-.55.191-1 .424-1 .233 0 .313-.178.179-.395-.146-.236.035-.289.446-.131.535.205.63.11.425-.425-.158-.411-.105-.592.131-.446.232.143.395-.343.395-1.179 0-1.252.121-1.424 1-1.424.792 0 1-.202 1-.972 0-.704.249-1.008.9-1.1.578-.082.946-.45 1.028-1.028.092-.651.396-.9 1.1-.9.763 0 .972-.209.972-.972 0-.704.249-1.008.9-1.1.544-.077.946-.449 1.016-.94.064-.447.514-.987 1-1.2.677-.297.913-.786 1.007-2.088.109-1.502.237-1.7 1.1-1.7.768 0 .977-.208.977-.972 0-.704.249-1.008.9-1.1.544-.077.946-.449 1.016-.94.064-.447.514-.987 1-1.2.672-.295.913-.786 1.005-2.047.093-1.27.31-1.708.93-1.87.444-.116.896-.547 1.003-.957.108-.41.589-.918 1.071-1.13.667-.293.904-.787.998-2.084.109-1.502.237-1.7 1.1-1.7.906 0 .977-.146.977-2 0-1.695.115-2 .757-2 .45 0 .848-.364.983-.9.125-.495.639-1.08 1.143-1.3.711-.31.944-.777 1.039-2.075.1-1.374.279-1.698 1-1.8.768-.109.875-.364.853-2.025-.023-1.733.057-1.9.912-1.9 1.091 0 1.503-.789 1.149-2.201-.533-2.123-2.347-.932-2.59 1.701-.025.275-.302.5-.615.5s-.778.633-1.033 1.407c-.288.872-.908 1.636-1.631 2.01-.642.332-1.167.858-1.167 1.17 0 .842-.679 1.106-1.592.617-.572-.306-.808-.837-.808-1.818 0-1.212-.126-1.386-1-1.386-.928 0-1-.138-1-1.925 0-1.626-.191-2.108-1.226-3.1-.674-.645-2.051-2.929-3.06-5.074-1.364-2.901-2.027-3.901-2.587-3.901-.414 0-.859-.315-.99-.7-.762-2.24-2.367-5.166-3.188-5.811-.651-.513-.949-1.155-.949-2.048 0-.871-.331-1.612-1-2.241-.609-.572-1-1.381-1-2.07 0-.939-.169-1.13-1-1.13-.739 0-1-.212-1-.814 0-1.064-.936-2.525-3.193-4.986-1.008-1.1-2.582-3.448-3.498-5.217-.915-1.77-2.053-3.57-2.53-4-.98-.887-2.779-4.237-2.779-5.178 0-.342-.449-.827-.997-1.076-.789-.36-.901-.57-.537-1.009.347-.418.346-.668-.003-1.017-.255-.255-.466-1.012-.469-1.683-.005-.935-.097-1.08-.394-.62-.362.56-.583.267-.426-.564.038-.201-.732-1.191-1.711-2.2-2.052-2.116-3.463-4.701-3.463-6.345 0-.748-.417-1.541-1.209-2.3-.665-.637-2.077-2.965-3.138-5.174-1.062-2.21-2.318-4.36-2.791-4.779-.477-.422-.862-1.239-.862-1.83 0-.623-.417-1.461-1-2.008-.611-.574-1.018-1.418-1.046-2.17-.026-.676-.129-.915-.23-.53-.1.385-.344.7-.541.7-.197 0-.254-.27-.128-.6.159-.412-.024-.6-.584-.6-.541 0-.858.303-.943.9M1.426 201.559c-.12.193.035.559.343.815.729.605 1.113-.021.41-.67-.295-.273-.634-.338-.753-.145m239.774 8.246c0 .039-.346.384-.77.768-.633.573-1.053-.161-.461-.806.062-.068 1.231-.031 1.231.038m153.6 4.128c0 1.62.275 2.192.875 1.821.207-.128.168-.461-.091-.774-.365-.439-.289-.516.38-.387.46.089.836-.009.836-.216s-.202-.377-.449-.377c-.327 0-.324-.15.01-.553.356-.429.314-.609-.184-.8-1.173-.451-1.377-.26-1.377 1.286m-159.231 1.434c-.422.459-.159 1.451.358 1.352.853-.165 1.108-1.386.289-1.386-.339 0-.63.015-.647.034M392.8 226.6c0 1.939.145 2.112 1.029 1.229.908-.909.748-3.029-.229-3.029-.681 0-.8.267-.8 1.8m-172.954 3.211c-.864.865-.814 1.282.194 1.602 1 .317 1.689-.252 1.498-1.237-.19-.979-.92-1.137-1.692-.365m-4.646 2.342c0 .993 1.147 1.596 2.239 1.177 1.29-.495.646-2.13-.839-2.13-1.208 0-1.4.13-1.4.953M388.852 242.8c.099 2.166.298 2.375 1.233 1.3 1.019-1.172.78-3.3-.371-3.3-.89 0-.947.134-.862 2m-2.052 6.738c0 .717.211 1.129.578 1.129.318 0 .543-.195.5-.434-.043-.238.11-.4.339-.361.229.04.44-.237.469-.615.034-.456-.275-.715-.917-.768-.815-.067-.969.099-.969 1.049m-375.6.862c0 1.156.14 1.561.468 1.358.315-.194.384-.071.213.376-.185.482-.039.666.532.666.875 0 1.066-.621.287-.935-.4-.161-.4-.208 0-.233.717-.046.62-1.232-.1-1.232-.33 0-.6-.259-.6-.576 0-.317-.18-.688-.4-.824-.242-.15-.4.404-.4 1.4m373.649 4.343c.103 2.263.284 2.436 1.337 1.272.685-.756.672-.831-.36-2.057l-1.071-1.273.094 2.058m-371.621.47c-.024 1.227.104 1.423.972 1.495.815.068 1-.097 1-.889 0-1.113-.602-1.663-1.041-.952-.207.335-.388.246-.6-.294-.229-.586-.31-.431-.331.64M382.8 259.55c0 .951.168 1.15.971 1.15.74 0 .959-.202.92-.85-.107-1.732-1.891-2.015-1.891-.3m-366.708-.275c.241.725.975.828.975.136 0-.336-.255-.611-.567-.611-.312 0-.495.214-.408.475m364.973 4.224c-.198.324-.382 1.985-.309 2.798.1 1.128 1.798.245 1.941-1.009.137-1.193-1.141-2.593-1.632-1.789m-363.365.793c-.869.303-.568 2.36.493 3.366.721.684.995 1.367 1 2.491.006 1.331.091 1.479.607 1.051.415-.344.6-.359.6-.049 0 .737-.18 1.056-.53.939-.181-.06-.215.075-.076.3.139.226.513.41.83.41.516 0 .759 1.103.683 3.103-.011.277.411.612.937.744.773.194.956.499.956 1.596 0 1.103.154 1.357.824 1.357.453 0 .712-.18.576-.4-.136-.22-.063-.4.162-.4.925 0 1.331-1.634.606-2.436-.383-.423-.786-.679-.895-.57-.482.481-1.249-.751-1.024-1.645.271-1.08-.444-2.203-1.214-1.907-.777.298-1.676-.961-1.098-1.539 1.054-1.054-.051-2.912-1.437-2.416-.357.128-.5-.389-.5-1.811 0-1.964-.411-2.563-1.5-2.184m361.1 5.089c0 1.181.638 1.652 1.391 1.027.856-.711.582-1.836-.47-1.923-.73-.06-.921.126-.921.896m-2.24 3.638c-.3 1.192-.019 1.575 1.174 1.598.65.013.883-.236.93-.999.11-1.76-1.685-2.272-2.104-.599M40.8 287.824c0 .58.173.916.4.776.22-.136.4-.597.4-1.024 0-.427-.18-.776-.4-.776-.22 0-.4.461-.4 1.024m42.543 59.181c-.273.711.516 1.795 1.306 1.795.489 0 .717.472.61 1.265-.02.146.519.458 1.197.695.853.297 1.162.616 1.001 1.035-.127.333-.013.628.256.656.268.028.892.094 1.387.145 1.191.125 1.288-1.619.111-1.993-.435-.137-1.022-.735-1.306-1.327-.284-.592-.738-1.098-1.01-1.126-.272-.027-.654-.072-.848-.1-.195-.027-.448-.41-.563-.85-.248-.95-1.797-1.091-2.141-.195m8.557 5.673c-.816.211-.839.316-.286 1.348.66 1.234 2.068 1.017 1.913-.295-.134-1.126-.478-1.349-1.627-1.053m5.442 5.045c.089 1.423 2.258 1.503 2.258.083 0-.843-.188-1.006-1.158-1.006-.959 0-1.148.158-1.1.923m4.475 1.449c-.126.205-.019.503.238.662.311.192.37.1.177-.272-.16-.309-.008-.213.338.214.618.762.63.76.63-.1 0-.876-.941-1.219-1.383-.504m29.664 14.069c.317.317.651.32 1.18.013.648-.377.593-.431-.441-.442-.861-.009-1.06.108-.739.429m11.861 4.482c.089 1.423 2.258 1.503 2.258.083 0-.843-.188-1.006-1.158-1.006-.959 0-1.148.158-1.1.923m16.258 3.434c0 .197.285.467.633.6.894.343.967.316.967-.357 0-.333-.356-.6-.8-.6-.44 0-.8.161-.8.357m63.8 1.55c-2.079.221-2.294.399-1.471 1.222 1.013 1.013 5.297 1.187 6.231.253.967-.966.777-1.377-.66-1.433-.715-.028-1.66-.078-2.1-.11-.44-.033-1.34-.002-2 .068m-51.271.374c.687.178.689.218.036.695-.629.46-.596.525.371.71.909.173 1.064.065 1.064-.741 0-.775-.197-.937-1.1-.899-.729.031-.854.11-.371.235" fill="#4466df"/><path id="path1" d="M1.261 25.294c.018 9.958.158 25.216.311 33.906.153 8.69.315 13.46.359 10.6.052-3.298.214-4.99.444-4.626.266.42.401.207.503-.8.077-.756.281 18.696.453 43.226.173 24.53.387 47.75.477 51.6.373 16.066.279 39.809-.163 40.926-.492 1.245-.611 5.554-.132 4.802.605-.953 2.034.789 2.671 3.256.771 2.983.851 10.454.116 10.751-.299.121-.218.215.2.233 1.678.076 2.3 1.438 2.3 5.032 0 1.87.149 3.4.331 3.4.182 0 .251-.54.154-1.2-.157-1.071-.064-1.2.866-1.2.813 0 1.198-.331 1.748-1.5.638-1.357.885-1.521 2.599-1.718 1.413-.163 2.231-.544 3.217-1.5.826-.8 1.729-1.282 2.404-1.282.658 0 1.081-.218 1.081-.558 0-.34.586-.642 1.5-.773 2.908-.418 4.842-.971 3.573-1.023-1.861-.076-1.364-2.001.7-2.713.866-.298 1.894-.831 2.284-1.185.391-.353 1.522-.734 2.514-.846 1.319-.149 1.97-.458 2.425-1.153.743-1.132 2.456-1.289 2.728-.249.113.431.201.277.23-.4.034-.82.251-1.1.851-1.1 1.489 0 3.887-1.678 4.431-3.1.245-.641.671-.9 1.479-.9.739 0 1.536-.419 2.285-1.2.632-.66 1.348-1.2 1.59-1.2.243 0 1.147-.36 2.01-.8.863-.44 1.877-.8 2.254-.8.376 0 1.283-.541 2.015-1.203 3.065-2.771 3.111-2.796 5.245-2.843 1.147-.026 1.771-.129 1.386-.23-.916-.239-.919-1.954-.004-2.306.461-.176.936.029 1.403.605.855 1.056 1.901.467 1.901-1.072 0-.836.186-.951 1.53-.951 1.115 0 1.785-.271 2.47-1 .52-.554 1.389-1 1.948-1 1.182 0 3.252-1.829 3.252-2.875 0-.578.321-.725 1.586-.725 1.192 0 1.926-.298 2.953-1.2.752-.66 1.767-1.2 2.256-1.2.49 0 1.244-.45 1.676-1 .531-.674 1.183-1 2-1 .818 0 1.47-.326 2-1 .566-.719 1.172-1 2.158-1 1.196 0 1.371-.128 1.371-1 0-.765.208-1 .883-1 .486 0 1.535-.636 2.331-1.414.969-.946 1.968-1.493 3.017-1.652.863-.131 2.019-.631 2.569-1.111 1.155-1.008 2.922-1.823 3.951-1.823.392 0 1.689-.899 2.881-1.998l2.168-1.997 3.2-.062c1.76-.035 2.705-.138 2.1-.23-1.301-.197-1.597-1.963-.4-2.385 2.67-.94 5.622-2.639 6.322-3.638.751-1.072 2.441-1.191 2.702-.19.113.431.201.277.23-.4.044-1.047.142-1.1 2.046-1.1 1.924 0 2-.042 2-1.122 0-1.524 2.209-3.632 4.134-3.945 1.186-.192 1.466-.113 1.466.415 0 .458.357.652 1.2.652 1.173 0 1.2-.044 1.2-2v-2h2c1.867 0 2-.067 2-1 0-.929.138-1 1.93-1 1.542 0 2.12-.201 2.87-1 .572-.609 1.381-1 2.07-1 .738 0 1.13-.208 1.13-.6 0-.37.376-.6.981-.6 2.459 0 2.91-.611 3.205-4.344.15-1.901.529-5.076.842-7.056.313-1.98.571-4.59.574-5.8.003-1.21.136-3.19.296-4.4l.29-2.2.246 1.8.246 1.8.14-1.8c.077-.99.248.27.38 2.8.168 3.208.243 1.452.248-5.8.004-5.826-.105-9.081-.248-7.4l-.256 3-.104-3.4c-.057-1.87-.194-3.174-.306-2.898-.278.691-.934.215-.934-.677 0-1.052 1.152-1.949 1.591-1.239.188.303.337-1.215.345-3.516.014-3.825-.04-4.094-.961-4.818-.897-.706-.975-1.039-.975-4.177 0-3.934-.197-4.675-1.243-4.675-.673 0-.758-.323-.762-2.9-.007-3.22-.304-4.804-.84-4.472-.195.121-.355.018-.355-.228s-.18-.336-.4-.2c-.328.202-.664-3.329-.447-4.7.026-.165-.223-.3-.553-.3-.33 0-.6-.27-.6-.6 0-.33-.18-.6-.4-.6-.22 0-.4-.9-.4-2 0-1.855-.071-2-.978-2-.883 0-.99-.185-1.1-1.9-.104-1.621-.254-1.919-1.022-2.028-.794-.113-.9-.359-.9-2.1 0-1.837-.069-1.972-1-1.972-.93 0-1-.137-1-1.948 0-1.767-.083-1.943-.9-1.9-.734.039-.923-.19-1.025-1.242-.076-.787-.505-1.59-1.1-2.058-.588-.462-.975-1.181-.975-1.81 0-.845-.189-1.042-1-1.042-.8 0-1-.2-1-1 0-.723-.215-1-.776-1-.998 0-1.162-.298-1.282-2.329-.085-1.449-.221-1.671-1.02-1.671-.717 0-.922-.223-.922-1 0-.8-.2-1-1-1s-1-.2-1-1-.2-1-1-1-1-.2-1-1-.2-1-1-1-1-.2-1-1-.2-1-1-1c-.792 0-1-.202-1-.972 0-.704-.249-1.008-.9-1.1-.578-.082-.946-.45-1.028-1.028-.092-.651-.396-.9-1.1-.9-.77 0-.972-.208-.972-1 0-.8-.2-1-1-1s-1-.2-1-1-.2-1-1-1-1-.2-1-1c0-.792-.202-1-.972-1-.702 0-1.008-.249-1.1-.896-.072-.504-.465-.96-.899-1.043-.424-.081-1.093-.533-1.486-1.004-.394-.471-.722-.632-.73-.357-.007.275.167.5.387.5s.4.202.4.449c0 .31-.185.295-.6-.049-.33-.274-.6-.746-.6-1.049 0-.346-.447-.551-1.2-.551-1.013 0-1.2-.156-1.2-1 0-.798-.201-1-.992-1-.727 0-1.06-.27-1.246-1.007-.139-.554-.457-.983-.707-.953-1.942.233-3.006-.087-3.127-.94-.109-.768-.407-.918-2.028-1.022-1.703-.109-1.9-.221-1.9-1.078 0-.857-.197-.969-1.9-1.078-1.621-.104-1.919-.254-2.028-1.022-.113-.794-.359-.9-2.1-.9-1.837 0-1.972-.069-1.972-1 0-.933-.133-1-2-1s-2-.067-2-1c0-.978-.067-1-3-1s-3-.022-3-1c0-.977-.069-1-2.972-1-2.778 0-2.981-.059-3.1-.9-.121-.854-.328-.906-4.028-1.014-3.874-.114-4.24-.267-3.8-1.586.055-.165-4.04-.39-9.1-.5-5.06-.11-9.11-.307-9-.439 1.195-1.425-.365-1.534-22.224-1.554l-21.347-.02.032 18.107M356.4 7.81c0 .325-.27.59-.6.59-.33 0-.6.18-.6.4 0 .255-3.267.4-9 .4h-9v.986c0 .972-.053.987-3.9 1.1-3.7.108-3.907.16-4.028 1.014-.119.841-.322.9-3.1.9-2.903 0-2.972.023-2.972 1 0 .978-.067 1-3 1s-3 .022-3 1c0 .931-.135 1-1.972 1-1.741 0-1.987.106-2.1.9-.112.788-.421.926-2.485 1.109-1.855.165-2.484.4-2.949 1.1-.387.584-.996.891-1.762.891-.734 0-1.515.372-2.097 1-.51.55-1.311 1-1.781 1-.644 0-.854.246-.854 1 0 .933-.133 1-2 1s-2 .067-2 1c0 .8-.2 1-1 1s-1 .2-1 1c0 .933-.133 1-2 1s-2 .067-2 1c0 .8-.2 1-1 1s-1 .2-1 1-.2 1-1 1-1 .2-1 1-.2 1-1 1-1 .2-1 1c0 .872-.175 1-1.371 1-1.283 0-2.629.82-2.629 1.601 0 .189-.405.401-.9.471-.578.082-.946.45-1.028 1.028-.091.643-.397.9-1.073.9-.734 0-.974.246-1.072 1.1-.072.619-.346 1.056-.627 1-.275-.055-.455.125-.4.4.055.275-.138.451-.43.39-.291-.06-.43.052-.308.249s-.314.92-.97 1.606c-.675.706-1.192 1.683-1.192 2.251 0 .804-.199 1.004-1 1.004-.8 0-1 .2-1 1s-.2 1-1 1c-.792 0-1 .202-1 .972 0 .704-.249 1.008-.9 1.1-.582.083-.946.45-1.029 1.039-.071.501-.566 1.348-1.1 1.882-.534.534-.971 1.429-.971 1.989 0 .819-.195 1.018-1 1.018-.933 0-1 .133-1 2s-.067 2-1 2c-.8 0-1 .2-1 1 0 .915-.518 1.234-1.7 1.047-.165-.026-.279.088-.253.253.337 2.133-.106 3.7-1.047 3.7-.931 0-1 .135-1 1.972 0 1.741-.106 1.987-.9 2.1-.768.109-.918.407-1.022 2.028-.11 1.715-.217 1.9-1.1 1.9-.95 0-.978.085-.978 3 0 1.65-.167 3-.371 3-1.018 0-1.629 1.351-1.629 3.601 0 2.126-.084 2.355-.9 2.471-.845.12-.912.362-1.1 3.928-.189 3.591-.251 3.807-1.119 3.93-1.14.162-1.313 7.581-.203 8.691.505.505.503.579-.016.579-.327 0-.67.224-.761.498-.092.274-.512.499-.934.5-.844.002-1.296 12.359-.508 13.887 1.14 2.211 1.855-1.856 2.101-11.947.022-.914-.118-1.564-.312-1.444-.193.119-.261-.033-.15-.338.111-.306.395-.514.63-.463 1.081.234 2.865-3.864 2.87-6.593.002-1.154.127-1.3 1.114-1.3.86 0 1.212-.263 1.549-1.157.32-.847.799-1.235 1.788-1.448 1.354-.292 3.293-1.162 4.113-1.844.915-.762 3.293-2.349 4.638-3.096.77-.427 1.836-1.245 2.37-1.816.533-.571 1.253-1.043 1.6-1.048.346-.004 1.874-.814 3.395-1.8 1.521-.985 2.924-1.791 3.117-1.791.393 0 .636-.177 2.918-2.127.88-.752 2.031-1.501 2.558-1.665.527-.165 1.337-.725 1.8-1.245.463-.521 2.01-1.356 3.437-1.856 1.964-.688 2.724-1.177 3.122-2.008.386-.806.821-1.099 1.63-1.099.709 0 1.523-.438 2.277-1.225 1.373-1.433 4.19-2.775 5.827-2.775.994 0 1.149-.152 1.149-1.13 0-1.322 1.455-2.87 2.697-2.87.838 0 5.773-3.013 6.043-3.69.275-.687 3.261-2.31 4.252-2.31.809 0 1.008-.198 1.008-1 0-.733.213-1 .799-1 1.278 0 5.974-2.387 6.612-3.361.32-.489 1.709-1.413 3.086-2.055 2.37-1.103 3.218-1.681 6.288-4.284.713-.605 1.546-1.1 1.85-1.1 1.35 0 7.347-3.391 7.76-4.388.456-1.102 3.279-2.815 4.635-2.813.457.001 1.253-.449 1.77-.999.572-.609 1.381-1 2.07-1 .979 0 1.13-.154 1.13-1.157 0-.988.247-1.254 1.7-1.829.935-.37 2.33-1.268 3.1-1.996 1.7-1.607 2.834-2.218 4.119-2.218.677 0 1.297-.469 2.041-1.542 1.094-1.579 2.473-2.458 3.857-2.458.429 0 2.068-.919 3.641-2.042 1.574-1.123 3.42-2.227 4.102-2.453.682-.227 1.78-.909 2.44-1.517.66-.607 2.142-1.574 3.293-2.149 1.357-.678 2.174-1.365 2.321-1.954.248-.986 3.039-2.688 4.405-2.686.45.001 1.505-.702 2.345-1.562 1.975-2.023 5.617-3.345 9.961-3.617.179-.011.269-.605.2-1.32l-.125-1.3-20.1-.09c-17.482-.077-20.1-.012-20.1.5" fill="#2cc4e1"/><path id="path2" d="M393.8 10.326c-2.456.259-5.71 1.748-7.236 3.311-.84.86-1.895 1.563-2.345 1.562-1.366-.002-4.157 1.7-4.405 2.686-.147.589-.964 1.276-2.321 1.954-1.151.575-2.633 1.542-3.293 2.149-.66.608-1.758 1.29-2.44 1.517-.682.226-2.528 1.33-4.102 2.453-1.573 1.123-3.212 2.042-3.641 2.042-1.384 0-2.763.879-3.857 2.458-.744 1.073-1.364 1.542-2.041 1.542-1.285 0-2.419.611-4.119 2.218-.77.728-2.165 1.626-3.1 1.996-1.453.575-1.7.841-1.7 1.829 0 1.003-.151 1.157-1.13 1.157-.689 0-1.498.391-2.07 1-.517.55-1.313 1-1.77.999-1.356-.002-4.179 1.711-4.635 2.813-.413.997-6.41 4.388-7.76 4.388-.304 0-1.137.495-1.85 1.1-3.07 2.603-3.918 3.181-6.288 4.284-1.377.642-2.766 1.566-3.086 2.055-.638.974-5.334 3.361-6.612 3.361-.586 0-.799.267-.799 1 0 .802-.199 1-1.008 1-.991 0-3.977 1.623-4.252 2.31-.28.701-5.22 3.69-6.099 3.69-1.204 0-2.641 1.592-2.641 2.926 0 .916-.169 1.074-1.149 1.074-1.637 0-4.454 1.342-5.827 2.775-.754.787-1.568 1.225-2.277 1.225-.809 0-1.244.293-1.63 1.099-.398.831-1.158 1.32-3.122 2.008-1.427.5-2.974 1.335-3.437 1.856-.463.52-1.273 1.08-1.8 1.245-.527.164-1.678.913-2.558 1.665-2.282 1.95-2.525 2.127-2.918 2.127-.193 0-1.596.806-3.117 1.791-1.521.986-3.049 1.796-3.395 1.8-.347.005-1.067.477-1.6 1.048-.534.571-1.6 1.389-2.37 1.816-1.345.747-3.723 2.334-4.638 3.096-.82.682-2.759 1.552-4.113 1.844-.989.213-1.468.601-1.788 1.448-.337.894-.689 1.157-1.549 1.157-.987 0-1.112.146-1.114 1.3-.005 2.729-1.789 6.827-2.87 6.593-.235-.051-.519.157-.63.463-.111.305-.043.457.15.338.194-.12.334.53.312 1.444-.248 10.199-.931 14.015-2.137 11.945-.267-.457-.38 10.24-.344 32.317.031 18.15.14 32.28.244 31.4.159-1.359.226-1.454.443-.63.404 1.533 1.233 1.508 1.24-.037.006-1.159.28-5.847 1.462-25.033.252-4.088.256-4.1 1.296-4.1.614 0 1.251-.333 1.549-.809.277-.444 1.626-1.352 2.996-2.017 3.479-1.689 4.183-2.121 5.476-3.359.942-.903 1.271-1.013 1.948-.651 1.127.603 1.169.587 1.866-.763.631-1.219 2.769-2.4 4.35-2.402.574-.001 1.112-.49 1.652-1.5.679-1.272 1.049-1.532 2.448-1.719.906-.121 2.098-.515 2.648-.876.551-.361 1.343-.566 1.761-.457.48.126 1.113-.177 1.721-.824.528-.563 1.244-1.029 1.591-1.036.346-.007 1.53-.541 2.63-1.187 1.1-.645 2.54-1.426 3.2-1.735.66-.309 1.636-1.035 2.17-1.613.61-.663 1.391-1.052 2.108-1.052.827 0 1.264-.274 1.595-1 .25-.55.682-1 .958-1 .276 0 .566-.19.643-.421.141-.423 2.208-1.076 4.626-1.46 1.119-.178 1.3-.367 1.3-1.363 0-.636.18-1.156.4-1.156.22 0 .4.169.4.375 0 1.397 6.096-1.57 6.515-3.171.152-.58.545-.804 1.412-.804.842 0 1.502-.356 2.203-1.19 1.178-1.399 4.099-2.124 4.705-1.168.25.396.355.208.362-.642.01-1.275 1.275-2.2 3.008-2.2.475 0 1.233-.525 1.732-1.2.488-.66 1.235-1.2 1.661-1.2.426 0 1.389-.54 2.141-1.2.787-.691 1.819-1.2 2.432-1.2.603 0 1.499-.434 2.065-1 .55-.55 1.411-1 1.912-1 .502 0 1.349-.469 1.882-1.042.534-.573 2.093-1.576 3.466-2.227 1.373-.652 2.743-1.537 3.044-1.967.343-.489.795-.687 1.207-.529 1.216.466 3.453-.199 3.453-1.027 0-.526.333-.793 1.1-.881.864-.1 1.127-.363 1.227-1.227.09-.787.352-1.1.918-1.1.435 0 1.241-.45 1.791-1 .55-.55 1.33-1 1.733-1 .919 0 3.511-1.068 4.831-1.99.55-.385 1.688-.922 2.528-1.195.84-.272 1.621-.739 1.735-1.036.114-.297 1.047-.854 2.072-1.239 1.026-.384 1.955-.818 2.065-.964.11-.145.793-.568 1.517-.939.725-.372 1.485-1.117 1.69-1.656.284-.747.666-.981 1.601-.981.777 0 1.596-.368 2.228-1 .55-.55 1.442-1 1.982-1s.982-.135.982-.301c0-.165.81-.73 1.8-1.255.99-.525 1.8-1.11 1.8-1.3 0-.189.368-.344.818-.344.834 0 2.479-1.378 2.892-2.423.191-.48.293-.486.609-.036.291.415.572.439 1.204.1.453-.242 1.218-.441 1.7-.441.751 0 .801-.089.352-.63-.71-.855.168-1.441 1.897-1.266.7.071 1.184-.014 1.076-.188-.107-.174.09-.316.438-.316.349 0 .805-.45 1.014-1 .229-.602.695-1 1.172-1 .935 0 1.082-.7 1.411-6.736.148-2.712.49-4.778.993-6 .671-1.631.821-3.614 1.202-15.864.466-15.022 1.157-25.4 1.692-25.4.181 0 .33.193.33.429 0 .235.27.158.6-.172 1.137-1.137.861-13.076-.3-12.953-.495.053-1.44.152-2.1.222M1.292 124.212c-.091 75.703-.081 76.819.687 77.373.428.308.687.708.576.888-.111.18-.053.327.13.327 1.343 0 1.754-15.837 1.124-43.4-.09-3.96-.305-27.27-.478-51.8-.172-24.53-.376-43.982-.453-43.226-.102 1.007-.237 1.22-.503.8-.23-.365-.399 1.321-.461 4.626-.054 2.86-.195-1.01-.314-8.6s-.257 20.765-.308 63.012m150.397-13.989c-.901.631-1.192 1.942-.523 2.356.201.124.457 0 .568-.277.112-.276.217 1.013.234 2.865.018 1.851.106 3.291.196 3.2.148-.15.612-8.767.472-8.767-.032 0-.458.28-.947.623m-.591 16.177c-.16 1.21-.293 3.19-.296 4.4-.003 1.21-.261 3.82-.574 5.8-.313 1.98-.692 5.155-.842 7.056-.295 3.733-.746 4.344-3.205 4.344-.605 0-.981.23-.981.6 0 .392-.392.6-1.13.6-.689 0-1.498.391-2.07 1-.75.799-1.328 1-2.87 1-1.792 0-1.93.071-1.93 1 0 .933-.133 1-2 1h-2v2c0 1.956-.027 2-1.2 2-.843 0-1.2-.194-1.2-.652 0-.528-.28-.607-1.466-.415-1.925.313-4.134 2.421-4.134 3.945 0 1.08-.076 1.122-2 1.122-1.904 0-2.002.053-2.046 1.1-.029.677-.117.831-.23.4-.261-1.001-1.951-.882-2.702.19-.7.999-3.652 2.698-6.322 3.638-1.197.422-.901 2.188.4 2.385.605.092-.34.195-2.1.23l-3.2.062-2.168 1.997c-1.192 1.099-2.489 1.998-2.881 1.998-1.029 0-2.796.815-3.951 1.823-.55.48-1.706.98-2.569 1.111-1.049.159-2.048.706-3.017 1.652-.796.778-1.845 1.414-2.331 1.414-.675 0-.883.235-.883 1 0 .872-.175 1-1.371 1-.986 0-1.592.281-2.158 1-.53.674-1.182 1-2 1-.817 0-1.469.326-2 1-.432.55-1.186 1-1.676 1-.489 0-1.504.54-2.256 1.2-1.027.902-1.761 1.2-2.953 1.2-1.224 0-1.586.155-1.586.678 0 1.08-2.021 2.922-3.205 2.922-.609 0-1.453.423-1.995 1-.685.729-1.355 1-2.47 1-1.344 0-1.53.115-1.53.951 0 1.539-1.046 2.128-1.901 1.072-.467-.576-.942-.781-1.403-.605-.915.352-.912 2.067.004 2.306.385.101-.239.204-1.386.23-2.134.047-2.18.072-5.245 2.843-.732.662-1.639 1.203-2.015 1.203-.377 0-1.391.36-2.254.8-.863.44-1.767.8-2.01.8-.242 0-.958.54-1.59 1.2-.749.781-1.546 1.2-2.285 1.2-.808 0-1.234.259-1.479.9-.544 1.422-2.942 3.1-4.431 3.1-.6 0-.817.28-.851 1.1-.029.677-.117.831-.23.4-.272-1.04-1.985-.883-2.728.249-.455.695-1.106 1.004-2.425 1.153-.992.112-2.123.493-2.514.846-.39.354-1.418.887-2.284 1.185-2.064.712-2.561 2.637-.7 2.713 1.269.052-.665.605-3.573 1.023-.914.131-1.5.433-1.5.773s-.423.558-1.081.558c-.675 0-1.578.482-2.404 1.282-.986.956-1.804 1.337-3.217 1.5-1.714.197-1.961.361-2.599 1.718-.55 1.169-.935 1.5-1.748 1.5-.93 0-1.023.129-.866 1.2.097.66.028 1.2-.154 1.2s-.331-1.53-.331-3.4c0-3.594-.622-4.956-2.3-5.032-.418-.018-.499-.112-.2-.233 1.529-.617.145-12.463-1.614-13.81-1.397-1.071-1.552-.217-1.413 7.788.126 7.209.137 7.288 1.027 7.415.803.114 1.412 6.282.961 9.732-.019.143.41.371.952.508.947.237.987.378.987 3.466 0 3.353.419 4.766 1.414 4.766.573 0 .621.429.684 6.062.008.699.335 1.235.957 1.567.52.279.945.8.945 1.159 0 1.028.949 2.805 1.5 2.809.275.002.5.273.5.603 0 .33-.225.603-.5.606-.348.004-.366.096-.058.3.244.162.569.982.724 1.823.233 1.267.379 1.448.853 1.055.788-.654.942-.104 1.113 3.953.134 3.182.623 4.386 1.549 3.813.175-.108.319.271.319.844 0 .601.211 1.014.5.976 1.321-.171 1.5.075 1.5 2.063 0 1.456.142 1.983.5 1.854 1.386-.496 2.491 1.362 1.437 2.416-.578.578.321 1.837 1.098 1.539.77-.296 1.485.827 1.214 1.907-.225.894.542 2.126 1.024 1.645.109-.109.512.147.895.57.725.802.319 2.436-.606 2.436-.225 0-.298.18-.162.4.136.22-.168.418-.676.44-.908.039-.907.045.076.339.55.165 1.144.174 1.321.02.176-.154.776-.193 1.332-.087.975.187 1.316.594 1.49 1.779.045.305.481.983.969 1.507.488.524.888 1.177.888 1.45 0 .274.54.882 1.2 1.352.855.609 1.2 1.184 1.2 1.999 0 .883.206 1.175.9 1.273.495.07 1.078.533 1.295 1.028.217.495.532.9.7.9.168 0 .681.376 1.141.836l.836.836.89-.836c.489-.46 1.3-.836 1.801-.836.575 0 .989-.295 1.121-.8.142-.542.548-.802 1.263-.805 2.011-.011 2.853-.436 2.853-1.442 0-.877.159-.953 2-.953 1.511 0 2-.147 2-.6 0-.376.38-.6 1.02-.6 1.247 0 2.924-.833 3.943-1.959.419-.463 1.242-.841 1.829-.841.623 0 1.461-.417 2.008-1 .544-.579 1.386-1 2-1 .614 0 1.456-.421 2-1 .572-.609 1.381-1 2.07-1 .939 0 1.13-.169 1.13-1 0-.736.213-1 .805-1 .443 0 1.118-.161 1.5-.357 5.902-3.033 7.097-3.378 7.419-2.143.101.385.204.106.23-.621.038-1.082.258-1.394 1.22-1.73.645-.225 1.459-.845 1.809-1.379.754-1.152 2.467-1.32 2.741-.27.113.431.201.277.23-.4.036-.871.239-1.1.976-1.1.512 0 1.353-.45 1.87-1 .572-.609 1.381-1 2.07-1 .939 0 1.13-.169 1.13-1 0-.933.133-1 2-1 1.511 0 2-.147 2-.6 0-.416.419-.6 1.369-.6.886 0 1.8-.362 2.587-1.024 1.283-1.08 3.176-1.776 4.829-1.776.654 0 1.691-.692 3.055-2.039 1.849-1.826 2.157-1.991 2.938-1.573 1.137.609 2.022-.073 2.022-1.557 0-1.46.658-2.002 2.147-1.77.768.12 1.563-.037 2.053-.405.732-.55.89-.515 1.861.409 1.048.998 1.064 1 1.327.173.146-.461.438-.838.648-.838.21 0 1.173-.729 2.139-1.62 2.061-1.899 4.423-2.56 4.74-1.326.106.41.213-.01.239-.934l.046-1.68 2.3-.12 2.3-.12.122-1.466c.15-1.802 1.07-2.269 2.264-1.148l.861.809 2.04-1.997c1.524-1.493 2.341-1.998 3.23-1.998.829 0 1.39-.304 1.846-1 .837-1.278 4.446-1.505 4.761-.3.113.431.201.277.23-.4.036-.87.24-1.1.971-1.1 1.156 0 3.075-1.949 3.075-3.122 0-.67.237-.878 1-.878.55 0 1-.225 1-.5s.359-3.29.797-6.7c.513-3.995.881-9.899 1.033-16.6.187-8.274.393-11.049 1.003-13.576.723-2.995.764-4.886.721-33.2-.04-26.564-.374-43.862-.746-38.624l-.128 1.8-.246-1.8-.246-1.8-.29 2.2m92.794 71.365c-.481.481-.571 1.328-.332 3.135.186 1.407 1.64.098 1.64-1.476 0-1.968-.44-2.527-1.308-1.659m-1.703 6.948c-1.211 1.025-1.181 2.387.053 2.387.892 0 .976-.145.893-1.55-.05-.853-.101-1.544-.113-1.537-.012.008-.387.323-.833.7m-2.22 5.054c-.592.645-.172 1.379.461.806.424-.384.77-.729.77-.768 0-.069-1.169-.106-1.231-.038m-3.169 6.046c0 .337-.405.776-.9.975-.865.347-.857.362.2.387.913.021 1.1-.145 1.1-.975 0-.55-.09-1-.2-1-.11 0-.2.276-.2.613M17.067 259.37c0 .314-.311.547-.69.518-.388-.029-.602-.278-.49-.57.269-.7 1.18-.66 1.18.052M41.6 287.576c0 .427-.18.888-.4 1.024-.227.14-.4-.196-.4-.776 0-.563.18-1.024.4-1.024.22 0 .4.349.4.776" fill="#2d98e0"/><path id="path3" d="M395.548 49.466c-.57.152-.686 1.409-.928 10.054-.272 9.704-.722 14.638-1.41 15.468-.191.23-.54 2.489-.775 5.02-.236 2.531-.776 5.59-1.201 6.799-.425 1.208-.896 3.366-1.048 4.795-.152 1.429-.537 3.013-.855 3.521-.319.508-.83 2.128-1.135 3.6-.305 1.472-.918 3.667-1.362 4.877-.444 1.21-.814 2.565-.821 3.011-.007.446-.281 1.193-.608 1.66-.327.467-.853 1.843-1.169 3.057-.317 1.214-.841 2.627-1.166 3.14-.326.513-.716 1.562-.867 2.332-.152.77-.71 2.071-1.24 2.891-.529.821-.963 1.766-.963 2.1 0 .335-.438 1.464-.973 2.509-.536 1.045-1.563 3.16-2.284 4.7-.721 1.54-1.633 3.229-2.027 3.754-.394.525-.716 1.212-.716 1.527 0 .315-.45 1.162-1 1.883-.55.722-1 1.596-1 1.943s-.45 1.166-1 1.82c-.55.654-1 1.333-1 1.509 0 .177-.421.961-.936 1.742-.515.782-1.28 1.945-1.7 2.583-.42.639-1.124 1.75-1.564 2.468-.44.719-1.475 2.312-2.3 3.539-3.82 5.684-5.342 7.978-6.653 10.032-.562.88-1.248 1.87-1.524 2.2-2.469 2.948-2.923 3.561-2.923 3.939 0 .238-.336.613-.747.833-.411.22-.855.94-.988 1.601-.132.661-.606 1.568-1.052 2.015-.447.446-.813 1.172-.813 1.612 0 .44-.196.8-.436.8-.239 0 .034.585.606 1.3.573.715 1.2 1.497 1.393 1.738.857 1.066 1.637 3.017 1.637 4.093 0 .644.294 1.415.654 1.714 1.08.896 2.546 3.475 2.546 4.477 0 .516.45 1.361 1 1.878.572.537 1 1.387 1 1.985 0 .725.613 1.649 2 3.015s2 2.29 2 3.015c0 .598.428 1.448 1 1.985.672.631 1 1.369 1 2.249 0 1.027.302 1.541 1.397 2.376.875.668 1.544 1.615 1.793 2.539.219.811.931 1.986 1.584 2.611.653.626 1.298 1.644 1.434 2.262.136.619.57 1.539.965 2.044 1.027 1.317 2.827 5.255 2.827 6.188 0 .435.45 1.214 1 1.731.583.547 1 1.385 1 2.008 0 .587.359 1.393.797 1.79.439.397 1.799 2.72 3.023 5.162 1.224 2.442 2.655 4.828 3.18 5.301.542.489 1.201 1.804 1.524 3.04.71 2.72 1.445 4.153 1.464 2.854.01-.683.203-.808 1.012-.653.939.18 1.002.084 1.04-1.555.072-3.168.471-3.882 2.527-4.531.584-.185.656-.353.3-.709-1.228-1.228-.126-5.989 1.482-6.41.717-.187.764-.468.564-3.385-.287-4.177.334-6.273 1.774-5.997l1 .191-.284-2.653c-.925-8.652.163-16.877 1.891-14.292.162.241.297-34.076.3-76.261.003-42.185-.129-76.679-.294-76.654-.165.026-.593.125-.952.22m.352 166.601c-.592.62-.606.733-.087.733.336 0 .719-.278.849-.617.347-.904.036-.952-.762-.116M222.4 228.6c-.408.491-.38.6.151.6.357 0 .649-.27.649-.6 0-.33-.068-.6-.151-.6-.083 0-.375.27-.649.6M179 230c-.375.608.123 1.156.991 1.091.802-.061.7-.477-.124-.509-.257-.01-.422-.235-.367-.5.121-.585-.161-.631-.5-.082m29.044 4.147c-.357.43-.364.655-.029.863.653.403 1.462-.493.928-1.027-.289-.289-.565-.239-.899.164m-55.391 65.947c-.286 26.487-.687 38.122-1.354 39.314-.468.837-2.099-1.798-2.099-3.392 0-1.642-5.091-.129-7.17 2.13-.579.63-1.396 1.054-2.03 1.054-.614 0-1.456.421-2 1-.517.55-1.35 1-1.852 1-.501 0-1.362.45-1.912 1-.602.602-1.456 1-2.148 1-.708 0-1.509.384-2.088 1-.577.614-1.38 1-2.082 1-.727 0-1.233.255-1.391.7-.435 1.225-1.422 2.1-2.37 2.1-1.79 0-2.954.839-3.003 2.164-.026.68-.129.921-.23.536-.357-1.369-3.018-.555-4.924 1.505-1.045 1.13-4.787 2.995-6.007 2.995-2.505 0-4.115 3.875-1.693 4.076 1.102.091 1.605.363 1.895 1.024.253.576.881.99 1.749 1.153.745.14 1.725.68 2.178 1.201.452.52 1.136.946 1.519.946.384 0 1.206.427 1.828.948.622.522 1.697 1.072 2.39 1.223.692.151 1.565.614 1.941 1.029.376.415 1.243.878 1.928 1.028 1.718.377 2.672 1.038 2.672 1.849 0 .583.286.651 1.914.459 1.696-.201 2.027-.108 2.9.812.657.691 1.414 1.04 2.267 1.045 1.964.011 3.319.78 3.319 1.885 0 .835.1.897.823.509.738-.394 2.018-.31 4.077.27.411.115.7.583.7 1.132 0 .899.092.927 2.36.721 3.555-.322 5.24.097 5.24 1.302 0 .952.058.97 2.357.729 3.514-.367 5.243.054 5.243 1.277 0 1.1.773 1.223 3.898.619 3.213-.622 6.748.456 6.198 1.891-.2.519.254.562 3.337.317 1.962-.156 5.105-.266 6.986-.246 3.849.043 4.781-.184 4.781-1.163 0-.373.644-1.047 1.432-1.497l1.431-.818-1.362-.646c-1.697-.805-9.901-8.797-9.901-9.645 0-.343-.36-.848-.8-1.123-.44-.275-.8-.802-.8-1.173 0-.37-.425-1.181-.945-1.803-.52-.622-1.079-1.581-1.242-2.131-.163-.55-.586-1.45-.941-2-.73-1.132-1.379-2.822-3.896-10.149-1.877-5.462-2.137-7.517-2.785-22.051-.108-2.42-.278-5.03-.377-5.8-.1-.77-.288-2.93-.417-4.8-.129-1.87-.405-4.93-.612-6.8-.208-1.87-.459-4.19-.557-5.156-.099-.966-.371-1.947-.604-2.18-.233-.233-.424-.838-.424-1.344 0-.607-.238-.922-.7-.926-.544-.005-.579-.083-.159-.349.416-.264.439-.535.1-1.168-.242-.453-.441-1.318-.441-1.922 0-2.325-1.309-4.644-1.724-3.055-.101.385-.204.115-.23-.6-.025-.715.122-1.3.327-1.3.721 0 .862-1.573.248-2.76-.342-.66-.627-1.794-.633-2.52-.007-.726-.456-2.04-.998-2.92-.547-.887-.989-2.224-.994-3-.007-1.324-1.182-5.72-1.655-6.192-.121-.121-.34 10.988-.488 24.686M368.8 289.433c0 .349.214.562.475.475.742-.247.865-1.108.158-1.108-.348 0-.633.285-.633.633m-214.933 56.298c.105.777-.025 1.816-.288 2.308l-.479.895-.536-.967c-.658-1.188-.706-2.555-.127-3.636.57-1.064 1.179-.468 1.43 1.4m1.634 8.054c-.551 1.03-1.077-.13-.775-1.712l.188-.981.507.947c.371.694.393 1.162.08 1.746M125.2 372.4c0 .22.405.397.9.394.728-.005.785-.08.3-.394-.776-.501-1.2-.501-1.2 0m54.8 6.4c.485.314.428.389-.3.394-.495.003-.9-.174-.9-.394 0-.501.424-.501 1.2 0m6.685 3.323c-.143.373-.529.677-.858.677-.662 0-1.546 1.348-1.146 1.747.354.355 2.836.316 3.043-.047.094-.165-.043-.919-.304-1.677-.366-1.059-.535-1.22-.735-.7m3.197 3.347c.253.658 1.711 1.058 2.977.818.642-.122.472-.196-.535-.234-.812-.029-1.562-.192-1.667-.361-.104-.169.494-.243 1.33-.163.865.083 1.642-.053 1.803-.315.203-.328-.343-.434-1.915-.37-1.65.067-2.147.223-1.993.625" fill="#2728a5"/><path id="path4" d="M396.123 29.972c-.111.425-.428.686-.704.58-.52-.2-.89 5.442-1.837 28.028-.239 5.708-.634 10.476-.977 11.8-.316 1.221-.772 4.38-1.013 7.02-.275 3.015-.715 5.395-1.182 6.4-.408.88-.869 2.93-1.023 4.555-.16 1.696-.595 3.49-1.019 4.209-.407.69-.859 2.33-1.006 3.645-.174 1.569-.549 2.702-1.089 3.296-.573.632-.874 1.618-.993 3.257-.145 2.005-.31 2.414-1.125 2.786-.77.35-.955.738-.955 2 0 1.369-.136 1.599-1.087 1.838-.598.15-1.804.8-2.679 1.443-.875.644-1.826 1.171-2.113 1.171-.286 0-.521.369-.521.819 0 .451-.438 1.225-.972 1.72-.535.496-1.09 1.37-1.234 1.943-.144.573-.696 1.451-1.228 1.95-.531.499-.966 1.087-.966 1.307 0 .4-4.566 7.388-6.312 9.661-.507.66-1.229 1.62-1.605 2.133-.376.513-1.268 1.554-1.983 2.313-.715.759-1.3 1.555-1.3 1.767 0 .213-.235.387-.522.387-1.198 0-3.27 2.713-2.224 2.912.858.162.842.184-.168.234-1.806.088-3.084 1.162-3.096 2.6-.011 1.268-2.58 3.078-3.533 2.489-.516-.319-2.857.928-2.857 1.522 0 .274-.495.936-1.1 1.471-1.162 1.027-1.541 1.292-3.67 2.572-.732.44-1.829 1.205-2.438 1.7-.609.495-1.271.9-1.471.9-.2 0-.975.63-1.721 1.4-.778.802-1.75 1.4-2.278 1.4-.717 0-.922.223-.922 1 0 .867-.177 1-1.338 1-1.656 0-2.662 1.032-2.662 2.731 0 1.177-.094 1.265-1.3 1.209-1.21-.056-1.224-.071-.2-.227.637-.096 1.1-.419 1.1-.767 0-.74-.886-.5-4.089 1.106-1.258.631-2.563 1.148-2.9 1.148-.432 0-.611.411-.611 1.4 0 1.272-.104 1.4-1.138 1.4-1.11 0-2.604 1.184-2.696 2.136-.024.255-.072.779-.105 1.164-.04.464-.398.7-1.061.7-.811 0-1.01.208-1.054 1.1-.047.944-.08.972-.228.199-.182-.942-2.111-.915-2.475.035-.27.704-2.133 2.266-2.701 2.266-.336 0-.542.458-.542 1.2 0 1.05-.141 1.2-1.13 1.2-.689 0-1.498.391-2.07 1-.517.55-1.345 1-1.841 1-.547 0-1.364.562-2.081 1.432-1.273 1.545-2.917 2.568-4.124 2.568-.538 0-.754.287-.754 1 0 .8-.2 1-1 1s-1 .2-1 1-.2 1-1 1c-.55 0-1 .15-1 .332 0 .835-1.979 1.415-2.986.875-.781-.417-1.11-.425-1.577-.038-.905.751-.31 1.631 1.106 1.633l1.257.003-1.146.597c-.63.329-1.542.598-2.026.598-.523 0-1.678.803-2.848 1.98-1.083 1.089-2.376 2.083-2.874 2.208-.56.14-.906.53-.906 1.02 0 .603-.27.792-1.13.792-.689 0-1.498.391-2.07 1-.517.55-1.358 1-1.87 1-.725 0-.93.22-.93 1 0 .872-.175 1-1.371 1-.961 0-1.591.28-2.108.936-.405.516-1.138 1.152-1.629 1.415-.49.262-.892.741-.892 1.063 0 .355-.386.586-.981.586-1.343 0-3.019.813-3.019 1.464 0 .357-.525.536-1.575.536-1.484 0-1.582.075-1.7 1.3-.106 1.107-.3 1.32-1.306 1.434-.649.074-1.618.479-2.154.9-.535.421-1.309.766-1.719.766-.533 0-.746.291-.746 1.02 0 .773-.316 1.154-1.3 1.568-.715.3-1.829 1.101-2.475 1.779-.651.683-1.587 1.233-2.1 1.233-.72 0-.925.222-.925 1 0 .917-.148 1-1.776 1-.977 0-1.885.175-2.017.389-.398.644-2.695 1.524-4.546 1.741-.979.115-2.127.569-2.626 1.037-.488.458-1.381.833-1.985.833-.639 0-1.864.585-2.932 1.4-1.008.77-2.145 1.4-2.527 1.4-.381 0-.917.27-1.191.6-.28.338-1.133.594-1.949.587l-1.451-.014.9-.75c.495-.413.9-.857.9-.987s-.405-.233-.9-.23c-.626.004-.742.107-.381.335.415.264.396.432-.096.84-.338.28-.516.669-.395.864.121.195.008.355-.251.355-.27 0-.383.333-.266.781.182.698-.037.794-2.053.9-1.994.105-2.273.224-2.386 1.019-.089.625-.399.9-1.016.9-.705 0-.884.226-.872 1.1.015 1.049-.062 1.094-1.684.973-1.592-.119-1.7-.061-1.7.9 0 1.116-.163 1.179-2.7 1.045-2.148-.114-2.586 1.658-.6 2.429 1.377.534 8.207.125 11.391-.683 1.26-.32 4.05-.75 6.2-.955 2.15-.206 4.989-.717 6.309-1.136 1.32-.418 3.524-.885 4.898-1.037 1.374-.151 3.145-.546 3.935-.876.791-.33 2.457-.782 3.702-1.005 1.246-.222 3.165-.729 4.265-1.126 1.1-.397 2.72-.852 3.6-1.011.88-.159 1.79-.447 2.023-.639.233-.192 1.403-.609 2.6-.927 1.197-.318 2.987-.95 3.977-1.406.99-.456 2.105-.832 2.479-.837.373-.005 1.525-.459 2.559-1.009 1.035-.55 2.151-1 2.482-1 .33 0 1.608-.472 2.84-1.05 2.572-1.206 4.305-1.995 8.24-3.753 1.54-.688 3.07-1.423 3.4-1.632.33-.21 1.23-.652 2-.983.77-.331 1.67-.781 2-1 .33-.219 1.227-.684 1.993-1.034.767-.35 1.81-.964 2.319-1.365.509-.4 1.469-.847 2.134-.993.664-.146 1.301-.507 1.414-.803.114-.296.732-.653 1.373-.794.641-.141 1.391-.573 1.667-.96.275-.387.987-.824 1.583-.972.596-.147 1.567-.716 2.158-1.264.592-.549 1.399-.997 1.795-.997.395 0 .97-.359 1.277-.797.307-.439 1.111-.908 1.787-1.043.71-.142 1.309-.551 1.418-.969.104-.398.615-.783 1.136-.857.624-.088.989-.44 1.074-1.034.085-.597.402-.9.943-.9.56 0 .743.188.584.6-.126.33-.069.6.128.6s.441-.315.541-.7c.101-.385.204-.146.23.53.028.752.435 1.596 1.046 2.17.583.547 1 1.385 1 2.008 0 .591.385 1.408.862 1.83.473.419 1.729 2.569 2.791 4.779 1.061 2.209 2.473 4.537 3.138 5.174.792.759 1.209 1.552 1.209 2.3 0 1.644 1.411 4.229 3.463 6.345.979 1.009 1.749 1.999 1.711 2.2-.157.831.064 1.124.426.564.297-.46.389-.315.394.62.003.671.214 1.428.469 1.683.349.349.35.599.003 1.017-.364.439-.252.649.537 1.009.548.249.997.734.997 1.076 0 .941 1.799 4.291 2.779 5.178.477.43 1.615 2.23 2.53 4 .916 1.769 2.49 4.117 3.498 5.217 2.257 2.461 3.193 3.922 3.193 4.986 0 .602.261.814 1 .814.831 0 1 .191 1 1.13 0 .689.391 1.498 1 2.07.669.629 1 1.37 1 2.241 0 .893.298 1.535.949 2.048.821.645 2.426 3.571 3.188 5.811.131.385.576.7.99.7.56 0 1.223 1 2.587 3.901 1.009 2.145 2.386 4.429 3.06 5.074 1.035.992 1.226 1.474 1.226 3.1 0 1.787.072 1.925 1 1.925.874 0 1 .174 1 1.386 0 .981.236 1.512.808 1.818.913.489 1.592.225 1.592-.617 0-.312.525-.838 1.167-1.17.723-.374 1.343-1.138 1.631-2.01.255-.774.72-1.407 1.033-1.407.313 0 .59-.225.615-.5.214-2.319 1.814-3.716 2.52-2.2.128.275.144-.31.034-1.3-.24-2.175.179-2.987 1.35-2.616.9.286 1.031-.123.862-2.684-.075-1.139.647-1.481 1.443-.685.286.286.428-.395.458-2.203.052-3.116.249-3.567 1.311-2.999.734.393.776.261.776-2.442 0-2.848.003-2.857 1-2.607 1.096.275 1.169-.027 1.001-4.152l-.072-1.789.803.989c.755.928.763 1.036.136 1.788-.663.794-.661.794.235.036.496-.421.88-.961.852-1.2-.339-2.947.099-5.915.845-5.72 1.129.295 1.232-.045 1.238-4.104.006-3.563.019-3.612.984-3.612.907 0 .978-.145.978-2 0-1.141.182-2 .424-2 .233 0 .301-.198.151-.44-.184-.298.013-.288.607.03.824.441.849.416.408-.408-.318-.594-.328-.791-.03-.607.307.19.44-.752.44-3.109 0-3.311.457-4.372 1.584-3.676.171.106.29-2.009.263-4.699-.045-4.685-.083-4.896-.908-5.014-1.29-.183-1.898 2.074-1.626 6.035.2 2.917.153 3.198-.564 3.385-1.608.421-2.71 5.182-1.482 6.41.356.356.284.524-.3.709-2.056.649-2.455 1.363-2.527 4.531-.038 1.639-.101 1.735-1.04 1.555-.809-.155-1.002-.03-1.012.653-.019 1.299-.754-.134-1.464-2.854-.323-1.236-.982-2.551-1.524-3.04-.525-.473-1.956-2.859-3.18-5.301-1.224-2.442-2.584-4.765-3.023-5.162-.438-.397-.797-1.203-.797-1.79 0-.623-.417-1.461-1-2.008-.55-.517-1-1.296-1-1.731 0-.933-1.8-4.871-2.827-6.188-.395-.505-.829-1.425-.965-2.044-.136-.618-.781-1.636-1.434-2.262-.653-.625-1.365-1.8-1.584-2.611-.249-.924-.918-1.871-1.793-2.539-1.095-.835-1.397-1.349-1.397-2.376 0-.88-.328-1.618-1-2.249-.572-.537-1-1.387-1-1.985 0-.725-.613-1.649-2-3.015s-2-2.29-2-3.015c0-.598-.428-1.448-1-1.985-.55-.517-1-1.362-1-1.878 0-1.002-1.466-3.581-2.546-4.477-.36-.299-.654-1.07-.654-1.714 0-1.076-.78-3.027-1.637-4.093-.193-.241-.82-1.023-1.393-1.738-.572-.715-.845-1.3-.606-1.3.24 0 .436-.36.436-.8 0-.44.366-1.166.813-1.612.446-.447.92-1.354 1.052-2.015.133-.661.577-1.381.988-1.601.411-.22.747-.595.747-.833 0-.378.454-.991 2.923-3.939.276-.33.962-1.32 1.524-2.2 1.311-2.054 2.833-4.348 6.653-10.032.825-1.227 1.86-2.82 2.3-3.539.44-.718 1.144-1.829 1.564-2.468.42-.638 1.185-1.801 1.7-2.583.515-.781.936-1.565.936-1.742 0-.176.45-.855 1-1.509.55-.654 1-1.473 1-1.82s.45-1.221 1-1.943c.55-.721 1-1.568 1-1.883 0-.315.322-1.002.716-1.527.394-.525 1.306-2.214 2.027-3.754.721-1.54 1.748-3.655 2.284-4.7.535-1.045.973-2.174.973-2.509 0-.334.434-1.279.963-2.1.53-.82 1.088-2.121 1.24-2.891.151-.77.541-1.819.867-2.332.325-.513.849-1.926 1.166-3.14.316-1.214.842-2.59 1.169-3.057.327-.467.601-1.214.608-1.66.007-.446.377-1.801.821-3.011.444-1.21 1.057-3.405 1.362-4.877.305-1.472.816-3.092 1.135-3.6.318-.508.703-2.092.855-3.521.152-1.429.623-3.587 1.048-4.795.425-1.209.965-4.268 1.201-6.799.235-2.531.584-4.79.775-5.02.688-.829 1.138-5.763 1.41-15.457l.276-9.868.952-.239.952-.239v-9.993c0-9.224-.148-11.242-.677-9.22M153.867 193.467c-.443.442-.304.833.39 1.099.531.204.566.143.183-.318-.367-.442-.358-.617.043-.778.284-.114.322-.221.084-.238-.239-.018-.554.088-.7.235m-1.224 10.661c-.121 1.579-.321 13.582-.445 26.672-.123 13.09-.434 33.34-.691 45-.256 11.66-.454 22.19-.44 23.4.015 1.21-.051 1.705-.147 1.1-.212-1.347-.314-1.352-1.956-.1-.721.55-1.471 1-1.668 1-.196 0-.77.44-1.275.977-.836.89-.997.926-1.795.403-1.297-.849-3.019.017-3.023 1.52-.003.94-.168 1.1-1.133 1.1-.689 0-1.498.391-2.07 1-.517.55-1.358 1-1.87 1-.725 0-.93.22-.93 1 0 .795-.201 1-.981 1-1.334 0-2.958.747-4.533 2.084-.723.614-1.654 1.116-2.069 1.116-.416 0-1.265.405-1.888.9-1.641 1.305-2.808 1.9-3.724 1.9-.443 0-.805.18-.805.4 0 .22-.172.4-.382.4-.412 0-2.777 1.463-4.452 2.755-.569.438-1.559.921-2.2 1.072-.641.152-1.616.673-2.166 1.157-.55.485-1.799 1.109-2.776 1.388-.976.278-2.264 1.028-2.86 1.667-.697.746-1.485 1.161-2.203 1.161-.656 0-1.562.426-2.194 1.032-.592.567-1.721 1.253-2.509 1.524-.788.271-2.151 1.156-3.028 1.968-.985.912-1.992 1.476-2.632 1.476-1.271 0-2.938.829-3.978 1.978-.428.473-1.417 1.139-2.199 1.481-3.076 1.347-3.459 1.552-4.552 2.431-.622.5-1.285.91-1.474.91-1.074 0-2.534.867-2.007 1.192.453.28.464.463.06.951-.412.495-.353.752.325 1.43.455.455.827.979.827 1.166 0 .186.373.769.829 1.294.51.588.76 1.314.65 1.888-.169.882-.094.918 1.398.666 1.382-.233 1.604-.163 1.797.573.12.462.378.863.573.89.194.028.576.073.848.1.272.028.726.534 1.01 1.126.284.592.871 1.19 1.306 1.327.51.162.789.607.789 1.258 0 .94.114.999 1.7.873 1.596-.126 1.708-.067 1.827.966.089.777.353 1.1.9 1.1.558 0 .773.278.773 1 0 .945.12 1 2.2 1s2.2.055 2.2 1c0 .733.213 1 .8 1 .587 0 .8.267.8 1 0 .933.133 1 2 1s2 .067 2 1 .133 1 2 1 2 .067 2 1 .133 1 2 1 2 .067 2 1 .133 1 2 1 2 .067 2 1 .133 1 2 1 2 .067 2 1c0 .948.117 1 2.243 1 1.771 0 2.197.119 2.025.567-.243.633.77 1.18 1.43.772.251-.155.308-.073.14.199-.207.335.63.465 3.038.474 2.463.009 3.142.118 2.621.422-.387.225-.882.299-1.1.164-.218-.135-.397.035-.397.378 0 .343.045.636.1.651 2.385.651 5.5.356 5.5-.522 0-1.133-1.333-1.901-3.319-1.912-.853-.005-1.61-.354-2.267-1.045-.873-.92-1.204-1.013-2.9-.812-1.628.192-1.914.124-1.914-.459 0-.811-.954-1.472-2.672-1.849-.685-.15-1.552-.613-1.928-1.028-.376-.415-1.249-.878-1.941-1.029-.693-.151-1.768-.701-2.39-1.223-.622-.521-1.444-.948-1.828-.948-.383 0-1.067-.426-1.519-.946-.453-.521-1.433-1.061-2.178-1.201-.868-.163-1.496-.577-1.749-1.153-.29-.661-.793-.933-1.895-1.024-2.422-.201-.812-4.076 1.693-4.076 1.22 0 4.962-1.865 6.007-2.995 1.906-2.06 4.567-2.874 4.924-1.505.101.385.204.144.23-.536.049-1.325 1.213-2.164 3.003-2.164.948 0 1.935-.875 2.37-2.1.158-.445.664-.7 1.391-.7.702 0 1.505-.386 2.082-1 .579-.616 1.38-1 2.088-1 .692 0 1.546-.398 2.148-1 .55-.55 1.411-1 1.912-1 .502 0 1.335-.45 1.852-1 .544-.579 1.386-1 2-1 .634 0 1.451-.424 2.03-1.054 2.079-2.259 7.17-3.772 7.17-2.13 0 1.594 1.631 4.229 2.099 3.392.667-1.192 1.068-12.827 1.354-39.314.148-13.698.367-24.807.488-24.686.473.472 1.648 4.868 1.655 6.192.005.776.447 2.113.994 3 .542.88.991 2.194.998 2.92.006.726.291 1.86.633 2.52.614 1.187.473 2.76-.248 2.76-.205 0-.352.585-.327 1.3.026.715.129.985.23.6.415-1.589 1.724.73 1.724 3.055 0 .604.199 1.469.441 1.922.339.633.316.904-.1 1.168-.42.266-.385.344.159.349.462.004.7.319.7.926 0 .506.191 1.111.424 1.344.233.233.505 1.214.604 2.18.098.966.349 3.286.557 5.156.207 1.87.483 4.93.612 6.8s.317 4.03.417 4.8c.099.77.269 3.38.377 5.8.648 14.534.908 16.589 2.785 22.051 2.517 7.327 3.166 9.017 3.896 10.149.355.55.778 1.45.941 2 .163.55.722 1.509 1.242 2.131.52.622.945 1.433.945 1.803 0 .371.36.898.8 1.173.44.275.8.78.8 1.123 0 .848 8.204 8.84 9.901 9.645l1.362.646-1.431.818c-.788.45-1.432 1.124-1.432 1.497 0 1.009-.852 1.179-5.677 1.133-2.411-.023-4.49.065-4.62.195-.13.13.064.236.43.236.445 0 .667.333.667 1v1h5.667c3.116 0 5.553-.114 5.414-.253-.389-.389.476-1.747 1.113-1.747.312 0 .734-.3.94-.667.354-.634 1.179 1.436.942 2.367-.042.165.442.3 1.075.3s1.375.27 1.649.6c.556.67 3.07.799 4 .204.403-.258-.071-.305-1.446-.144-1.325.154-2.144.08-2.324-.211-.221-.358 29.385-.826 31.47-.496.563.089.302-.712-.351-1.078-1.281-.716.33-1 5.326-.938 4.989.063 6.63-.465 4.883-1.571-.424-.269-.342-.367.342-.41.495-.031 1.08-.101 1.3-.156.22-.055.67-.122 1-.15.33-.027.6-.303.6-.613 0-.363.28-.489.793-.355.582.152.895-.062 1.178-.805.211-.557.672-1.173 1.022-1.369.505-.283.211-.557-1.409-1.316-2.335-1.093-4.312-3.132-4.643-4.788-.124-.621-.851-1.731-1.615-2.467-1.426-1.373-2.526-3.457-2.526-4.786 0-.413-.215-.751-.478-.751-.918 0-2.722-2.129-2.722-3.213 0-.585-.378-1.405-.841-1.824-.462-.419-1.117-1.302-1.454-1.962-.338-.661-1.219-1.877-1.96-2.702-.74-.826-1.345-1.681-1.345-1.9 0-1.025-1.95-.378-2.113.701-.092.605-.194-.295-.227-2-.057-2.956-.103-3.1-.985-3.1-1.166 0-2.697-1.615-3.995-4.214-.828-1.657-1.367-2.184-3.035-2.965-1.68-.787-2.138-1.238-2.67-2.631-.37-.968-1.646-2.675-3.009-4.023-1.674-1.657-2.366-2.644-2.366-3.376 0-.657-.511-1.529-1.4-2.391-.77-.746-1.4-1.592-1.4-1.878 0-.287-.248-.522-.551-.522-.546 0-1.287-1.453-1.53-3-.095-.604-.486-.83-1.601-.923-1.454-.121-1.478-.151-1.597-2-.103-1.598-.255-1.896-1.021-2.005-.705-.1-.9-.388-.9-1.326 0-1.496-.644-2.746-1.414-2.746-.322 0-.587-.315-.588-.7-.002-.385-1.007-1.69-2.234-2.9s-2.852-3.308-3.611-4.662c-.759-1.354-1.668-2.701-2.021-2.994-.352-.293-1.049-1.179-1.548-1.969-.616-.976-1.488-1.659-2.721-2.13-1.537-.587-1.917-.958-2.478-2.428-.364-.954-1.275-2.329-2.024-3.055-.858-.832-1.361-1.702-1.361-2.356 0-.714-.621-1.648-2-3.006-1.393-1.372-2-2.289-2-3.021 0-.732-.303-1.189-1-1.506-.949-.433-1-.624-1.001-3.764-.001-3.211-.349-14.175-1.21-38.109-.624-17.32-1.067-20.605-2.997-22.207-.326-.27-.592-.715-.592-.988s-.362-.957-.804-1.519c-.441-.561-.915-1.582-1.052-2.268-.137-.685-.561-1.413-.942-1.617-.418-.224-.783-1.045-.921-2.072-.125-.935-.48-1.887-.789-2.115-1.273-.939-1.577-2.171-1.046-4.243.549-2.142.771-2.321 1.605-1.296.488.599.46.641-.251.376-.61-.228-.69-.187-.335.17.542.546 1.335.179 1.335-.618 0-.629-.848-.928-2.668-.94l-1.269-.008-.22 2.873m242.157-1.669c0 .399-.194 2.934-.431 5.633-.293 3.338-.301 5.228-.025 5.908.394.971.406.961.431-.343.023-1.229.11-1.322 1.025-1.093l1 .251-.006-5.107c-.003-2.81-.138-5.306-.3-5.547-.478-.716-1.694-.501-1.694.298m.797 12.538c.325.391.314.611-.039.829-.33.204-.381.121-.161-.264.249-.436.207-.458-.183-.097-.776.716-.356 1.478.469.849.95-.725 1.047-1.586.195-1.729-.561-.094-.624-.002-.281.412m-1.197 11.032c0 1.089-.741 2.371-1.371 2.371-.126 0-.229-.81-.229-1.8 0-1.533.119-1.8.8-1.8.626 0 .8.267.8 1.229m-6.573 23.941c-.662.731-.662.764.005.666.386-.056.746-.403.799-.769.125-.847.047-.837-.804.103m-370.29 17.508c.477.897 1.2 1.518 1.462 1.256.08-.08-.321-.593-.891-1.14-.958-.917-1.002-.926-.571-.116m14.346 25.588c-.145.235.134.766.62 1.181.486.414.685.483.444.153-.242-.33-.521-.861-.62-1.18-.116-.372-.275-.427-.444-.154m314.391 28.783c.205.535.11.63-.425.425-.411-.158-.592-.105-.446.131.134.217.504.395.821.395.651 0 .784-1.024.181-1.397-.236-.146-.289.035-.131.446m-12 12c.205.535.11.63-.425.425-.411-.158-.592-.105-.446.131.373.603 1.397.47 1.397-.181 0-.317-.178-.687-.395-.821-.236-.146-.289.035-.131.446m-181.837 10.482c-.579 1.081-.531 2.448.127 3.636l.536.967.479-.895c.522-.975.338-3.482-.304-4.124-.268-.268-.546-.13-.838.416m2.289 7.742c-.302 1.582.224 2.742.775 1.712.313-.584.291-1.052-.08-1.746l-.507-.947-.188.981m-51.526 7.603c0 .86-.012.862-.63.1-.346-.427-.498-.523-.338-.214.193.372.134.464-.177.272-.581-.359-.209-1.034.569-1.034.326 0 .576.38.576.876m34.583 14.616c-1.632 1.207-.584 2.508 2.021 2.508 2.655 0 4.005-1.532 1.896-2.152-1.598-.469-3.527-.645-3.917-.356m124.23 1.999c-.524.591-.51.632.133.385.396-.152.795-.276.887-.276.092 0 .167-.18.167-.4 0-.588-.519-.461-1.187.291m-117.513.396c.853.129 1.1.385 1.1 1.14 0 .913.136.973 2.2.973 2.051 0 2.2-.064 2.2-.953 0-1.166-.886-1.457-4.2-1.382-1.32.03-1.905.13-1.3.222m6.845 2.313c-.547 1.424.13 1.8 3.242 1.8 3.185 0 4.633-1.472 2.113-2.148-1.838-.492-5.115-.28-5.355.348m27.455-.2c0 .22.405.397.9.394.728-.005.785-.08.3-.394-.776-.501-1.2-.501-1.2 0m69.039 1.138c-.139.223-.057.527.181.674.615.381 1.012-.14.498-.654-.287-.287-.511-.294-.679-.02m-86.239.467c-.77.159-1.175.313-.9.342.572.061.694 1.253.129 1.253-.205 0-.671-.299-1.037-.665-.62-.62-.655-.599-.528.3.159 1.13 7.702 1.79 8.357.732.55-.892-.056-1.503-1.752-1.766-.918-.143-1.939-.31-2.269-.373-.33-.062-1.23.017-2 .177m78.239 1.533c-.139.223-.057.527.181.674.615.381 1.012-.14.498-.654-.287-.287-.511-.294-.679-.02m-68.563 1.793c.086.599.434.894 1.124.95l1 .08-1-.301c-.93-.28-.948-.331-.254-.722.707-.399.701-.432-.124-.648-.717-.188-.848-.075-.746.641m56.373.01c-.486.586-.21 1.059.618 1.059.596 0 .73-1.031.178-1.372-.195-.121-.553.02-.796.313" fill="#3241bc"/></g></svg>
