<?xml version="1.0" encoding="UTF-8"?>
<svg width="35px" height="35px" viewBox="0 0 35 35" version="1.1" xmlns="http://www.w3.org/2000/svg" xmlns:xlink="http://www.w3.org/1999/xlink">
    <!-- Generator: Sketch 51.3 (57544) - http://www.bohemiancoding.com/sketch -->
    <title>Icons/Wallet</title>
    <desc>Created with Sketch.</desc>
    <defs></defs>
    <g id="Design-System" stroke="none" stroke-width="1" fill="none" fill-rule="evenodd">
        <g id="Design-system-01" transform="translate(-712.000000, -2954.000000)">
            <g id="Icons/Wallet" transform="translate(712.000000, 2953.744141)">
                <g id="Wallet-" transform="translate(0.412598, -0.504883)">
                    <circle id="Oval" fill="#E9EAFF" cx="17.0063479" cy="17.937012" r="17.0000003"></circle>
                    <g id="Group-2" transform="translate(10.693848, 12.579869)" fill="#6E76FF" fill-rule="nonzero">
                        <path d="M7.9095256,5.33271388 C7.9095256,4.13294588 8.88562291,3.15663679 10.0853607,3.15663679 L13.7675314,3.15663679 L13.7675314,0.946523509 C13.7675314,0.451712998 13.3660557,0.0496321849 12.8708821,0.0496321849 L0.896649289,0.0496321849 C0.401475725,0.0496019305 0,0.451652489 0,0.946493255 L0,9.718874 C0,10.2142896 0.401475725,10.6157653 0.896649289,10.6157653 L12.8708821,10.6157653 C13.3660557,10.6157653 13.7675314,10.2142896 13.7675314,9.718874 L13.7675314,7.50873046 L10.0853607,7.50873046 C8.88556241,7.50876072 7.9095256,6.53248188 7.9095256,5.33271388 Z" id="Shape"></path>
                        <path d="M14.2520553,3.89172762 L10.0853606,3.89172762 C9.28976096,3.89172762 8.64464665,4.53687218 8.64464665,5.3327441 C8.64464665,6.12870678 9.28976096,6.77373032 10.0853606,6.77373032 L14.2521159,6.77373032 C14.514966,6.77373032 14.7281081,6.56025536 14.7281081,6.29801033 L14.7281081,4.36787117 C14.7281081,4.10514207 14.5149055,3.89172762 14.2520553,3.89172762 Z" id="Shape"></path>
                    </g>
                </g>
            </g>
        </g>
    </g>
</svg>