<svg width="1280" height="450" xmlns="http://www.w3.org/2000/svg" xmlns:xlink="http://www.w3.org/1999/xlink"><defs><path id="a" d="M0 0h1280v450H0z"/></defs><g fill="none" fill-rule="evenodd"><mask id="b" fill="#fff"><use xlink:href="#a"/></mask><g mask="url(#b)" fill="#F6F8FF"><path d="M0 0h1280v450H0z"/><path d="M1206.0716 265.173l159.4908 159.4908c26.5818 26.5818 26.5818 69.6875 0 96.2693s-69.6874 26.5818-96.2692 0l-199.2949-199.2949c-3.1782-2.2337-6.208-4.7711-9.049-7.6122-26.5818-26.5818-26.5818-69.6874 0-96.2692l207.6255-207.6255c26.5818-26.5818 69.6874-26.5818 96.2692 0s26.5818 69.6875 0 96.2693L1206.0716 265.173zM252.0306 368.898L87.0708 522.7255c-27.4933 25.638-70.5727 24.1336-96.2106-3.3597-25.638-27.4933-24.1336-70.5727 3.3598-96.2106L200.3487 230.937c2.3433-3.0983 4.9849-6.0377 7.9233-8.7778 27.4934-25.638 70.5727-24.1336 96.2107 3.3597l200.253 214.745c25.6378 27.4933 24.1335 70.5727-3.3598 96.2106-27.4933 25.638-70.5727 24.1336-96.2106-3.3597L252.0306 368.898z" fill-rule="nonzero" style="mix-blend-mode:multiply"/></g></g></svg>