<svg width="352" height="454" xmlns="http://www.w3.org/2000/svg" xmlns:xlink="http://www.w3.org/1999/xlink"><defs><rect id="b" width="281.3238" height="381.4965" rx="3.5343"/><filter x="-15.1%" y="-11.1%" width="130.2%" height="122.2%" filterUnits="objectBoundingBox" id="a"><feGaussianBlur stdDeviation="14.1372" in="SourceGraphic"/></filter><circle id="c" cx="20.79" cy="20.79" r="20.79"/><circle id="e" cx="20.79" cy="20.79" r="20.79"/><circle id="g" cx="20.79" cy="20.79" r="20.79"/><path d="M4.6125.117h319.1297c2.2964 0 4.158 1.8617 4.158 4.158v171.5236H.4545V4.2751c0-2.2964 1.8616-4.158 4.158-4.158z" id="i"/><rect id="k" width="72.765" height="31.185" rx="4.158"/><filter x="-17.9%" y="-35.3%" width="135.7%" height="183.4%" filterUnits="objectBoundingBox" id="j"><feOffset dy="2" in="SourceAlpha" result="shadowOffsetOuter1"/><feGaussianBlur stdDeviation="4" in="shadowOffsetOuter1" result="shadowBlurOuter1"/><feColorMatrix values="0 0 0 0 0 0 0 0 0 0 0 0 0 0 0 0 0 0 0.0974014946 0" in="shadowBlurOuter1"/></filter><path id="m" d="M140.2722 114.8782l14.5234 18.074 15.2902-18.074-15.2902 5.0684z"/><filter x="-78.8%" y="-119%" width="257.6%" height="360%" filterUnits="objectBoundingBox" id="l"><feOffset dy="2" in="SourceAlpha" result="shadowOffsetOuter1"/><feGaussianBlur stdDeviation="7.5" in="shadowOffsetOuter1" result="shadowBlurOuter1"/><feColorMatrix values="0 0 0 0 0.458823529 0 0 0 0 0.525490196 0 0 0 0 0.819607843 0 0 0 0.676177536 0" in="shadowBlurOuter1"/></filter></defs><g fill="none" fill-rule="evenodd"><g transform="translate(10 18.7172)"><g filter="url(#a)" transform="translate(25.179 16.632)"><use fill="#F8F9FB" style="mix-blend-mode:multiply" xlink:href="#b"/><use fill-opacity=".1245" fill="#EEF0F3" style="mix-blend-mode:multiply" xlink:href="#b"/></g><rect stroke="#F3F3F7" stroke-width="1.0395" fill="#FFF" x="1.5593" y=".5198" width="326.403" height="373.1805" rx="4.158"/><g transform="translate(119.5425 313.929)"><circle fill="#E9EAFF" cx="20.79" cy="20.79" r="20.79"/><text font-family="Muli-Bold, Muli" font-size="12.474" font-weight="bold" fill="#6E76FF"><tspan x="9.5634" y="25.474">+89</tspan></text></g><g transform="translate(82.1205 313.929)"><circle fill="#D8E5FF" cx="20.79" cy="20.79" r="20.79"/><mask id="d" fill="#fff"><use xlink:href="#c"/></mask><g mask="url(#d)"><path d="M29.26 23.8747l4.5521 2.6097 2.6387 2.1305a12.3705 12.3705 0 0 1 4.5001 8.0608 46.9267 46.9267 0 0 1 .2093 9.893l-.2995 3.5363a79.2 79.2 0 0 0-.0512 12.7302l.5393 7.0432a79.2 79.2 0 0 1 .2312 6.0472v2.0895l-9.0923 1.0498a49.4385 49.4385 0 0 1-21.3485-2.2254l1.1436-5.4408a13.1045 13.1045 0 0 0-1.1436-8.6358H4.5844a26.6813 26.6813 0 0 1-13.473-3.6515l1.155-4.4275h6.4764a35.2 35.2 0 0 0 6.5558-.6158l5.8406-1.1072v-4.4928L6.732 51.4824a8.4684 8.4684 0 0 1-4.7807 1.4785 5.5708 5.5708 0 0 1-4.2898-2.0167L-14.514 36.2486l3.544-4.5082L2.0497 41.611l6.6343-9.6327a18.2218 18.2218 0 0 1 10.2206-7.2462l1.052 1.2699a3.7984 3.7984 0 0 0 4.0248 1.2128 11.143 11.143 0 0 0 4.2802-2.4302l.9985-.91z" fill="#C6ECD9"/><g fill-rule="nonzero"><path d="M15.3813 11.2193l.275 5.1007.1583 2.8447.3788 2.8448 2.1616 3.032-.3002 1.3954c-.3195 1.4857.6258 2.9492 2.1116 3.2688.1901.0409.384.0615.5786.0615h2.4758a4.224 4.224 0 0 0 1.7751-.391l1.67-.7735a4.3371 4.3371 0 0 0 2.5146-3.9356v-.6966l-.5182-.337a1.8248 1.8248 0 0 1-.8293-1.4788l-.2301-8.2443-2.4275-3.795-4.5852-2.3098-5.2089 3.4137z" fill="#F8BCA6"/><path d="M19.181 29.1315l1.492-.9514a8.515 8.515 0 0 0 3.8968-6.353l-6.3169 3.143-.2716 1.5532a2.5264 2.5264 0 0 0 1.1997 2.6082z" fill-opacity=".6606" fill="#FF9372"/><path d="M16.8157 23.5811l.3718.7688c.1743.3604.4383.67.7667.8991l.0083.0058a2.101 2.101 0 0 0 1.0922.375 2.5006 2.5006 0 0 0 1.1483-.2128l1.4763-.6576a5.9915 5.9915 0 0 0 2.4406-1.9947 4.2851 4.2851 0 0 0 .7707-2.9539l-.0418-.3824a17.0521 17.0521 0 0 1-.0778-2.747l.018-.3423a1.7533 1.7533 0 0 1 .9863-1.486l.285-.1382a.9734.9734 0 0 1 1.137.2127.9566.9566 0 0 1 .1207 1.143l-.198.3308a1.2966 1.2966 0 0 0 .2782 1.6583l.3197.2688c-.0164-.63.0067-1.0693.0691-1.3177.018-.0715.0444-.148.0794-.2293l.0004.0001c.345-.8037.6173-1.6369.8133-2.4894l.046-.2077a9.0792 9.0792 0 0 0 .1324-3.1978l-.059-.4317A1.438 1.438 0 0 0 27.45 9.2136a2.6773 2.6773 0 0 1-1.9384-.9862l-.0132-.0161a3.042 3.042 0 0 0-1.9636-1.0986l-.9486-.1252a2.3925 2.3925 0 0 0-1.603.357 3.6494 3.6494 0 0 1-1.606.5578l-1.2263.122a1.5676 1.5676 0 0 0-1.2207.8088 1.8017 1.8017 0 0 1-1.2066.899l-.8616.1831c-.5906.1256-.9677.7062-.842 1.2969.0052.0249.0114.0495.0184.074.1631.569.7125.9378 1.301.8732.6309-.0692 1.2157.0631 1.7544.397 1.2108.7504 1.7245-.2623 2.9073-.0485.7097.1282 1.358.4648 1.9447 1.0097l-.0019.002c.0884.082.1747.1663.259.2527l.6844.702a2.4485 2.4485 0 0 1 .6921 1.8375l-.016.3064a8.5738 8.5738 0 0 1-.5722 2.6613l-.1525.3918a1.7138 1.7138 0 0 1-1.6868 1.0898l-.5996-.0314a3.6425 3.6425 0 0 1-1.226-.2818 3.6425 3.6425 0 0 0-1.2261-.2818l-1.2609-.0661a3.403 3.403 0 0 0-.7563.0448l-.1052.0182.0612.6417c.0919.9643.3549 1.9045.7767 2.7765z" fill="#242221"/><path d="M18.9237 20.1543l-.5221.123a1.3704 1.3704 0 0 1-1.0409-.1721.6466.6466 0 0 1-.2432-.8212l.7242-1.555a2.1388 2.1388 0 0 0 .1971-1.0137c.06.3524.0371.7139-.0668 1.0559l-.26.8551a4.6458 4.6458 0 0 1-.2884.7241.411.411 0 0 0 .166.5418l.0008.0004c.2248.1267.475.2017.7325.2197l.6008.042z" fill="#EC9376"/><path d="M15.883 16.556l.3871-.1158a1.0167 1.0167 0 0 1 .3445-.0412.5963.5963 0 0 1 .3184.1125l.4392.3178-.3022-.1538a.0915.0915 0 0 0-.133.0768.2372.2372 0 0 1-.1344.2016l-.055.0263a.372.372 0 0 1-.3545-.018l-.054-.033a.2364.2364 0 0 1-.1129-.2141.141.141 0 0 0-.1333-.1481l-.2098-.011zM19.2464 16.925l.387-.1158a1.0167 1.0167 0 0 1 .3446-.0412.5963.5963 0 0 1 .3184.1125l.4391.3178-.3021-.1538a.0915.0915 0 0 0-.133.0768.2372.2372 0 0 1-.1344.2016l-.055.0263a.372.372 0 0 1-.3546-.018l-.054-.033a.2364.2364 0 0 1-.1128-.2141.141.141 0 0 0-.1333-.1481l-.2099-.011z" fill="#242221"/><path d="M16.851 21.2255l.6436.1192c.4072.0755.819.1243 1.2327.146a11.227 11.227 0 0 0 1.242-.0038l.8849-.0516-.6703.4095a2.812 2.812 0 0 1-.571.2662 15.6973 15.6973 0 0 0-.5968.2138l-.163.0622a1.2042 1.2042 0 0 1-.9099-.0211l-.0693-.0302a1.7038 1.7038 0 0 1-.8005-.7194l-.2225-.3908z" fill="#F8BCA6"/><path d="M18.9027 15.5634a.2559.2559 0 0 0 .275.2685l.4647-.0355c.367-.0281.736-.0144 1.1.041l.2486.0377c.1992.0303.3997.0508.6009.0613l-.4657-.338a1.6427 1.6427 0 0 0-.6912-.2905 3.9766 3.9766 0 0 0-.7645-.0544l-.4616.0118a.3147.3147 0 0 0-.3062.2981zM17.3727 15.2638a.2559.2559 0 0 1-.3249.2054l-.5163-.1517a4.1087 4.1087 0 0 0-.9434-.161l-.0459-.4774.201.0084a5.876 5.876 0 0 1 1.1217.1563l.2702.0646a.3147.3147 0 0 1 .2376.3554z" fill="#242221"/></g></g></g><g transform="translate(48.8565 313.929)"><circle fill="#EBE3E3" cx="20.79" cy="20.79" r="20.79"/><mask id="f" fill="#fff"><use xlink:href="#e"/></mask><g mask="url(#f)"><path fill="#D3DCEF" d="M12.6866 31.022L.8968 53.983l8.9387 2.131z"/><path d="M17.5657 27.698c-.4152 1.2357.25 2.574 1.4858 2.989a2.3604 2.3604 0 0 0 2.0885-.2922l5.0507-3.4708 6.9217 5.8941 1.0785 8.0454v20.3389l-.5377 7.1482a10.164 10.164 0 0 0 .186 2.84l.6046 2.8954c.2295 1.099-.4754 2.176-1.5743 2.4054a2.0328 2.0328 0 0 1-.7081.0218l-1.0552-.1535a22.0883 22.0883 0 0 0-7.8165.2623l-.6331.136a19.7258 19.7258 0 0 1-8.4298-.0322l-2.201-.4902c-1.0958-.244-1.7863-1.3303-1.5423-2.4261a2.0342 2.0342 0 0 1 .0022-.0097c.4724-2.0731.7086-3.4118.7086-4.016 0-.7795-.2513-2.7779-.7539-5.9952L9.2647 46.9584V40.435c0-2.2354.4598-4.4468 1.3508-6.4969a10.044 10.044 0 0 1 4.3084-4.7624l2.6418-1.4777z" fill="#E8EDF7"/><path d="M30.2185 30.9601a7.2446 7.2446 0 0 1 4.5927 4.8273l5.9629 20.5301a5.5997 5.5997 0 0 1-.9412 4.9789 6.8784 6.8784 0 0 1-4.55 2.622l-15.0073 1.979-2.8219-6.8517 12.4124-2.8175c.5474-.1243.8905-.6688.7662-1.2162a1.0164 1.0164 0 0 0-.0858-.237l-6.6142-12.9618a8.3066 8.3066 0 0 1 .313-8.11l.4692-.767c1.1433-1.8692 3.433-2.6912 5.504-1.976z" fill="#E8EDF7"/><g transform="rotate(-17 40.4156 -14.3908)"><path d="M6.619 2.4604l-3.9773 8.3505-.6707 2.9299 4.2097 4.626c-.965 1.2717-.7162 3.0848.5555 4.0497a2.8903 2.8903 0 0 0 2.7309.4151l5.1818-1.8758.8236-4.745 1.3822-2.47 2.2155-4.6133L6.619 2.4604z" fill="#E1B38D"/><path d="M3.1468 9.403a.8186.8186 0 0 1 .639.1038l1.9008 1.2116c.443.2823.9863.36 1.4906.213a2.16 2.16 0 0 0 1.23-.9334l.7432-1.1958a3.0415 3.0415 0 0 0 .2674-2.6663l-.0155-.0417A3.9987 3.9987 0 0 0 7.6405 4.018l-.4032-.2308a1.8553 1.8553 0 0 1-.8537-2.1502C6.6198.8606 7.586.3536 9.2821.116h1.2593c.8366 0 1.6702.0997 2.4832.297l3.17.7695c-1.0776-.0565-1.8475-.0565-2.3098 0-.4623.0565-.9315.208-1.4076.4546l1.2937.2022a5.9108 5.9108 0 0 1 2.6137 1.0962 15.0026 15.0026 0 0 1 2.1531 1.9512l.3478.3827a3.417 3.417 0 0 1 .7236 3.3448l-.1894.5885a19.7157 19.7157 0 0 1-2.2023 4.6504l-1.0229 1.5848-.7829.826h-1.2173c-1.3219 0-2.3935-1.0716-2.3935-2.3935 0-1.083.2254-2.1398.6764-3.1703l.7038-.6056a1.0237 1.0237 0 0 0 .1696-1.365l-.0071-.0101a.7926.7926 0 0 0-1.2077-.1054l-.491.4893a3.6442 3.6442 0 0 0-1.0226 1.9853 14.25 14.25 0 0 0-.1918 2.3302v2.1416c0 .905-.4643 1.7468-1.2298 2.2296l-.093.0586a16.6081 16.6081 0 0 1-2.3742 1.2418 6.611 6.611 0 0 1-2.5814.5248h-.3097a3.1063 3.1063 0 0 1-2.5274-1.3004l-.471-.659a2.459 2.459 0 0 1-.4582-1.4297 2.656 2.656 0 0 1 .43-1.4488l1.4284-2.1945.218-.91a.9449.9449 0 0 0 1.3747.1558l.1452-.1244-1.06-.5024a.7962.7962 0 0 1-.3975-1.0171l.1487-.3689a.6922.6922 0 0 1 .4736-.4126z" fill="#1E1E1E"/><ellipse fill="#1E1E1E" transform="rotate(20 5.7748 7.4462)" cx="5.6332" cy="7.4451" rx="1" ry="1"/><circle fill="#1E1E1E" cx="19.0702" cy="5.4123" r="2.541"/><path d="M5.2666 6.8988c.358.1153.6838.3136.9507.5786l.0213.0212-.0131-.1423a.6183.6183 0 0 0-.9589-.4575zM4.9212 4.858a.4549.4549 0 0 0 .1732.584l.4018.2458a24.6765 24.6765 0 0 0 1.534.8647l.468.2423-.8939-1.2924a2.1945 2.1945 0 0 0-.9316-.765l-.199-.0862a.4249.4249 0 0 0-.5525.2068z" fill="#1E1E1E"/><path d="M6.6493 19.1483l-1.0607.3052-.0103.1106a3.5826 3.5826 0 0 0 .5378 2.2418 11.7277 11.7277 0 0 0 3.1079-3.4366l.9675-1.6275-3.5422 2.4065z" fill="#B6845B"/></g><path d="M14.7144 29.3035c-.04 1.0146.75 1.8694 1.7645 1.9095a1.8384 1.8384 0 0 0 1.4765-.6502l.2464-.2916a4.6323 4.6323 0 0 1-1.1829-2.0755l-.0067-.0256a19.1995 19.1995 0 0 0-2.1375 1.0426l-.1603.0908z" fill="#D3DCEF" style="mix-blend-mode:multiply"/></g></g><circle cx="20.79" cy="20.79" r="20.79" transform="translate(16.632 313.929)" fill="#6E76FF"/><g transform="translate(16.632 313.929)"><mask id="h" fill="#fff"><use xlink:href="#g"/></mask><g mask="url(#h)"><path d="M13.456 11.7168l-.6592 2.6037a18.479 18.479 0 0 1-.0325.1264l-.7384 2.8324a13.1815 13.1815 0 0 1-2.4981 4.9536l-.765.9477a3.0086 3.0086 0 0 0-.5253 2.8035 3.2233 3.2233 0 0 0 2.0238 2.0693l.8315.2856a7.4028 7.4028 0 0 0 4.735.0253l.0763-.0253a4.6672 4.6672 0 0 0 3.1607-3.8396 12.3456 12.3456 0 0 0 .1017-1.5622c0-1.4428-.414-2.772-1.242-3.9874l-1.7354-2.3311-.892-1.9094-1.841-2.9925z" fill="#242221"/><path d="M17.682 27.0714l-5.9879 2.552a9.24 9.24 0 0 0-5.2825 6.0358l-1.52 5.4926c7.023 1.5534 12.3044 2.33 15.844 2.33 3.5395 0 8.5376-.7766 14.9944-2.33l-2.3493-6.9634a9.24 9.24 0 0 0-2.7437-4.0633l-2.5218-2.1604-8.1653-1.2396-2.2678.3463z" fill="#FFC85B"/><g transform="translate(8.907 4.275)"><g fill-rule="nonzero"><path d="M3.7167 10.284v.4883c0 2.1278.3354 4.2424.9939 6.2658l.1068.3282.159.489a2.6291 2.6291 0 0 0 1.2328 1.4898c.58.3191 1.268.3774 1.8933.1604l.6612-.2294v3.6626c.69 1.2062 2.2273 1.6247 3.4336.9346a2.5162 2.5162 0 0 0 .7746-.6892l.823-1.1143v-7.4619l2.09-3.7717-.3677-3.2757-1.7223-2.872-1.2298-.5805a8.3628 8.3628 0 0 0-3.5701-.8003 3.9016 3.9016 0 0 0-3.0462 1.4637l-.5304.6627a7.7621 7.7621 0 0 0-1.7017 4.85z" fill="#E1B38D"/><path d="M4.8067 16.5238a.3111.3111 0 0 0 .2549-.0371l.0204-.0132a.3527.3527 0 0 1 .2975-.0395l.1244.0395a1.913 1.913 0 0 0 .5787.0897h1.2825l-.3624.2553a7.1108 7.1108 0 0 1-.9392.5593l-.0032.0016a2.3253 2.3253 0 0 1-1.0326.2418l-.1076-.1983a1.8276 1.8276 0 0 1-.2029-.6135l-.0263-.185a.0914.0914 0 0 1 .1158-.1006z" fill="#FF7283"/><path d="M5.907 15.1659l-.3486.1519a.9128.9128 0 0 1-.9583-.1436.7485.7485 0 0 1-.1897-.8886l.601-1.27c.154-.3257.228-.6836.2157-1.0436.0554.3639.0236.7358-.0928 1.085l-.1262.3787a4.6755 4.6755 0 0 1-.3831.8533l-.0057.01a.5889.5889 0 0 0 .1005.7165.8764.8764 0 0 0 .7791.2307l.4081-.0803z" fill="#937261"/><path d="M8.3733 11.9044l-.1913-.1947c-.4806-.4895-1.267-.4966-1.7565-.016a1.242 1.242 0 0 0-.0788.085l.025-.0048a3.9442 3.9442 0 0 1 2.0016.1305zM5.1192 11.5881c-.1904-.1509-.3544-.2666-.492-.3472-.1375-.0805-.2801-.0959-.4279-.046l-.161.1016-.0022.1724a.95.95 0 0 1 .4734-.016l.6097.1352z" fill="#242221"/><g fill="#242221"><path d="M5.0167 12.3977l-.3236-.2395a.5358.5358 0 0 0-.654.0126l.0486.1657a.639.639 0 0 1 .5648-.0681l.3642.1293z"/><g transform="scale(-1 1) rotate(19 -38.8402 -17.4899)"><path d="M.1121.7911L.182.6447A.7384.7384 0 0 1 1.227.3283l-.0149.002A2.3448 2.3448 0 0 0 .1121.7912z"/><ellipse cx=".7273" cy=".6603" rx="1" ry="1"/></g></g><path d="M4.5594 12.907c-.1776.0611-.3961-.106-.4572-.2835a.34.34 0 1 1 .6429-.2214c.0611.1776-.0082.4437-.1857.5049zM12.1376 12.5364l.1175-.5766a1.0574 1.0574 0 0 1 .9024-.8377l.1042-.0133a.839.839 0 0 1 .9402.7425 2.2312 2.2312 0 0 1-.4088 1.5443l-.1677.2324a2.7806 2.7806 0 0 0-.5077 1.9412l.0505.4432c.047.4137.1677.8158.3562 1.1871a.1817.1817 0 0 0 .3429-.0655l.0925-1.0033a4.2648 4.2648 0 0 1 1.3533-2.7411l.5744-.5305a4.7112 4.7112 0 0 0 1.4788-4.042l-.1297-1.043A5.523 5.523 0 0 0 13.59 3.2456l-.5763-.2028a7.084 7.084 0 0 0-5.217.2028 6.3019 6.3019 0 0 0-3.4414 3.8045l-.1941.5934 1.6746.9319a9.816 9.816 0 0 0 2.9615 1.07l.0458.0087a3.1426 3.1426 0 0 1 2.2225 1.6667l.6242 1.2304a.275.275 0 0 0 .2452.1506.2067.2067 0 0 0 .2026-.1654z" fill="#242221"/></g><circle fill="#242221" cx="14.655" cy="3.0077" r="2.9733"/></g><path d="M26.1192 11.9447l.2403 1.8265a18.48 18.48 0 0 0 .44 2.2517l.4649 1.7834a13.1815 13.1815 0 0 0 2.498 4.9536l.765.9477a3.0086 3.0086 0 0 1 .5253 2.8035 3.2233 3.2233 0 0 1-2.0238 2.0693l-.8314.2857a7.4028 7.4028 0 0 1-4.7351.0252l-.0763-.0252a4.6672 4.6672 0 0 1-3.1607-3.8397 12.3456 12.3456 0 0 1-.1017-1.5622c0-1.4428.414-2.772 1.242-3.9874l1.7354-2.3311.892-1.9094 2.1261-3.2916z" fill="#242221"/><path fill="#C99870" d="M17.665 23.5511l2.3231-1.0625-2.323 4.7418z"/><path fill="#F6AE43" d="M11.1867 35.539l-2.3783 5.6128h.7244zM26.3724 36.43l2.0187 4.6367h-1.0094z"/></g></g><text font-family="Muli-SemiBold, Muli" font-size="13.5135" font-weight="500" fill="#3D3F50"><tspan x="17.6715" y="289.4675">Hosted by William Hook</tspan></text><text font-family="Muli-Bold, Muli" font-size="18.711" font-weight="bold" fill="#1E1E1E"><tspan x="17.6715" y="234.1765">Ethereum Meetup London - </tspan> <tspan x="17.6715" y="260.164">Putting the "currency" back int...</tspan></text><text font-family="Muli-Regular, Muli" font-size="13.5135" fill="#3D3F50"><tspan x="18.711" y="199.031">Thursday, 4th October 2018, 8:30 PM</tspan></text><use fill="#F6F8FF" xlink:href="#i" transform="translate(.5978)"/><g transform="translate(241.164 16.632)"><use fill="#000" filter="url(#j)" xlink:href="#k"/><use fill="#6E76FF" xlink:href="#k"/></g><text font-family="Muli-ExtraBold, Muli" font-size="11.4345" font-weight="600" fill="#FFF" transform="translate(241.164 16.632)"><tspan x="11.9865" y="19.8358">0.02 ETH</tspan></text></g><path fill="#6E76FF" fill-rule="nonzero" d="M164.926 70.5l-.601 1.951v56.6163l.601.573 27.52-15.5344z"/><path fill="#979DFF" fill-rule="nonzero" d="M164.9263 70.5l-27.5199 43.606 27.5199 15.5345v-27.4798z"/><g transform="translate(10 18)"><use fill="#000" filter="url(#l)" xlink:href="#m"/><use fill="#9CA7E0" xlink:href="#m"/></g><path fill="#6E76FF" fill-rule="nonzero" d="M164.9344 131.8687v21.5475l27.567-36.9012z"/><path fill="#979DFF" fill-rule="nonzero" d="M164.9263 153.4139v-21.5072L137.4064 116.38z"/><path fill="#525DE4" fill-rule="nonzero" opacity=".5024" d="M164.926 129.6403l27.5195-15.5342-27.5194-11.9452z"/><path fill="#6C75E7" fill-rule="nonzero" opacity=".497" d="M137.4066 114.1061l27.5194 15.489v-27.4342z"/></g></svg>
