<svg width="339" height="340" xmlns="http://www.w3.org/2000/svg"><g transform="translate(0 -.5)" fill="none" fill-rule="evenodd"><circle fill="#F6F8FF" cx="169.509" cy="170.2836" r="169.4"/><path fill="#F3C59E" d="M122.1565 248.5363l-.5713 6.4113 12.123 5.6332 2.953-.6772-7.538-7.3584.733-4.009z"/><path d="M121.6555 253.8357a9.5753 9.5753 0 0 0 6.2931-.8249l1.177-.595 9.8516 4.9758c.6897.3483.9665 1.1899.6181 1.8796a1.399 1.399 0 0 1-1.098.7601l-3.869.4198a15.4 15.4 0 0 1-1.6612.0899h-9.6892c-1.1046 0-2-.8954-2-2a2 2 0 0 1 .0066-.1628l.371-4.5425z" fill="#1E1E1E"/><path fill="#F3C59E" d="M90.0837 253.4696l-.5713 6.4114 12.1231 5.6331 2.9529-.6772-7.538-7.3584.733-4.0089z"/><path d="M89.5827 258.769a9.5753 9.5753 0 0 0 6.2932-.8248l1.1769-.5951 9.8517 4.9758c.6897.3484.9664 1.19.618 1.8796a1.399 1.399 0 0 1-1.0979.7602l-3.869.4198a15.4 15.4 0 0 1-1.6612.0899H91.205c-1.1045 0-2-.8955-2-2a2 2 0 0 1 .0067-.1628l.371-4.5426z" fill="#1E1E1E"/><rect fill="#6E76FF" x="160.9268" y="82.8205" width="114.8149" height="122.9992" rx="4"/><path d="M151.2725 153.701h2.3815c1.7877 0 3.57-.1972 5.3145-.588l1.5172-.3397a10.2605 10.2605 0 0 1 2.2426-.2481c.6268 0 1.135-.5082 1.135-1.135v-1.3512c0-.9648-.1192-1.926-.355-2.8615l-.1557-.6177a7.0353 7.0353 0 0 0-.5743-1.5153 1.3408 1.3408 0 0 0-1.1907-.7244h-1.0942a7.2102 7.2102 0 0 0-3.5694.9455l-2.3443 1.3357a50.0002 50.0002 0 0 1-2.4728 1.3185l-2.1914 1.0907 1.357 4.6905zM153.9297 122.7205l2.3335-2.4794a5.3788 5.3788 0 0 0 1.4619-3.6864c0-1.374.5041-2.7004 1.4169-3.7275l1.7848-2.0085v12.81l-3.2017 3.5606-3.7954-4.4688z" fill="#F3C59E"/><path d="M128.2827 173.244l10.1694 28.549a10 10 0 0 1 .4098 5.1912l-7.8132 41.841a2 2 0 0 1-1.5322 1.5852l-1.5596.3466a6.9567 6.9567 0 0 1-4.7804-.6514l-1.1222-.598A2 2 0 0 1 121 247.5986c.7523-10.4143 1.4165-18.1274 1.9927-23.1395.3085-2.684.6747-5.3152 1.0986-7.8934a20 20 0 0 0-2.7206-13.7574l-6.6344-10.7376-7.3597 22.3593a100.0001 100.0001 0 0 0-3.2928 12.7953l-2.4158 12.8541a99.9952 99.9952 0 0 1-.5708 2.8142l-2.1229 9.7454a3 3 0 0 1-1.595 2.0474l-.7436.37a5.2304 5.2304 0 0 1-4.1587.2174l-1.4121-.527a3 3 0 0 1-1.9492-2.7062l-.4535-13.0175a100 100 0 0 1 .8163-16.6967l.9748-7.3115a100 100 0 0 1 .7205-4.5885l.268-1.4817a64.8377 64.8377 0 0 0 .9152-7.5892l1.626-26.6115 9.1684-2.2773h16.456l8.6753.7773z" fill="#EDE2D7"/><path d="M108.1938 113.7275l-5.1728 2.9657-2.9985 2.421a14.0574 14.0574 0 0 0-5.1138 9.16 53.3257 53.3257 0 0 0-.2378 11.242l.3403 4.0185a90 90 0 0 1 .0583 14.4661l-.613 8.0037a90 90 0 0 0-.2627 6.8718v2.3745l10.3322 1.193a56.1802 56.1802 0 0 0 24.2596-2.529l-1.2994-6.1826a14.8915 14.8915 0 0 1 1.2994-9.8135h7.4487a30.3197 30.3197 0 0 0 15.3101-4.1494l-1.3125-5.0312h-7.3594a40 40 0 0 1-7.4498-.6999l-6.637-1.2581v-5.1055l5.0083 3.4254a9.6232 9.6232 0 0 0 5.4326 1.68 6.3305 6.3305 0 0 0 4.8747-2.2916l13.8357-16.6995-4.0273-5.123-14.795 11.2167-7.539-10.9463a20.7066 20.7066 0 0 0-11.6143-8.2343l-1.1953 1.443a4.3164 4.3164 0 0 1-4.5737 1.3782 12.6624 12.6624 0 0 1-4.864-2.7615l-1.1346-1.0342z" fill="#C6ECD9"/><text font-family="Muli-Bold, Muli" font-size="23.69" font-weight="bold" fill="#FFF"><tspan x="195.8101" y="152.9668">449</tspan></text><text font-family="Muli-Regular, Muli" font-size="11.845" fill="#FFF"><tspan x="183.5441" y="176.5527">people went</tspan></text><path d="M89.2373 252.566l1.2837 1.599.5452-4.3393a37.0313 37.0313 0 0 0-.5242-12.3342 26.441 26.441 0 0 1 .2745-12.1806l2.4385-9.3539a50.9697 50.9697 0 0 0 1.5243-16.4128l-.3146-4.4998a110 110 0 0 1-.268-7.6724v-12.621l-2.0383 26.7555a110 110 0 0 1-.9274 8.1487l-1.306 8.6052a110 110 0 0 0-.996 9.1047l-.1365 2.024a109.2194 109.2194 0 0 0-.0906 13.1999l.5354 9.977zM115.083 192.1553l5.4238 7.088a29.1729 29.1729 0 0 1 4.4883 8.4457 24.6143 24.6143 0 0 1 1.2272 9.433l-1.0426 15.9942a39.3746 39.3746 0 0 1-4.0205 14.9414l.6918-11.1024c.0798-1.2806.1801-2.5598.301-3.8372l1.055-11.1536a37.0777 37.0777 0 0 1 .8526-5.1344c.3999-1.6719.4346-3.4103.1016-5.0967l-.4537-2.2979a27.3684 27.3684 0 0 0-3.5589-9.0708l-5.0656-8.2093zM101.1895 183.708c.5828 2.0598 2.7251 3.257 4.785 2.6742 1.9684-.557 3.165-2.548 2.7333-4.5476l-.0086-.0397-7.5097 1.9131z" fill="#E3D4C4"/><path fill="#A3DABF" d="M109.1621 134.128l3.4966 8.39 15.8418 4.1275-14.7969-5.1396z"/><path d="M128.5957 157.6855l-11.3015-1.169a19.8976 19.8976 0 0 1-8.5949-2.9794l-1.5493-.9807a30.6624 30.6624 0 0 1-4.4771-3.4506 16.2861 16.2861 0 0 1-3.3815-4.4543l-.644-1.2467-1.2431-2.152a9.5378 9.5378 0 0 1-1.1101-2.984 35.0946 35.0946 0 0 1-.4581-3.193l-.1076-1.111a19.0174 19.0174 0 0 1 .2491-5.4006l1.245-6.5185a17.092 17.092 0 0 0-2.8148 9.9241l.1574 5.2138.6313 8.1952a50 50 0 0 1 .0488 6.9832l-1.0007 15.8885v7.2764-.324l1.388-14.3015a14.6673 14.6673 0 0 1 2.4365-6.7812l.4266-.6328c.9158-1.3587 2.7525-1.7312 4.1253-.8367l.2287.149a24.8453 24.8453 0 0 0 5.7667 2.7738l.9322.308a30.4648 30.4648 0 0 0 8.1996 1.5086l6.6097.2954h4.2378zM128.5522 140.852v-5.5903l2.815 3.754a34.918 34.918 0 0 0 7.627 7.456h2.8593a12.3483 12.3483 0 0 1-9.2425-2.2282l-4.0588-2.97" fill="#A3DABF"/><g fill-rule="nonzero"><path d="M123.965 99.3465l-.3125 5.7962-.1798 3.2326-.4305 3.2328-2.4563 3.4453.3411 1.5858c.3631 1.6883-.7112 3.3513-2.3995 3.7145a3.127 3.127 0 0 1-.6575.0699h-2.8135a4.8 4.8 0 0 1-2.017-.4444l-1.8979-.8789a4.9285 4.9285 0 0 1-2.8574-4.4722v-.7917l.5888-.3829a2.0736 2.0736 0 0 0 .9424-1.6805l.2616-9.3685 2.7584-4.3124 5.2105-2.6249 5.9191 3.8793z" fill="#F8BCA6"/><path d="M119.6472 119.7012l-1.6955-1.0811a9.676 9.676 0 0 1-4.4281-7.2193l7.1783 3.5716.3087 1.765a2.8709 2.8709 0 0 1-1.3634 2.9638z" fill-opacity=".6606" fill="#FF9372"/><path d="M122.3351 113.394l-.4225.8736a2.656 2.656 0 0 1-.8712 1.0217l-.0094.0066a2.3874 2.3874 0 0 1-1.2412.4262 2.8416 2.8416 0 0 1-1.3049-.242l-1.6777-.7472a6.8085 6.8085 0 0 1-2.7733-2.2667 4.8695 4.8695 0 0 1-.8758-3.3567l.0475-.4345a19.3774 19.3774 0 0 0 .0884-3.1217l-.0204-.389a1.9924 1.9924 0 0 0-1.1208-1.6886l-.324-.157a1.1061 1.1061 0 0 0-1.292.2417 1.087 1.087 0 0 0-.1371 1.299l.2249.3758a1.4734 1.4734 0 0 1-.316 1.8844l-.3634.3055c.0186-.716-.0075-1.2151-.0785-1.4974a1.741 1.741 0 0 0-.0902-.2606l-.0004.0002a16.5893 16.5893 0 0 1-.9242-2.829l-.0524-.236a10.3173 10.3173 0 0 1-.1504-3.6339l.067-.4905a1.6341 1.6341 0 0 1 1.5336-1.4106 3.0424 3.0424 0 0 0 2.2027-1.1207l.015-.0184a3.4569 3.4569 0 0 1 2.2314-1.2483l1.0779-.1423a2.7187 2.7187 0 0 1 1.8215.4056 4.147 4.147 0 0 0 1.8252.634l1.3934.1386a1.7814 1.7814 0 0 1 1.3871.919c.2862.5242.787.8973 1.3712 1.0215l.9791.2082c.6712.1427 1.0996.8026.957 1.4738a1.2425 1.2425 0 0 1-.021.084 1.3813 1.3813 0 0 1-1.4785.9923c-.717-.0786-1.3815.0717-1.9936.4511-1.376.8528-1.9596-.298-3.3038-.0551-.8065.1458-1.5431.5282-2.2099 1.1474l.0022.0023a8.2913 8.2913 0 0 0-.2942.2871l-.7779.7977a2.7824 2.7824 0 0 0-.7865 2.0881l.0183.3482a9.743 9.743 0 0 0 .6502 3.0243l.1733.4452a1.9475 1.9475 0 0 0 1.9168 1.2384l.6813-.0357a4.1392 4.1392 0 0 0 1.3933-.3202 4.1392 4.1392 0 0 1 1.3933-.3203l1.4328-.075a3.867 3.867 0 0 1 .8594.0509l.1196.0206-.0696.7293a9.2654 9.2654 0 0 1-.8826 3.155z" fill="#242221"/><path d="M119.9397 109.4999l.5933.1397a1.5572 1.5572 0 0 0 1.1828-.1956.7348.7348 0 0 0 .2764-.9332l-.823-1.767a2.4304 2.4304 0 0 1-.224-1.152 2.6156 2.6156 0 0 0 .076 1.2l.2953.9717c.086.283.1957.5582.3278.8228a.4671.4671 0 0 1-.1887.6157l-.0008.0005a1.9774 1.9774 0 0 1-.8324.2496l-.6827.0478z" fill="#EC9376"/><path d="M123.395 105.4108l-.4399-.1315a1.1554 1.1554 0 0 0-.3915-.0468.6776.6776 0 0 0-.3618.1278l-.499.3612.3433-.1748a.104.104 0 0 1 .151.0872.2696.2696 0 0 0 .1529.229l.0625.03a.4227.4227 0 0 0 .4029-.0205l.0613-.0374a.2687.2687 0 0 0 .1282-.2434.1601.1601 0 0 1 .1516-.1683l.2384-.0125zM119.5729 105.8302l-.4398-.1316a1.1554 1.1554 0 0 0-.3915-.0468.6776.6776 0 0 0-.3618.1278l-.499.3612.3433-.1748a.104.104 0 0 1 .151.0873.2696.2696 0 0 0 .1529.229l.0625.03a.4227.4227 0 0 0 .4029-.0206l.0613-.0374a.2687.2687 0 0 0 .1282-.2434.1601.1601 0 0 1 .1516-.1683l.2384-.0124z" fill="#242221"/><path d="M122.295 110.717l-.7313.1356a10.7845 10.7845 0 0 1-1.4008.1658 12.758 12.758 0 0 1-1.4115-.0042l-1.0055-.0587.7617.4653c.2043.1249.422.2263.649.3025.2276.0765.4537.1575.678.243l.1853.0707c.3345.1276.7057.119 1.0339-.024l.0788-.0343a1.9361 1.9361 0 0 0 .9097-.8174l.2528-.4442z" fill="#F8BCA6"/><path d="M119.9636 104.283a.2908.2908 0 0 1-.3126.305l-.528-.0403a5.5163 5.5163 0 0 0-1.25.0465l-.2825.043a6.9724 6.9724 0 0 1-.6829.0696l.5292-.3842c.2328-.169.5017-.282.7854-.33a4.5188 4.5188 0 0 1 .8688-.0618l.5245.0133a.3577.3577 0 0 1 .348.3388zM121.7021 103.9424a.2908.2908 0 0 0 .3692.2335l.5868-.1724a4.669 4.669 0 0 1 1.072-.183l.0521-.5425-.2283.0096a6.6772 6.6772 0 0 0-1.2748.1776l-.307.0735a.3577.3577 0 0 0-.27.4037z" fill="#242221"/></g></g></svg>