<svg width="340" height="339" xmlns="http://www.w3.org/2000/svg"><g fill="none" fill-rule="evenodd"><circle fill="#F6F8FF" cx="170" cy="169.4537" r="169.4"/><g transform="translate(59 50.6836)"><ellipse fill="#D6D9FC" cx="118.25" cy="216.7" rx="28.05" ry="11"/><ellipse fill="#D6D9FC" cx="186.3274" cy="199.4348" rx="28.05" ry="11"/><path d="M104.55 138.9901l2.857 23.167c.2951 2.3938.5122 4.7967.6506 7.2047l.7971 13.8602c.0827 1.4369.1933 2.872.3318 4.3045l.508 5.2537c.1963 2.0315.4488 4.0572.757 6.0747l1.756 11.4934c.1155.7567-.4042 1.4639-1.1609 1.5795a1.386 1.386 0 0 1-.2093.0159h-6.0168c-.717 0-1.2983.5812-1.2983 1.2982 0 .1954.0441.3882.129.5642a5.2283 5.2283 0 0 0 2.8283 2.6062l5.0885 1.9614a11.4957 11.4957 0 0 0 4.1346.7693c1.1813 0 2.139-.9576 2.139-2.1389v-13.7619a55.44 55.44 0 0 1 .129-3.7806l.9363-13.6987a97.0204 97.0204 0 0 0 .2259-6.6162v-2.6093c0-3.942.2936-7.8787.8783-11.7771l1.3083-8.7216.5245 8.26a97.02 97.02 0 0 0 2.0794 14.7352l2.6105 11.843 3.0422 14.4011-.603 1.6042h-6.6634c-.5884 0-1.0654.477-1.0654 1.0654 0 .334.1566.6486.423.85a13.2987 13.2987 0 0 0 5.6612 2.4783l1.498.2698a24.6002 24.6002 0 0 1 4.3112 1.1894c.803.3025 1.6992-.1033 2.0016-.9063.066-.175.0997-.3606.0997-.5477v-21.504a18.401 18.401 0 0 0-1.3-6.7936 16.0179 16.0179 0 0 1-1.1078-6.7885l.6228-11.3901c.1379-2.5203.2068-5.044.2068-7.568v-8.2067c0-7.567-.8807-15.1084-2.6244-22.4717l-15.794 3.467h-7.3924l-3.3 8.9646z" fill="#8E94FF"/><path d="M172.717 196.1002h7.1178l.6107-.8405-.2751.8554c-.3833 1.1916.127 2.4882 1.2196 3.0989a4.764 4.764 0 0 0 3.9083.3346l.7833-.2761v1.888a2.7848 2.7848 0 0 1-1.0428 2.1726 2.4108 2.4108 0 0 1-2.3043.3946l-7.0208-2.4568a7.3605 7.3605 0 0 1-3.272-2.2943l-.8335-1.0215a1.0348 1.0348 0 0 1-.064-1.221c.2591-.3956.7-.634 1.1729-.634zM190.1153 190.4182h7.1177l.6108-.8405-.2752.8555c-.3832 1.1916.127 2.4881 1.2196 3.0989a4.764 4.764 0 0 0 3.9083.3346l.7834-.2762v1.888a2.7848 2.7848 0 0 1-1.0428 2.1727 2.4108 2.4108 0 0 1-2.3043.3946l-7.0209-2.4568a7.3605 7.3605 0 0 1-3.272-2.2944l-.8334-1.0215a1.0348 1.0348 0 0 1-.064-1.221c.259-.3955.7-.6339 1.1728-.6339z" fill="#1E1E1E"/><path d="M180.1618 192.8512l.9343.5781c1.6869 1.0438 3.9006.5225 4.9444-1.1644a3.5909 3.5909 0 0 0 .0516-.086v7.1428a4.3037 4.3037 0 0 1-2.7495.5292l-.6103-.0867a3.5262 3.5262 0 0 1-2.091-1.0953l-.251-.271a1.8217 1.8217 0 0 1-.463-1.5205c.4172-1.312.5438-1.7261.517-2.1147-.0268-.3886-.121-1.0258-.2825-1.9115zM197.354 187.4306l1.1002.6575c1.7294 1.0335 3.9692.4693 5.0026-1.26.0078-.013.0155-.0261.023-.0392v7.1428a4.3037 4.3037 0 0 1-2.7494.5292l-.4136-.0588a3.886 3.886 0 0 1-2.388-1.3002l-.4151-.4783a1.8464 1.8464 0 0 1-.4388-1.4298c.4759-.9833.6518-1.2632.625-1.6518-.0269-.3886-.1422-1.0924-.346-2.1114z" fill="#E1B38D"/><path d="M121.3831 155.9877l2.3796 5.7886a30.5237 30.5237 0 0 1 2.1906 9.1147 83.1642 83.1642 0 0 0 1.3091 9.3804l.5367 2.7078a58.8931 58.8931 0 0 1 1.1235 11.4486v1.799c0 2.626.5357 5.2244 1.5743 7.6363l-1.4133-.7516-5.4826-25.8336-1.3535-8.9031-.8644-12.3871z" fill="#A3A8FF"/><path d="M197.3693 187.4391l.0949.6347a5.9997 5.9997 0 0 1-.4311 3.2776c-.1035.6542.125 1.2283.6852 1.7223.5602.4941.9243.7411 1.0924.7411a17.3086 17.3086 0 0 0 .0223-4.93l-.0923-.6621-1.3714-.7836z" fill="#F3C59E"/><path d="M104.4761 211.7502h7.1177l.6108-.8405-.2752.8555c-.3832 1.1916.127 2.4881 1.2196 3.0989a4.764 4.764 0 0 0 3.9083.3346l.7834-.2762v1.888a2.7848 2.7848 0 0 1-1.0428 2.1727 2.4108 2.4108 0 0 1-2.3043.3946l-7.0209-2.4568a7.3605 7.3605 0 0 1-3.272-2.2943l-.8334-1.0216a1.0348 1.0348 0 0 1-.064-1.221c.259-.3955.7-.6339 1.1728-.6339zM121.8744 206.0683h7.1177l.6107-.8405-.2751.8555c-.3833 1.1915.127 2.488 1.2196 3.0988a4.764 4.764 0 0 0 3.9083.3346l.7833-.2761v1.888a2.7848 2.7848 0 0 1-1.0428 2.1726 2.4108 2.4108 0 0 1-2.3043.3947l-7.0208-2.4569a7.3605 7.3605 0 0 1-3.272-2.2943l-.8335-1.0215a1.0348 1.0348 0 0 1-.0639-1.221c.259-.3956.7-.6339 1.1728-.6339z" fill="#1E1E1E"/><path d="M111.9208 208.5013l.9343.578c1.687 1.044 3.9006.5226 4.9445-1.1643a3.5922 3.5922 0 0 0 .0515-.086v7.1428a4.3037 4.3037 0 0 1-2.7495.5292l-.6103-.0868a3.5262 3.5262 0 0 1-2.091-1.0952l-.251-.271a1.8217 1.8217 0 0 1-.463-1.5205c.4172-1.312.5439-1.7261.517-2.1147-.0268-.3886-.121-1.0258-.2825-1.9115zM129.113 203.0807l1.1002.6575c1.7294 1.0335 3.9692.4693 5.0027-1.2601l.023-.0391v7.1428a4.3037 4.3037 0 0 1-2.7495.5292l-.4135-.0588a3.886 3.886 0 0 1-2.388-1.3002l-.4151-.4783a1.8464 1.8464 0 0 1-.4389-1.4299c.476-.9832.6518-1.2631.625-1.6517-.0268-.3886-.1421-1.0924-.346-2.1114z" fill="#E1B38D"/><path d="M129.1284 203.0892l.0948.6347a5.9997 5.9997 0 0 1-.4311 3.2776c-.1034.6541.125 1.2283.6852 1.7223.5603.494.9244.7411 1.0924.7411a17.3086 17.3086 0 0 0 .0223-4.93l-.0922-.6622-1.3714-.7835zM112.0247 208.4985l.0948.6347a5.9997 5.9997 0 0 1-.431 3.2776c-.1035.6542.1249 1.2283.6851 1.7224.5603.494.9244.741 1.0924.741a17.3086 17.3086 0 0 0 .0223-4.93l-.0922-.6621-1.3714-.7836z" fill="#F3C59E"/><path fill="#A3A8FF" d="M54.0521 121.7283l53.7276 20.206-53.7276 20.206-53.7275-20.206z"/><path fill="#8E94FF" d="M9.6823 138.227l54.105 20.0874 1.6552-.663-54.2497-19.9946zM20.724 134.0935l54.1051 20.0875 1.6551-.663-54.2496-19.9947zM32.3631 129.6588l54.105 20.0875 1.6552-.663-54.2497-19.9946zM43.547 125.4247l54.1051 20.0875 1.6551-.663-54.2496-19.9947z"/><path d="M68.086 54.7163l1.8495 19.882a123.2 123.2 0 0 1-.6987 28.765l-4.2654 29.9803h-7.094V74.974l-7.9902 54.0383-1.9716 9.2144h-6.7352l1.1181-38.9737V76.0122c0-7.1588.7597-14.2974 2.2664-21.2959h23.521z" fill="#EDE2D7"/><path fill="#D8D8D8" d="M64.0457 4.922v8.9715l-5.4569 7.688-6.0299-5.0704V8.6983z"/><path d="M58.5076 20.5528l5.0473 1.4388a15.4 15.4 0 0 1 3.204 1.3186l1.0722.5901a5.7696 5.7696 0 0 1 2.9477 4.3776l1.5354 12.9948a57.5833 57.5833 0 0 1 .3978 6.7569c0 2.2466.3476 4.4796 1.0305 6.62l4.276 13.4019-4.171.985-6.218-13.1682c-15.5744 1.1716-23.3616 1.1716-23.3616 0 0-.4152 1.1924-6.0992 0-7.483-2.111-2.4497-6.3122-1.2898-7.1661-6.8214-.7051-4.5675 2.396-14.2822 3.0544-16.2328.4389-1.3004 4.5942-3.744 12.4659-7.3308l5.8855 2.5525z" fill="#FFC85B"/><g fill-rule="nonzero"><path d="M59.9204 11.1398l.133-.653a1.1973 1.1973 0 0 1 1.022-.9485l.1179-.015a.95.95 0 0 1 1.0646.8407 2.7523 2.7523 0 0 1-.4185 1.7788l-1.9572 3.057-4.689 5.5595 8.933 2.3312 3.1146.5189-1.853-8.1713a26.3609 26.3609 0 0 1-.6527-5.8298v-.2957c0-1.7465-.4063-3.469-1.1867-5.0314l-.1184-.237a6.2376 6.2376 0 0 0-3.2925-3.0156 6.4763 6.4763 0 0 0-4.4846-.0981l-.2848.0981a6.1234 6.1234 0 0 0-3.62 3.345l-.4575 1.051 1.5832 1.0864a8.5629 8.5629 0 0 0 3.2644 1.3553l.0518.0098a3.5584 3.5584 0 0 1 2.5166 1.8873l.7069 1.3932a.3113.3113 0 0 0 .2776.1704.234.234 0 0 0 .2293-.1872z" fill="#242221"/><path d="M64.2659 8.8936v.52c0 2.2662-.3573 4.5183-1.0586 6.6733l-.1137.3495-.1695.5208a2.8001 2.8001 0 0 1-1.3129 1.5868 2.3443 2.3443 0 0 1-1.9987.1234l-1.6475-.6572v3.4683c-.4176 2.3047-2.6246 3.8344-4.9293 3.4167a4.241 4.241 0 0 1-1.4594-.5569l-2.086-1.278 4.042-9.5616-2.226-4.017.3915-3.4888 1.8344-3.0587 1.3097-.6183a8.9067 8.9067 0 0 1 3.8024-.8525c1.262 0 2.4557.5736 3.2443 1.559l.5648.7058a8.267 8.267 0 0 1 1.8125 5.1654z" fill="#E1B38D"/><path d="M63.105 15.5392a.3314.3314 0 0 1-.2715-.0396l-.0218-.014a.3757.3757 0 0 0-.3168-.042l-.1325.042a2.0373 2.0373 0 0 1-.6164.0955h-1.3658l.3859.272c.3177.2239.652.423 1.0003.5956l.0035.0017a2.4766 2.4766 0 0 0 1.0996.2575l.1146-.2112a1.9465 1.9465 0 0 0 .2161-.6534l.0281-.197a.0973.0973 0 0 0-.1234-.1071z" fill="#FF7283"/><path d="M61.933 14.093l.3714.1617a.9721.9721 0 0 0 1.0206-.153.7971.7971 0 0 0 .202-.9463l-.64-1.3527a2.4056 2.4056 0 0 1-.2297-1.1114 2.475 2.475 0 0 0 .0987 1.1556l.1345.4033c.1053.3158.242.6203.408.9088l.006.0106a.6272.6272 0 0 1-.107.7632.9335.9335 0 0 1-.8298.2456l-.4346-.0855z" fill="#937261"/><path d="M59.3064 10.6193l.2037-.2074c.5119-.5213 1.3495-.5289 1.8707-.017.0294.0289.0575.059.084.0906l-.0265-.0052a4.2007 4.2007 0 0 0-2.1319.139zM62.7637 10.319c.2055-.1725.3823-.305.5303-.3975.148-.0925.3006-.1117.4578-.0577l.1706.1121v.1939a.9596.9596 0 0 0-.5027-.0121l-.656.1612z" fill="#242221"/><g fill="#242221"><path d="M62.8647 11.2303l.3743-.3259a.5105.5105 0 0 1 .6813.0098l-.0578.2077a.5962.5962 0 0 0-.5965-.068l-.4013.1764z"/><g transform="rotate(19 -1.101 184.189)"><path d="M.1194.8426l.0744-.156a.7864.7864 0 0 1 1.113-.337l-.016.0022A2.4973 2.4973 0 0 0 .1194.8426z"/><ellipse cx=".7746" cy=".7032" rx="1" ry="1"/></g></g><path d="M63.3684 11.687c.189.0652.4218-.1127.487-.3018a.3621.3621 0 1 0-.6848-.2358c-.0651.1891.0087.4726.1978.5377zM54.7846 10.9409l-.1331-.6529a1.1973 1.1973 0 0 0-1.0219-.9485l-.118-.015a.95.95 0 0 0-1.0645.8406 2.7523 2.7523 0 0 0 .4185 1.7789l1.9572 3.0569.0125 10.1452-.1408-.0347a23.281 23.281 0 0 1-8.4383-4.0131l3.319-13.834a12.2418 12.2418 0 0 1 1.6286-3.798A6.5376 6.5376 0 0 1 54.2936.9376l.2739-.108a6.886 6.886 0 0 1 4.5131-.1866l.6192.1867a5.2278 5.2278 0 0 1 3.5866 3.8375l.128.5585-1.5832 1.0864a8.5629 8.5629 0 0 1-3.2644 1.3553l-.0518.0097a3.5584 3.5584 0 0 0-2.5166 1.8873l-.7069 1.3932a.3113.3113 0 0 1-.2776.1705.234.234 0 0 1-.2293-.1873z" fill="#242221"/></g><g transform="translate(53.5477 23.7232)"><circle fill="#242221" cx="5.2071" cy="3.0374" r="2.31"/><rect stroke="#979797" stroke-width="1.54" fill="#4D4D4D" transform="rotate(-22 6.4185 5.7906)" x="4.8785" y="5.7906" width="3.08" height="1" rx=".5"/><path d="M8.616 11.7262l.1377.1344a.2873.2873 0 0 0 .3778.0207.3172.3172 0 0 0 .0922-.3832l-.0456-.0984-.562.3265z" fill="#2D2D2D"/><path d="M5.3251 6.021l2.603 5.2897a.7243.7243 0 0 0 .9739.328.8375.8375 0 0 0 .419-1.0169L7.4395 5.0472 5.325 6.021z" fill="#242221"/><path d="M4.0676 16.701l2.1752-4.3854.1233-.0214a3.08 3.08 0 0 0 1.5045-.718l.536-.4695a2.5735 2.5735 0 0 0 .7985-2.5698l-.1388-.5462-.4831-1.6906-.5396-.7948-2.4732.9535A3.08 3.08 0 0 0 3.6202 8.966l-.2035 1.6978L.3996 14.479a6.534 6.534 0 0 0 2.8443 1.9384l.8237.2837z" fill="#E1B38D"/></g><path d="M42.4357 47.0855c3.2995 1.9302 7.4927 1.3422 10.134-1.4211l5.0234-5.2555-7.2722 9.1126a30.8 30.8 0 0 1-.7894.9496l-1.329 1.5348a4.4434 4.4434 0 0 0-.907 1.6664 21.6577 21.6577 0 0 0-.4585 1.8852l-.2005 1.0222h-.8776a2.3154 2.3154 0 0 1-1.536-.5828c.4383-4.04.6574-6.2413.6574-6.604 0-.3627-.8148-1.1318-2.4446-2.3074zM45.558 31.9274l-1.5445 5.8548c-.4105 1.5561.4463 3.166 1.9663 3.6947l2.0501.713 6.0222-4.1064-6.0222 2.4564c-1.8976-.765-3.0626-2.6907-2.8595-4.7267l.3876-3.8858zM65.632 28.5183l.0083.024a26.2468 26.2468 0 0 1 1.3483 10.7154 60.7774 60.7774 0 0 0 .0934 10.9903l.56 5.6354 1.2337 2.6989-.1734-13.8319a92.3994 92.3994 0 0 1-.0072-1.1582v-4.3306c0-3.2248-.7833-6.4014-2.2825-9.2566l-.7806-1.4867z" fill="#FFBA49"/><path d="M77.973 67.9558l.2678 1.7635a9.1468 9.1468 0 0 1-.6059 4.9053l-.8647 2.0654a.9216.9216 0 0 1-1.7219-.0567c-.5434-1.583 0-4.3201 0-4.3387 0-.0251-.3848-1.1248-1.1543-3.299l4.079-1.0398z" fill="#E1B38D"/><path d="M58.0782 133.3078h1.883l1.1425-38.1112V89.722a77 77 0 0 0-1.5112-15.1806l-.5548-2.7585-.9595 3.0552v58.4696z" fill="#E3D3C3"/><path fill="#F3C59E" d="M58.6018 133.329v4.6652l8.8212 4.0989h2.2603l-5.5407-5.4396v-3.3244zM42.0959 137.9881v4.6652l8.8211 4.0989h2.2604l-5.5408-5.4397v-3.3244z"/><path d="M58.653 137.185a6.9673 6.9673 0 0 0 4.579-.6l.8564-.433 4.9292 5.0108c.4363.4435.4304 1.1567-.013 1.593a1.1264 1.1264 0 0 1-.241.1804c-7.1704-1.182-10.1107-2.4327-10.1107-3.032v-2.7191zM42.147 141.8442a6.9673 6.9673 0 0 0 4.5791-.6002l.8564-.433 4.9292 5.0109c.4362.4435.4304 1.1566-.0131 1.5929a1.1264 1.1264 0 0 1-.2408.1805c-7.1705-1.182-10.1108-2.4328-10.1108-3.032v-2.7191z" fill="#1E1E1E"/><path fill="#D2D4FF" d="M.692 141.9385v3.8822l53.5123 20.4473v-3.9542z"/><path fill="#8E94FF" d="M107.0043 141.9385v3.8822L53.492 166.268v-3.9542z"/><path d="M180.2656 192.8485l.0949.6346a5.9997 5.9997 0 0 1-.4311 3.2776c-.1034.6542.125 1.2283.6852 1.7224.5602.494.9244.741 1.0924.741a17.3086 17.3086 0 0 0 .0223-4.93l-.0922-.6621-1.3715-.7835z" fill="#F3C59E"/><path d="M110.5048 85.4942l-1.4714 1.3212a18.5244 18.5244 0 0 0-5.8739 10.6094 56.0379 56.0379 0 0 0-.741 12.729l.2828 5.0597a77 77 0 0 1-.865 16.5757l-1.0768 6.668 2.4079 3.9942 5.3991-12.208a21.0983 21.0983 0 0 0 12.001-.0207l11.4717-3.4247-1.9558-6.2356 1.9558-1.6547a9.5084 9.5084 0 0 0 4.5194-8.0944v-3.3742a77 77 0 0 0-1.1041-12.9928l-.4255-2.4857c-.6774-3.9568-3.5508-7.1814-7.4036-8.3086l-3.8386 1.8422h-13.282z" fill="#C6ECD9"/><path d="M100.325 138.3747l-1.4144 6.6897c1.9932 3.4623 3.2946 5.1934 3.9042 5.1934.6095 0 .3138-1.7311-.8873-5.1934l.8873-3.3249-2.4898-3.3648zM109.6575 68.8879v8.466a7.7 7.7 0 0 0 2.6693 5.8294l1.2491 1.078 3.9034-7.0281c.7065-1.8686.4909-3.406-.647-4.6125-1.1379-1.2065-3.5295-2.4507-7.1748-3.7328z" fill="#E1B38D"/><path d="M110.088 67.4165l.6025-1.1101a5.3392 5.3392 0 0 1 4.6925-2.792h.9858a11.13 11.13 0 0 1 5.3969 1.396 7.5583 7.5583 0 0 1 3.469 4.1133l1.2801 3.6574 2.9217 11.41-.1882.1135a18.4665 18.4665 0 0 1-8.5561 2.627 31.8862 31.8862 0 0 1-9.093-.8257l-1.0782-.2573 3.6508-7.1826a4.5075 4.5075 0 0 1 1.3875-1.6178l.123-.0884a1.3257 1.3257 0 0 0 .496-1.4573 1.2705 1.2705 0 0 0-1.2169-.9055h-.081a4.0293 4.0293 0 0 1-1.9277-.491l-.7652-.417a5.0995 5.0995 0 0 1-2.334-2.6844l-.0055-.0149a4.1907 4.1907 0 0 1 .24-3.4732z" fill="#000"/><path d="M104.5021 139.3048l2.5744 20.015c.0308.2394.061.479.0906.7186.9046 8.6505.9424 9.8797.9774 10.6942.035.8145.1063 2.126.2141 3.9344l.306 5.559c.0812 1.4755.186 2.9498.3143 4.422l.562 6.4457c.2461 2.8225.5787 5.6367.9973 8.4388l1.3337 8.928.8714.6835c.222.174.4959.2687.778.2687l-.1998-9.488a138.6004 138.6004 0 0 0-.6193-10.4911l-.3778-3.8871a138.6004 138.6004 0 0 1-.4638-6.2244l-.6012-11.5855c-.024-.4612-.0456-.9226-.065-1.384l-.3429-8.189a138.6006 138.6006 0 0 1-.1073-7.7733l.1526-10.7147a39.4308 39.4308 0 0 1 1.1256-8.8088l-3.6638-.46-3.8565 8.898z" fill="#A3A8FF"/><path d="M108.5204 130.3282l1.1769-4.633a46.3938 46.3938 0 0 0 1.3508-14.0987l-.0937-1.6217a23.865 23.865 0 0 1 1.8309-10.639l.094 5.7611a64.6714 64.6714 0 0 0 .6077 7.8533 21.5847 21.5847 0 0 1-.3308 7.7557l-.0498.2195a37.1787 37.1787 0 0 0-.9242 8.238v1.861l-2.2606-.27-1.4012-.4262zM130.0979 120.4026l-1.0718-4.0715a15.4 15.4 0 0 1-.3357-6.2134l1.4075-9.3467.3513-3.6346.3308 10.948a52.7116 52.7116 0 0 1-.1235 5.534l-.1718 2.2909a77.0052 77.0052 0 0 1-.0768.9452l-.31 3.5481z" fill="#A2DCBF"/><path d="M108.6296 130.2709l-1.6253 3.0845 6.2392.8344c3.0364.406 6.123-.1711 8.8075-1.647a75.3089 75.3089 0 0 1 8.517-4.0106l.9146-.3627v-1.1933l-12.8419 3.9193h-7.2552l-2.7559-.6246z" fill="#8E94FF" style="mix-blend-mode:multiply" opacity=".2127"/><path d="M121.402 156.0294l.8778-8.5448v-8.8998c.5496.3016.956 1.4426 1.2195 3.4231.2634 1.9805.2634 3.8954 0 5.7447-.4645 4.0104-.7811 6.3484-.9498 7.0143-.8133 3.2095-1.515 1.2625-1.1474 1.2625z" fill="#8187FF"/><path d="M171.509 123.507v28.2156c0 9.2576.7255 18.501 2.1698 27.6452l2.398 15.1823a7.0333 7.0333 0 0 0 1.1614 2.9018 3.0564 3.0564 0 0 0 2.5142 1.3185h2.5516a6.1407 6.1407 0 0 0 3.802-1.3185 4.792 4.792 0 0 0 1.8143-3.4435l1.3499-20.195 3.0926 10.8223a19.827 19.827 0 0 0 3.0621 6.2591 5.7075 5.7075 0 0 0 5.5772 2.2543l.6445-.1112c2.4482-.4226 4.3233-2.4111 4.6015-4.88l.5199-4.6133a33.0866 33.0866 0 0 0-.8432-11.979l-3.0537-11.8233a29.312 29.312 0 0 1-.5663-11.9413l.5663-3.555a99.8534 99.8534 0 0 0 1.1793-19.2843l-.2254-6.2912-8.9565 4.8365-7.0902 3.6222-11.4515-2.6446-4.8177-.9776z" fill="#DAE1F0"/><path d="M171.3752 125.6176l.689 3.0586 3.9162 1.5371a26.0993 26.0993 0 0 0 9.5355 1.8043 35.038 35.038 0 0 0 9.6846-1.365l4.2498-1.2223c2.7456-.7896 4.6368-3.3014 4.6368-6.1584v-3.332l-12.2622 5.6777h-20.4497z" fill="#DAE1F0" style="mix-blend-mode:multiply" opacity=".3057"/><path d="M181.3702 67.2517l-3.8671 1.8751a20.2598 20.2598 0 0 0-10.2456 11.4314 64.518 64.518 0 0 0-3.4995 16.0755l-.5746 6.626-2.2297.8271a2.8532 2.8532 0 0 0-1.8609 2.6751 4.285 4.285 0 0 0 1.5139 3.2683l1.177.998a7.785 7.785 0 0 0 6.1803 1.7622l3.3533-.499v12.6148l5.1235 1.516a34.1209 34.1209 0 0 0 15.1956.9536 17.6841 17.6841 0 0 0 11.9655-7.8085l.184-.2827-1.531-16.025c3.9662-2.8648 6.1314-7.606 5.6993-12.4794l-1.022-11.5255a12.887 12.887 0 0 0-3.1553-7.3676l-.0677-.077a29.7188 29.7188 0 0 0-6.168-5.3274l-.0182-.0117a10.0791 10.0791 0 0 0-7.4482-1.4259 86.1502 86.1502 0 0 0-7.9333 1.9752l-.7713.2314z" fill="#D8E5FF"/><path d="M179.8787 45.6732a12.5257 12.5257 0 0 0-2.6168 7.662v5.2367c0 1.4759.3474 2.931 1.0142 4.2478a3.6532 3.6532 0 0 0 3.2591 2.0028h.1154v2.1893l9.9961-2.1893-1.1324-3.3432-.7693-10.5194-5.9073-4.5644-3.959-.7223z" fill="#E1B38D"/><path d="M179.2418 46.2865l.5076.6113a4.4448 4.4448 0 0 1 1.0252 2.8396v.5207c0 .7133-.1632 1.417-.4772 2.0575a3.2944 3.2944 0 0 0-.283 2.04l.2386 1.3114v.5712l.6078-1.6063a1.1553 1.1553 0 0 1 1.0806-.7465c.4589 0 .849.3354.9177.789l.0588.3874a2.2126 2.2126 0 0 1-.7047 1.9738l-.15.1355-.92 1.1598.939 1.7867a7.2334 7.2334 0 0 0 4.2603 3.544c1.6505.5119 3.4284-.2512 4.1944-1.8003l.0347-.0703 1.1615-2.256c.0515-.1.1027-.2.1537-.3001l.857-1.6828a6.1442 6.1442 0 0 0 .6693-2.7885v-2.949c0-.9768-.154-1.9475-.4561-2.8765l-.576-1.7704a4.083 4.083 0 0 0-2.2649-2.4857l-.6326-.273a5.597 5.597 0 0 0-2.2176-.4581h-2.2706a14.389 14.389 0 0 0-2.2155.1716l-.2677.0417a4.2315 4.2315 0 0 0-2.3465 1.1948l-.9238.9275z" fill="#000"/><path d="M188.675 169.738l1.6378-22.0386.0773-.7834a49.8816 49.8816 0 0 1 3.023-12.8487v-3.6605 3.5188c0 2.7792-.5224 5.5337-1.54 8.12l-.9777 16.0533a92.4005 92.4005 0 0 1-.481 5.3386l-1.2628 10.576-.4766-4.2754z" fill="#D3DCEF"/><path d="M189.1764 168.5432a17.3682 17.3682 0 0 1-4.261 3.875l-.6726.4325a6.5759 6.5759 0 0 0 4.325-1.6224l.6086-.5313v-2.1538z" fill="#D3DCEF"/><path d="M189.2426 169.1863l-.5573 1.3365a41.2708 41.2708 0 0 0-1.9757 5.9924c1.3449-.3349 2.1892-1.1745 2.533-2.5187.3437-1.3442.3437-2.9476 0-4.8102z" fill="#D3DCEF"/><path d="M171.7016 124.8891V167.2745l4.5015 26.8173 1.428 3.7334 2.0024 1.073c1.074.7154 1.611.7154 1.611 0 0-.2191-.0883-.544-.265-.9746a61.6 61.6 0 0 1-4.0057-14.751l-2.2528-15.8981V149.752l1.4821-23.6474-4.5015-1.2156z" fill="#FFF" opacity=".3824"/><path d="M189.4367 174.1612l2.7244 9.072 1.6513 4.9576 2.5596 3.724 3.024.9396h2.3664l-3.8937-4.493a6.1268 6.1268 0 0 1-1.4967-4.0125 5.3921 5.3921 0 0 0-1.6422-3.8747l-.178-.1723a8.2227 8.2227 0 0 1-2.3338-4.2422l-.0815-.3937a6.2312 6.2312 0 0 0-2.6998-3.9576v2.4528z" fill="#F0F3FA"/><path fill="#EEF4FF" d="M159.559 105.1064l4.1249-6.6097v4.641zM176.0557 126.0509V110.4129l-4.6805 1.9239v12.6843z"/><path d="M176.1012 110.034l.9715-2.4187a21.995 21.995 0 0 0 1.4885-10.252 47.2125 47.2125 0 0 1 .2-10.5901l.2978-2.256 1.1987 1.7975.3485 1.3108a19.2848 19.2848 0 0 1 .5936 6.3999l-.0412.5496a32.7185 32.7185 0 0 0 .0412 5.3976 8.7347 8.7347 0 0 1-1.0805 5.0591l-2.0558 3.6664-1.298 1.3358M202.1827 103.4085l-.9601-7.9886a28.511 28.511 0 0 1-.138-5.3387l.458-6.727.6401-3.3725 1.0858 8.864v3.9113l1.0411 8.661-2.1269 1.9905z" fill="#A8C1F3"/></g><path d="M121.251 86.0781v6.9608a50 50 0 0 1-.1672 4.0853l-.533 6.5018a38.7068 38.7068 0 0 1-4.9402 15.9883l-4.4195 7.7625a34.0086 34.0086 0 0 0-2.5842 27.9484l.6549 1.8922a30.3574 30.3574 0 0 1-2.0245 24.4408l-2.9568 5.4323c-1.8688 3.4335-.6004 7.7318 2.833 9.6006.041.0223.0823.0442.1238.0657 1.124.5833 1.5625 1.9674.9792 3.0915a2.293 2.293 0 0 1-1.7235 1.2156l-3.3973.4664a36.5927 36.5927 0 0 1-20.2294-2.9904l-7.8525-3.6009c-1.0515-.4821-1.513-1.7253-1.0308-2.7768a2.0944 2.0944 0 0 1 .687-.8316c1.169-.8346 1.4403-2.459.6057-3.628a2.601 2.601 0 0 0-.5908-.595l-.015-.011c-1.6396-1.188-3.9266-.8579-5.1633.7455l-1.07 1.3874" stroke="#242221" stroke-width=".4"/></g></svg>