<svg width="339" height="339" xmlns="http://www.w3.org/2000/svg"><defs><linearGradient x1="-34.6314%" y1="103.8862%" x2="-16.5632%" y2="14.3166%" id="a"><stop stop-color="#FFBA49" offset="0%"/><stop stop-color="#FFBA49" stop-opacity="0" offset="100%"/></linearGradient></defs><g fill="none" fill-rule="evenodd"><circle fill="#F6F8FF" cx="169.4" cy="169.5242" r="169"/><g transform="translate(60.3965 64.0242)"><path d="M106.5323 3.3647v107.3642c0 1.4982 1.0257 2.8015 2.4818 3.1538l65.7658 15.9119c1.7418.4214 3.4954-.649 3.9169-2.3908.0604-.2498.091-.506.091-.763V20.1749c0-1.4825-1.0049-2.7765-2.4413-3.1437L110.5807.221c-1.7362-.4438-3.5035.6039-3.9473 2.3401a3.2448 3.2448 0 0 0-.101.8036z" fill="#F6F8FF" style="mix-blend-mode:multiply"/><path d="M102.0381 7.3713v96.5483c0 1.498 1.0257 2.8015 2.4818 3.1538l65.7658 15.9118c1.7418.4214 3.4954-.649 3.9168-2.3907.0605-.2499.091-.506.091-.763v-95.65c0-1.4825-1.0048-2.7765-2.4412-3.1437L106.0865 4.2276c-1.7362-.4438-3.5035.604-3.9473 2.3401a3.2448 3.2448 0 0 0-.101.8036z" fill="#FFF"/><path fill="#E9EAFF" d="M119.136 19.6246v19.651l38.3422 9.2768V29.425z"/><path d="M119.4872 81.7503v4.5771c0 1.2484.8547 2.3346 2.0681 2.6282l32.9342 7.9683c1.4515.3512 2.9129-.5408 3.264-1.9923a2.704 2.704 0 0 0 .0759-.6358v-4.1273a2.704 2.704 0 0 0-2.0344-2.6198l-32.9342-8.4182c-1.4468-.3698-2.9196.5033-3.2894 1.9501a2.704 2.704 0 0 0-.0842.6697z" fill="#5CCA94"/><ellipse fill="#6873FF" style="mix-blend-mode:multiply" opacity=".1458" cx="68.0263" cy="199.1329" rx="28.3433" ry="11.4723"/><path d="M57.7168 104.019l-2.5255 11.007a64.896 64.896 0 0 0-1.6173 16.36l.4913 17.2569-3.268 9.7753a81.12 81.12 0 0 0-3.2092 13.1712l-1.8128 11.5767c-.149.9519-.3102 1.9018-.4834 2.8495l-2.741 14.9958c-.161.8815.4229 1.7266 1.3043 1.8877.2488.0455.5048.0321.7476-.039l12.7428-3.7303c.8599-.2518 1.353-1.153 1.1012-2.0129a1.6224 1.6224 0 0 0-1.271-1.1411l-1.488-.2667-4.68-2.7465c-.7395-.434-1.0136-1.3686-.6256-2.1333l3.6831-7.2589 8.9824-25.2044a64.896 64.896 0 0 0 3.5644-16.6738l.869-10.9971 5.828 16.3048-1.2974 12.9525a64.896 64.896 0 0 0 .3612 15.8685l2.3963 16.3693v4.6914c0 1.792 1.4527 3.2448 3.2448 3.2448.3396 0 .6771-.0533 1.0002-.158l10.2827-3.332a.8707.8707 0 0 0-.0529-1.672l-2.823-.7212a3.2442 3.2442 0 0 1-.1813-.052l-6.284-2.001 3.1417-24.2813 1.3498-14.6787a64.896 64.896 0 0 0 .2726-5.9424v-40.5517l-17.2388 6.3122-9.7642-9.0294z" fill="#E1B38D"/><path d="M56.237 109.051l-.1463.425a71.2802 71.2802 0 0 0-3.8103 26.341l.1745 3.9505a46.672 46.672 0 0 1-2.9665 18.5543 69.2764 69.2764 0 0 0-4.2144 18.5281l-1.132 13.1194a5.9132 5.9132 0 0 0 .8927 3.6674c.6227.9853 1.8432 1.41 2.943 1.024l.3612-.1268a4.959 4.959 0 0 0 3.0326-3.0244l11.1583-31.5218a81.12 81.12 0 0 0 3.8912-16.0014l1.424-10.3388 2.3365 7.122a41.3345 41.3345 0 0 1 1.7955 17.5523l-.1207 1.0622a81.12 81.12 0 0 0-.2428 15.844l1.1955 14.458a6.6929 6.6929 0 0 0 1.718 3.9507c.8686.9553 2.32 1.096 3.3559.3253l.4371-.3253a6.534 6.534 0 0 0 2.5895-4.4844l3.249-27.829a97.344 97.344 0 0 1 .8182-5.5926l.2049-1.1635a38.081 38.081 0 0 0 .553-7.954l-1.2482-35.181H65.2917l-9.0547-2.3813z" fill="#FFCA5F" fill-rule="nonzero"/><path d="M89.1944 36.2252l.1861.489a32.6735 32.6735 0 0 1 1.948 8.102v6.3381a.2266.2266 0 0 1-.2265.2266c-.1506 0-.3008.016-.448.0477l-2.375.5121c-1.5149.3267-2.5964 1.6663-2.5964 3.216v7.7255l-11.554-1.6873V46.9212l7.3475-13.5084 7.7183 2.8124z" fill="#E1B38D" fill-rule="nonzero"/><ellipse fill="#1E1E1E" fill-rule="nonzero" transform="rotate(-15 90.1953 42.1576)" cx="89.7897" cy="42.1576" rx="1" ry="1"/><path d="M115.5867 37.669c2.071-3.1979 3.8384-5.915 5.3023-8.1514.2583-.3947 1.2456-1.8393 2.9618-4.334l1.2527-.5317a.5899.5899 0 0 1 .7844.746l-1.4193 3.8718 2.8654 1.3762c1.2433.5971 1.7671 2.089 1.17 3.3323l-.3469.7223a4.3964 4.3964 0 0 1-2.3052 2.1684 7.9457 7.9457 0 0 0-2.7438 1.8649l-2.4233 2.5316-5.098-3.5963z" fill="#E1B38D" fill-rule="nonzero"/><path fill="#EDEEF4" fill-rule="nonzero" d="M119.4872 50.4892v2.498l37.2764 9.8113v-2.9007zM119.4872 56.7414v2.498l37.2764 9.8113V66.15zM119.4872 63.089v2.498l37.2764 9.8112v-2.9007z"/><path d="M69.9133 59.5463l-3.1295 1.517a16.224 16.224 0 0 0-7.6162 7.7184l-6.07 12.961c-2.8975 6.1866-1.609 13.5253 3.2223 18.355l3.52 3.5188 12.614-12.6782-5.8535-13.9417 3.313-17.4503z" fill="#D8E5FF" fill-rule="nonzero"/><path d="M57.0647 101.1433l3.3458-9.3678 3.11-9.9307L62 73.4172c-.9537 1.6664-1.5632 3.3089-1.8286 4.9274-.2654 1.6186-.4374 3.7733-.5162 6.464-.746 3.2466-1.4629 5.5689-2.1508 6.967-.688 1.398-1.8549 3.1744-3.5008 5.3294l3.061 4.0383z" fill="#B4CCFC" fill-rule="nonzero"/><path d="M55.2804 112.194l-.9612 3.3601 2.2224 1.4137a28.0231 28.0231 0 0 0 16.9849 4.311l4.8899-.34a7.557 7.557 0 0 0 6.2396-4.1687L73.755 117.977h-8.186l-10.2885-5.783z" fill="#FFBA49" fill-rule="nonzero"/><path d="M66.1786 62.6155l-.9724 1.5466a25.2069 25.2069 0 0 0-3.8672 13.4166v.0653a50.338 50.338 0 0 1-2.091 14.3573l-5.9824 20.1037 5.318 3.3628a22.8882 22.8882 0 0 0 17.8146 2.852l7.8904-1.9843a2.704 2.704 0 0 0 1.9834-2.0506l6.9746-32.2375a8.112 8.112 0 0 1 2.7707-4.5457l7.8179-6.4404a43.2349 43.2349 0 0 0 12.286-16.4252l3.184-7.4744a146.0177 146.0177 0 0 1 1.981-4.4434l2.133-4.5777c.7637-1.639.0541-3.5868-1.5849-4.3505a3.274 3.274 0 0 0-.2808-.1153c-1.977-.7066-4.1795.0538-5.2993 1.8297l-6.0835 9.647a29.7227 29.7227 0 0 1-12.4443 11.0202l-3.257 1.5389a22.5295 22.5295 0 0 1-9.6242 2.159c-3.3633 0-6.7204-.2889-10.0343-.8635l-.3788-.0657c-3.2419-.5621-6.5022.8896-8.2535 3.6751z" fill="#D8E5FF"/><path d="M43.7485 194.8526l-.292 1.5727a81.12 81.12 0 0 0-.5146 3.1066l-.2006 1.376a1.5467 1.5467 0 0 0 .7604 1.5644 2.5211 2.5211 0 0 0 1.9261.2438l12.1054-3.3415a1.6613 1.6613 0 0 0 1.2193-1.6014 1.6302 1.6302 0 0 0-1.2252-1.5791l-2.1865-.5608-4.0312-2.4931c-.2455 1.1586-.721 1.9896-1.4266 2.493-.553.3946-2.0467.7599-4.4813 1.0959-.8206.1132-1.5776-.4602-1.6909-1.2808a1.4999 1.4999 0 0 1 .0377-.5957zM74.823 193.8809c0 .5827-.0392 1.1647-.1173 1.7422l-.4232 3.1264a2.551 2.551 0 0 0 .5948 2.0067 1.7753 1.7753 0 0 0 1.8492.544l12.3521-3.6556a1.6934 1.6934 0 0 0 1.2129-1.6238 1.6302 1.6302 0 0 0-1.2252-1.5791l-2.1865-.5608-5.7886-1.4408c.3258 1.0404.136 1.8123-.5697 2.3158-.4486.3201-1.4733.7775-3.074 1.3723h-.0001c-1.023.38-2.1605-.1412-2.5405-1.1642a1.976 1.976 0 0 1-.0839-1.0831z" fill="#06063A" fill-rule="nonzero"/><path d="M67.9132 132.5903l-.6788 2.2107a94.6399 94.6399 0 0 0-2.0923 8.0646l-.5551 2.6067a85.477 85.477 0 0 1-3.8915 13.059l-1.4599 3.7705a94.64 94.64 0 0 0-3.4801 10.9058l-4.2591 16.7939 6.6307-17.5004c.327-.8628.6412-1.7304.9427-2.6024l2.8386-8.2086a94.64 94.64 0 0 0 4.123-16.7143l1.8818-12.3855z" fill="#FFCA5F" fill-rule="nonzero" style="mix-blend-mode:multiply" opacity=".3724"/><path d="M79.3814 192.4355a13.6124 13.6124 0 0 0 1.9241-5.5834l3.2012-28.1559a82.1802 82.1802 0 0 1 .8897-5.905 27.034 27.034 0 0 0 .4499-5.9226l-.9228-26.9246a135.1999 135.1999 0 0 1-.0793-4.631v-1.6817H82.665c-1.5136 1.5415-2.0807 6.1529-1.7012 13.8342.3794 7.6814.9465 14.6544 1.7012 20.919l-.8506 5.4625a107.5384 107.5384 0 0 0-1.1366 10.9834l-1.1474 22.1513a13.8447 13.8447 0 0 1-1.4323 5.4538h1.2833z" fill="url(#a)" fill-rule="nonzero"/><path d="M73.448 119.0561l2.0532-.175a36.0822 36.0822 0 0 0 6.605-1.1892l.7472-.2078a5.4465 5.4465 0 0 0 3.5349-3.0745l6.9508-33.598-2.342 5.0424a57.2108 57.2108 0 0 0-3.3324 9.1381l-.3313 1.223a59.7245 59.7245 0 0 0-1.4627 7.065l-.1323.9142a10.0522 10.0522 0 0 1-2.0488 4.7766l-.244.31a48.5997 48.5997 0 0 1-3.003 3.4665 11.4584 11.4584 0 0 1-3.685 2.5862l-.604.2656a30.5241 30.5241 0 0 0-5.1328 2.8762l-.8357.5807h3.2628z" fill="#B4CCFC" fill-rule="nonzero"/><path d="M88.9777 42.2643a.8992.8992 0 0 1 1.315-.7972h.0002a2.9526 2.9526 0 0 0-1.253.7356l-.0622.0616z" fill="#1E1E1E" fill-rule="nonzero"/><path d="M90.1603 35.9837l.0133-.0065a3.1506 3.1506 0 0 0 1.295-1.1757 3.212 3.212 0 0 0 .4776-1.6853v-.272a.8816.8816 0 0 0-1.1332-.8448l-.1751.0521a6.405 6.405 0 0 1-2.6617.2118l-1.6122-.2118a45.7433 45.7433 0 0 0-5.9566-.3895h-1.6716c-1.265 0-2.495.4154-3.501 1.1823a8.8167 8.8167 0 0 0-2.4585 2.9083l-.131.2492a38.8013 38.8013 0 0 0-1.687 3.6574 6.1033 6.1033 0 0 0-.234 3.8223l.555 2.1034a8.8733 8.8733 0 0 0 1.416 2.9723 6.2243 6.2243 0 0 1 1.1648 3.0185l.0399.3771a4.9058 4.9058 0 0 0 1.8235 3.3226l1.0622.8454 1.84-1.0726a4.7318 4.7318 0 0 0 2.2437-3.0954l.0705-.3286a5.1048 5.1048 0 0 1 1.7116-2.841l.2935-.2461a1.8758 1.8758 0 0 0 .5307-2.1486l-.1385-.3381a1.9984 1.9984 0 0 1 .1385-1.7905.832.832 0 0 1 1.2678-.1894l1.1705 1.0498v-4.2075a4.0583 4.0583 0 0 1 1.7078-3.3084l.9537-.6775c.502-.3567 1.032-.672 1.5848-.9432z" fill="#242221" fill-rule="nonzero"/><path d="M85.844 40.9253l1.3074 3.0485.3556.4854c.8794 1.2005 2.5453 1.5012 3.7889.6839l.0436.045a1.6775 1.6775 0 0 1 .3558 1.786 2.9775 2.9775 0 0 0-.057 2.037l.305.9163c.2518.757-.1576 1.5747-.9145 1.8265-.147.049-.301.074-.456.074h-1.051a4.1862 4.1862 0 0 1-1.8101-.4117l-.0134-.0064a3.2905 3.2905 0 0 1-1.3496-1.1947 3.2058 3.2058 0 0 1-.5047-1.7267v-1.6537l-1.073-3.2942 1.073-2.6152z" fill="#242221" fill-rule="nonzero"/><path fill="#6E76FF" fill-rule="nonzero" d="M163.4997 184.5226l-5.6703 12.16 14.1981-.7813z"/><path fill="#6EA1FF" fill-rule="nonzero" d="M110.5304 130.4525L98.18 135.6949l11.074 8.9198z"/><path fill="#FFCA5F" fill-rule="nonzero" d="M222.9346 61.9143l-10.427-8.4436-2.6767 13.9654z"/><path fill="#F0C6DA" fill-rule="nonzero" d="M.6459 68.4832l12.4743 8.8012V62.7346z"/></g></g></svg>