<svg width="1280" height="609" xmlns="http://www.w3.org/2000/svg" xmlns:xlink="http://www.w3.org/1999/xlink"><defs><path id="a" d="M0 0h1280v609H0z"/></defs><g fill="none" fill-rule="evenodd"><mask id="b" fill="#fff"><use xlink:href="#a"/></mask><use fill="#D8D8D8" xlink:href="#a"/><g mask="url(#b)" fill="#6E76FF"><path d="M0 0v607.8885c227.968 1.082 446.4258 1.082 655.3732 0 208.9473-1.082 417.1563-1.082 624.6268 0V0H0z"/><path d="M317.767 369.6936L15.4023 450.712c-50.3942 13.503-102.2027-16.4087-115.7058-66.8028-13.503-50.3941 16.4086-102.2026 66.8028-115.7057L344.325 166.9654c4.8901-2.2698 10.0422-4.1506 15.4283-5.5938 50.3941-13.503 102.2027 16.4086 115.7057 66.8027l105.47 393.619c13.503 50.3941-16.4087 102.2027-66.8028 115.7057-50.3941 13.5031-102.2027-16.4086-115.7057-66.8027L317.767 369.6936zM1090.6843 228.5458l302.3648-81.0184c50.394-13.5031 102.2026 16.4086 115.7057 66.8027 13.503 50.3941-16.4086 102.2026-66.8027 115.7057L1064.1263 431.274c-4.8901 2.2698-10.0422 4.1506-15.4283 5.5938-50.3941 13.503-102.2026-16.4086-115.7057-66.8027L827.5224-23.554c-13.503-50.3941 16.4086-102.2027 66.8028-115.7057 50.394-13.503 102.2026 16.4086 115.7057 66.8027l80.6534 301.0028z" fill-rule="nonzero" style="mix-blend-mode:multiply" opacity=".0983"/></g></g></svg>